<?xml version="1.0" standalone="no"?>
<!DOCTYPE svg PUBLIC "-//W3C//DTD SVG 1.1//EN" "http://www.w3.org/Graphics/SVG/1.1/DTD/svg11.dtd" >
<svg xmlns="http://www.w3.org/2000/svg" xmlns:xlink="http://www.w3.org/1999/xlink" version="1.1">
<metadata>
Created by FontForge 20170731 at Sat Sep 21 10:51:33 2019
 By Aleksey,,,
Copyright (c) 2019 by TypeType. Designers Ivan Gladkikh, Pavel Emelyanov. Technical designers Marina Khodak, Kseniya Karataeva, Nadezhda Polomoshnova, Yuri Nako, Nadyr Rakhimov, Victor Rubenko. All rights reserved. Desktop use is strictly prohibited.
</metadata>
<defs>
<font id="TTInterfaces-Black" horiz-adv-x="2048" >
  <font-face 
    font-family="TT Interfaces Black"
    font-weight="900"
    font-stretch="normal"
    units-per-em="2048"
    panose-1="2 0 5 3 2 0 0 2 0 4"
    ascent="1638"
    descent="-410"
    x-height="1106"
    cap-height="1434"
    bbox="-1167 -553 2945 2109"
    underline-thickness="0"
    underline-position="0"
    unicode-range="U+000D-FB04"
  />
<missing-glyph horiz-adv-x="0" 
 />
    <glyph glyph-name="uniFB00" unicode="ff" horiz-adv-x="1628" 
d="M215 0v768h-174v338h174v82q0 180 89 264t300 84h236v-317h-174q-37 0 -59.5 -27t-22.5 -66v-20h379v82q0 180 89 264t300 84h235v-317h-174q-37 0 -59.5 -27t-22.5 -66v-20h256v-338h-256v-768h-368v768h-379v-768h-369z" />
    <glyph glyph-name="uniFB01" unicode="fi" horiz-adv-x="1454" 
d="M215 0v768h-174v338h174v82q0 180 89 264t300 84h236v-317h-174q-37 0 -59.5 -27t-22.5 -66v-20h747v-1106h-368v768h-379v-768h-369zM1147 1188q-98 0 -151.5 53t-53.5 141t53.5 141.5t151.5 53.5t151.5 -53.5t53.5 -141.5t-53.5 -141t-151.5 -53z" />
    <glyph glyph-name="uniFB02" unicode="fl" horiz-adv-x="1454" 
d="M215 0v768h-174v338h174v82q0 180 89 264t300 84h737v-1536h-368v1219h-307q-37 0 -59.5 -27t-22.5 -66v-20h256v-338h-256v-768h-369z" />
    <glyph glyph-name="uniFB03" unicode="ffi" horiz-adv-x="2199" 
d="M215 0v768h-174v338h174v82q0 180 89 264t300 84h236v-317h-174q-37 0 -59.5 -27t-22.5 -66v-20h377v82q0 180 89 264t300 84h235v-317h-174q-37 0 -59.5 -27t-22.5 -66v-20h748v-1106h-369v768h-379v-768h-368v768h-377v-768h-369zM1892.5 1188q-98.5 0 -151.5 53
t-53 141t53 141.5t151.5 53.5t151.5 -53.5t53 -141.5t-53 -141t-151.5 -53z" />
    <glyph glyph-name="uniFB04" unicode="ffl" horiz-adv-x="2201" 
d="M215 0v768h-174v338h174v82q0 180 89 264t300 84h236v-317h-174q-37 0 -59.5 -27t-22.5 -66v-20h379v82q0 180 89 264t300 84h737v-1536h-369v1219h-307q-37 0 -59.5 -27t-22.5 -66v-20h256v-338h-256v-768h-368v768h-379v-768h-369z" />
    <glyph glyph-name="f_f_j.liga" unicode="ffj" horiz-adv-x="2199" 
d="M1452 -410v328h174q37 0 59.5 26.5t22.5 65.5v758h-379v-768h-368v768h-377v-768h-369v768h-174v338h174v82q0 180 89 264t300 84h236v-317h-174q-37 0 -59.5 -27t-22.5 -66v-20h377v82q0 180 89 264t300 84h235v-317h-174q-37 0 -59.5 -27t-22.5 -66v-20h748v-1167
q0 -180 -89.5 -264.5t-299.5 -84.5h-236zM1892.5 1188q-98.5 0 -151.5 53t-53 141t53 141.5t151.5 53.5t151.5 -53.5t53 -141.5t-53 -141t-151.5 -53z" />
    <glyph glyph-name="f_j.liga" unicode="fj" horiz-adv-x="1454" 
d="M707 -410v328h174q37 0 59.5 26.5t22.5 65.5v758h-379v-768h-369v768h-174v338h174v82q0 180 89 264t300 84h236v-317h-174q-37 0 -59.5 -27t-22.5 -66v-20h747v-1167q0 -180 -89 -264.5t-300 -84.5h-235zM1147 1188q-98 0 -151.5 53t-53.5 141t53.5 141.5t151.5 53.5
t151.5 -53.5t53.5 -141.5t-53.5 -141t-151.5 -53z" />
    <glyph glyph-name=".notdef" horiz-adv-x="0" 
 />
    <glyph glyph-name="glyph1" horiz-adv-x="0" 
 />
    <glyph glyph-name="glyph1" horiz-adv-x="0" 
 />
    <glyph glyph-name="glyph2" horiz-adv-x="681" 
 />
    <glyph glyph-name="uni000D" unicode="&#xd;" horiz-adv-x="0" 
 />
    <glyph glyph-name="space" unicode=" " horiz-adv-x="491" 
 />
    <glyph glyph-name="exclam" unicode="!" horiz-adv-x="634" 
d="M317.5 -10q-75.5 0 -135 55t-59.5 137q0 84 59.5 140.5t135 56.5t135 -56.5t59.5 -140.5q0 -82 -59.5 -137t-135 -55zM164 532l-31 717v185h369v-185l-31 -717h-307z" />
    <glyph glyph-name="quotedbl" unicode="&#x22;" horiz-adv-x="860" 
d="M82 963v471h307v-471h-307zM471 963v471h307v-471h-307z" />
    <glyph glyph-name="numbersign" unicode="#" horiz-adv-x="1431" 
d="M158 0l61 287h-199l70 327h201l43 205h-199l68 328h200l62 287h317l-61 -287h174l61 287h318l-62 -287h199l-70 -328h-200l-43 -205h198l-67 -327h-201l-61 -287h-318l62 287h-174l-62 -287h-317zM608 614h172l43 205h-172z" />
    <glyph glyph-name="dollar" unicode="$" horiz-adv-x="1300" 
d="M451 -225v223q-190 39 -306 157.5t-125 315.5h410q0 -66 55.5 -104.5t159.5 -38.5q195 0 195 112q0 47 -57.5 73t-142.5 34t-184.5 32.5t-184.5 63.5t-142 131t-57 230q0 178 105.5 283.5t273.5 144.5v227h409v-229q188 -45 281.5 -165t97.5 -282h-410q0 59 -47 91
t-127 32q-86 0 -124.5 -29.5t-38.5 -72.5q0 -47 57 -74t142 -37t184.5 -36t184.5 -62.5t142.5 -125.5t57.5 -218q0 -166 -104.5 -286t-295.5 -163v-227h-409z" />
    <glyph glyph-name="percent" unicode="%" horiz-adv-x="1628" 
d="M242 0l891 1434h253l-890 -1434h-254zM1208.5 -20q-151.5 0 -245 96t-93.5 251.5t93.5 252t245 96.5t244.5 -96.5t93 -252t-93 -251.5t-244.5 -96zM1208.5 184q55.5 0 89 38t33.5 105.5t-33.5 105.5t-89 38t-89.5 -38t-34 -105.5t34 -105.5t89.5 -38zM419.5 758
q-151.5 0 -244.5 96t-93 252t93 252t244.5 96t245 -96t93.5 -252t-93.5 -252t-245 -96zM420 963q55 0 89 37.5t34 105.5t-34 105.5t-89 37.5t-89 -37.5t-34 -105.5t34 -105.5t89 -37.5z" />
    <glyph glyph-name="ampersand" unicode="&#x26;" horiz-adv-x="1402" 
d="M532 317q82 0 150 64l-176 176l-33 -22q-63 -43 -63 -115q0 -39 30.5 -71t91.5 -32zM502 -20q-233 0 -352 114.5t-119 294.5q0 199 192 326l74 49l-51 55q-123 135 -123 287q0 139 116.5 243.5t313.5 104.5q217 0 334 -102.5t117 -245.5q0 -199 -173 -320l-65 -47
l154 -149l104 106h442l-323 -331l362 -365h-440l-141 143q-61 -45 -103.5 -72.5t-133.5 -59t-185 -31.5zM549 946l47 37q49 39 49 82q0 31 -22.5 51.5t-59.5 20.5t-59.5 -20.5t-22.5 -51.5q0 -37 47 -94z" />
    <glyph glyph-name="quotesingle" unicode="'" horiz-adv-x="471" 
d="M82 963v471h307v-471h-307z" />
    <glyph glyph-name="parenleft" unicode="(" horiz-adv-x="798" 
d="M379 -410q-266 383 -266 952.5t266 952.5h379q-266 -416 -266 -952.5t266 -952.5h-379z" />
    <glyph glyph-name="parenright" unicode=")" horiz-adv-x="798" 
d="M41 -410q266 416 266 952.5t-266 952.5h379q266 -383 266 -952.5t-266 -952.5h-379z" />
    <glyph glyph-name="asterisk" unicode="*" horiz-adv-x="974" 
d="M377 639l-238 164q186 176 187 178l-254 47l86 268l227 -116l-41 254h287l-41 -254l227 116l86 -268l-254 -47l187 -178l-238 -164q-111 227 -111 231z" />
    <glyph glyph-name="plus" unicode="+" horiz-adv-x="1126" 
d="M420 143v359h-359v286h359v359h287v-359h358v-286h-358v-359h-287z" />
    <glyph glyph-name="comma" unicode="," horiz-adv-x="491" 
d="M0 -225l82 430h328l-127 -430h-283z" />
    <glyph glyph-name="hyphen" unicode="-" horiz-adv-x="860" 
d="M82 430v307h696v-307h-696z" />
    <glyph glyph-name="period" unicode="." horiz-adv-x="491" 
d="M246 -10q-76 0 -135.5 55t-59.5 137q0 84 59.5 140.5t135.5 56.5t135 -56.5t59 -140.5q0 -82 -59 -137t-135 -55z" />
    <glyph glyph-name="slash" unicode="/" horiz-adv-x="972" 
d="M0 -410l594 1905h379l-594 -1905h-379z" />
    <glyph glyph-name="zero" unicode="0" horiz-adv-x="1413" 
d="M707 -20q-297 0 -471.5 191t-174.5 545.5t174.5 546t471.5 191.5t471 -191.5t174 -546t-174 -545.5t-471 -191zM706.5 348q102.5 0 169 91t66.5 277.5t-66.5 277.5t-169 91t-169 -91t-66.5 -277.5t66.5 -277.5t169 -91z" />
    <glyph glyph-name="one" unicode="1" horiz-adv-x="911" 
d="M379 0v922h-297v368h215q82 0 82 82v62h409v-1434h-409z" />
    <glyph glyph-name="two" unicode="2" horiz-adv-x="1259" 
d="M51 0v379l611 461q86 66 86 133q0 49 -34 80.5t-100 31.5q-125 0 -143 -122h-420q4 92 37 176t97.5 156.5t175 115.5t253.5 43q281 0 422.5 -127t141.5 -313q0 -236 -226 -412l-317 -233h563v-369h-1147z" />
    <glyph glyph-name="three" unicode="3" horiz-adv-x="1310" 
d="M666 -20q-121 0 -224.5 23.5t-197.5 75.5t-148.5 152.5t-54.5 239.5h420q31 -123 184 -123q76 0 125 25.5t49 77.5q0 55 -45 73.5t-129 18.5h-133v348h133q154 0 154 102q0 92 -154 92q-139 0 -164 -122h-420q14 242 173 366.5t432 124.5q238 0 400.5 -106.5
t162.5 -303.5q0 -113 -68.5 -192.5t-167.5 -124.5q104 -35 180 -123t76 -215q0 -141 -86 -236.5t-212.5 -134t-284.5 -38.5z" />
    <glyph glyph-name="four" unicode="4" horiz-adv-x="1331" 
d="M461 584h266v407zM727 0v236h-686v348l553 850h543v-850h184v-348h-184v-236h-410z" />
    <glyph glyph-name="five" unicode="5" horiz-adv-x="1269" 
d="M645 -20q-240 0 -400.5 124.5t-183.5 356.5h410q10 -41 49 -77t115 -36q86 0 130 48t44 116q0 66 -42 115t-132 49q-109 0 -164 -82h-391l84 840h973v-338h-641l-17 -164h13q98 51 235 51q215 0 353.5 -129t138.5 -352q0 -219 -146.5 -370.5t-427.5 -151.5z" />
    <glyph glyph-name="six" unicode="6" horiz-adv-x="1269" 
d="M635 348q74 0 124 42t50 122t-50 122t-124 42q-76 0 -125 -41t-49 -123q0 -80 50 -122t124 -42zM635 -20q-264 0 -424 147t-160 375q0 125 40 227t114 221l309 484h451l-273 -430q236 0 381.5 -136.5t145.5 -365.5q0 -227 -160 -374.5t-424 -147.5z" />
    <glyph glyph-name="seven" unicode="7" horiz-adv-x="1136" 
d="M174 0l471 1065h-604v369h1044v-369l-471 -1065h-440z" />
    <glyph glyph-name="eight" unicode="8" horiz-adv-x="1310" 
d="M655 307q84 0 134.5 41t50.5 102.5t-50.5 102.5t-134.5 41t-134 -41t-50 -102.5t50 -102.5t134 -41zM655.5 -20q-290.5 0 -442.5 119.5t-152 320.5q0 111 64.5 199t161.5 129q-195 96 -195 296q0 193 161 301.5t402.5 108.5t402.5 -108.5t161 -301.5q0 -201 -195 -296
q96 -41 160.5 -129.5t64.5 -198.5q0 -201 -151.5 -320.5t-442 -119.5zM655.5 881q65.5 0 109.5 31.5t44 91t-44 91t-109.5 31.5t-109.5 -31.5t-44 -91t44 -91t109.5 -31.5z" />
    <glyph glyph-name="nine" unicode="9" horiz-adv-x="1269" 
d="M305 0l273 430q-236 0 -381.5 136t-145.5 366q0 227 160 374.5t424 147.5t424 -147.5t160 -374.5q0 -125 -40 -227.5t-114 -221.5l-309 -483h-451zM635 758q76 0 125 41t49 123q0 80 -50 121.5t-124 41.5t-124 -42t-50 -121.5t50 -121.5t124 -42z" />
    <glyph glyph-name="colon" unicode=":" horiz-adv-x="491" 
d="M246 -10q-76 0 -135.5 55t-59.5 137q0 84 59.5 140.5t135.5 56.5t135 -56.5t59 -140.5q0 -82 -59 -137t-135 -55zM246 727q-76 0 -135.5 55.5t-59.5 137.5q0 84 59.5 140t135.5 56t135 -56t59 -140q0 -82 -59 -137.5t-135 -55.5z" />
    <glyph glyph-name="semicolon" unicode=";" horiz-adv-x="491" 
d="M0 -225l82 430h328l-127 -430h-283zM246 727q-76 0 -135.5 55.5t-59.5 137.5q0 84 59.5 140t135.5 56t135 -56t59 -140q0 -82 -59 -137.5t-135 -55.5z" />
    <glyph glyph-name="less" unicode="&#x3c;" horiz-adv-x="1024" 
d="M973 61l-922 451v266l922 451v-328l-553 -256l553 -256v-328z" />
    <glyph glyph-name="equal" unicode="=" horiz-adv-x="1126" 
d="M61 256v287h1004v-287h-1004zM61 737v287h1004v-287h-1004z" />
    <glyph glyph-name="greater" unicode="&#x3e;" horiz-adv-x="1024" 
d="M51 61v328l553 256l-553 256v328l922 -451v-266z" />
    <glyph glyph-name="question" unicode="?" horiz-adv-x="1085" 
d="M540.5 -10q-75.5 0 -135 55t-59.5 137q0 84 59.5 140.5t135 56.5t135 -56.5t59.5 -140.5q0 -82 -59.5 -137t-135 -55zM348 512v82q0 109 31 182.5t74 107.5t87 55.5t74.5 46t30.5 59t-32.5 53t-69.5 18.5q-123 0 -123 -102h-400q0 207 136.5 323.5t375.5 116.5
q236 0 374 -104.5t138 -274.5q0 -90 -33.5 -154.5t-81.5 -98.5t-96.5 -63.5t-82 -69.5t-33.5 -95v-82h-369z" />
    <glyph glyph-name="at" unicode="@" horiz-adv-x="1914" 
d="M942 420q66 0 115 45t49 149.5t-49 149.5t-115 45q-74 0 -119 -49t-45 -145.5t45 -145.5t119 -49zM922 -236q-406 0 -628 233.5t-222 627.5q0 381 247.5 610t643.5 229q211 0 384 -67.5t281.5 -179t166.5 -249t58 -282.5q0 -246 -117.5 -374t-291.5 -128q-186 0 -266 133
h-11q-88 -133 -266 -133q-188 0 -283.5 123t-95.5 307q0 180 95.5 305t263.5 125q78 0 126 -19t99 -62h10l21 71h215v-479q0 -53 26.5 -85t65.5 -32q70 0 101.5 53.5t31.5 174.5q0 88 -33 175t-100.5 170t-192.5 135t-288 52q-287 0 -451 -166t-164 -407
q0 -279 141.5 -431.5t432.5 -152.5h338v-277h-338z" />
    <glyph glyph-name="A" unicode="A" horiz-adv-x="1443" 
d="M-20 0l501 1434h482l501 -1434h-430l-63 205h-500l-61 -205h-430zM602 573h240l-121 431z" />
    <glyph glyph-name="B" unicode="B" horiz-adv-x="1392" 
d="M532 348h267q123 0 123 102.5t-123 102.5h-267v-205zM123 0v1434h727q225 0 343 -105.5t118 -294.5q0 -102 -54.5 -185t-130.5 -122q205 -102 205 -328q0 -180 -113.5 -289.5t-347.5 -109.5h-747zM532 881h246q123 0 123 102t-123 102h-246v-204z" />
    <glyph glyph-name="C" unicode="C" horiz-adv-x="1464" 
d="M758 -20q-315 0 -506 192.5t-191 544.5t190.5 544.5t506.5 192.5q291 0 452.5 -146.5t202.5 -385.5h-420q-6 16 -16 33.5t-21.5 36t-30 35.5t-41 29.5t-55 20.5t-71.5 8q-147 0 -217 -99t-70 -269t69.5 -269.5t217.5 -99.5q47 0 85 13.5t58.5 24.5t44 44t26.5 40t21 42
h420q-41 -240 -202.5 -386t-452.5 -146z" />
    <glyph glyph-name="D" unicode="D" horiz-adv-x="1454" 
d="M123 0v1434h604q311 0 488.5 -196t177.5 -521.5t-177.5 -521t-488.5 -195.5h-604zM532 369h175q113 0 194.5 96t81.5 251.5t-82 252t-194 96.5h-175v-696z" />
    <glyph glyph-name="E" unicode="E" horiz-adv-x="1239" 
d="M123 0v1434h1024v-369h-615v-174h574v-338h-574v-184h635v-369h-1044z" />
    <glyph glyph-name="F" unicode="F" horiz-adv-x="1208" 
d="M123 0v1434h1024v-369h-615v-225h564v-369h-564v-471h-409z" />
    <glyph glyph-name="G" unicode="G" horiz-adv-x="1495" 
d="M758 -20q-315 0 -506 192.5t-191 544.5t190.5 544.5t506.5 192.5q291 0 453.5 -146.5t201.5 -385.5h-420q-59 164 -235 163q-147 0 -217 -99t-70 -269q0 -369 297 -369q178 0 238 144h-289v307h717v-133q0 -309 -185.5 -497.5t-490.5 -188.5z" />
    <glyph glyph-name="H" unicode="H" horiz-adv-x="1495" 
d="M123 0v1434h409v-523h431v523h409v-1434h-409v543h-431v-543h-409z" />
    <glyph glyph-name="I" unicode="I" horiz-adv-x="655" 
d="M123 0v1434h409v-1434h-409z" />
    <glyph glyph-name="J" unicode="J" horiz-adv-x="1187" 
d="M563 -20q-252 0 -387 131t-135 370h410q0 -133 112 -133q102 0 103 144v942h409v-942q0 -246 -133 -379t-379 -133z" />
    <glyph glyph-name="K" unicode="K" horiz-adv-x="1402" 
d="M123 0v1434h409v-605l410 605h471l-491 -707l522 -727h-471l-441 625v-625h-409z" />
    <glyph glyph-name="L" unicode="L" horiz-adv-x="1167" 
d="M123 0v1434h409v-1065h594v-369h-1003z" />
    <glyph glyph-name="M" unicode="M" horiz-adv-x="1955" 
d="M123 0v1434h573l281 -871l283 871h573v-1434h-410v879l-282 -879h-326l-283 879v-879h-409z" />
    <glyph glyph-name="N" unicode="N" horiz-adv-x="1587" 
d="M123 0v1434h512l420 -828v828h409v-1434h-512l-420 827v-827h-409z" />
    <glyph glyph-name="O" unicode="O" horiz-adv-x="1515" 
d="M757.5 -20q-315.5 0 -506 192.5t-190.5 544.5t190.5 544.5t506 192.5t506 -192.5t190.5 -544.5t-190.5 -544.5t-506 -192.5zM757.5 348q147.5 0 217 99.5t69.5 269.5t-69.5 269t-217 99t-217 -99t-69.5 -269t69.5 -269.5t217 -99.5z" />
    <glyph glyph-name="P" unicode="P" horiz-adv-x="1351" 
d="M123 0v1434h635q238 0 385 -145.5t147 -377t-147.5 -377t-384.5 -145.5h-226v-389h-409zM532 758h185q76 0 120 42t44 111.5t-44 111.5t-120 42h-185v-307z" />
    <glyph glyph-name="Q" unicode="Q" horiz-adv-x="1515" 
d="M1004 -205l-130 193q-51 -8 -116 -8q-315 0 -506 192.5t-191 544.5t190.5 544.5t506 192.5t506 -192.5t190.5 -544.5q0 -385 -231 -584l231 -338h-450zM757.5 348q147.5 0 217 99.5t69.5 269.5t-69.5 269t-217 99t-217 -99t-69.5 -269t69.5 -269.5t217 -99.5z" />
    <glyph glyph-name="R" unicode="R" horiz-adv-x="1372" 
d="M123 0v1434h655q233 0 372.5 -140.5t139.5 -351.5q0 -68 -14 -129t-36.5 -105t-50.5 -80t-54.5 -58.5t-50 -39t-35.5 -22.5l-15 -6l318 -502h-451l-270 451h-99v-451h-409zM532 819h216q61 0 97 34t36 89t-36 89t-97 34h-216v-246z" />
    <glyph glyph-name="S" unicode="S" horiz-adv-x="1300" 
d="M645 -20q-268 0 -441 124.5t-184 366.5h410q0 -66 55.5 -104.5t159.5 -38.5q195 0 195 112q0 47 -57.5 73t-142.5 34t-184.5 32.5t-184.5 63.5t-142 131t-57 230q0 119 50 209t134 141t182.5 75.5t206.5 24.5q299 0 444.5 -133t149.5 -338h-410q0 59 -47 91t-127 32
q-86 0 -124.5 -29.5t-38.5 -72.5q0 -47 57 -74t142 -37t184.5 -36t184.5 -62.5t142.5 -125.5t57.5 -218q0 -209 -163 -340t-452 -131z" />
    <glyph glyph-name="T" unicode="T" horiz-adv-x="1249" 
d="M420 0v1065h-400v369h1209v-369h-400v-1065h-409z" />
    <glyph glyph-name="U" unicode="U" horiz-adv-x="1495" 
d="M747.5 -20q-292.5 0 -463.5 175t-171 480v799h409v-799q0 -141 60.5 -214t165 -73t165 73t60.5 214v799h409v-799q0 -305 -171 -480t-463.5 -175z" />
    <glyph glyph-name="V" unicode="V" horiz-adv-x="1402" 
d="M451 0l-461 1434h430l282 -1004l281 1004h430l-461 -1434h-501z" />
    <glyph glyph-name="W" unicode="W" horiz-adv-x="2015" 
d="M379 0l-369 1434h420l182 -850l228 850h336l225 -850l184 850h420l-369 -1434h-399l-229 768l-230 -768h-399z" />
    <glyph glyph-name="X" unicode="X" horiz-adv-x="1372" 
d="M-41 0l461 737l-440 697h460l246 -441l246 441h461l-441 -697l461 -737h-461l-266 481l-266 -481h-461z" />
    <glyph glyph-name="Y" unicode="Y" horiz-adv-x="1320" 
d="M455 0v440l-496 994h440l260 -615l263 615h440l-498 -994v-440h-409z" />
    <glyph glyph-name="Z" unicode="Z" horiz-adv-x="1280" 
d="M61 0v307l615 778h-594v349h1126v-308l-624 -778h624v-348h-1147z" />
    <glyph glyph-name="bracketleft" unicode="[" horiz-adv-x="757" 
d="M123 -410v1905h594v-348h-225v-1208h225v-349h-594z" />
    <glyph glyph-name="backslash" unicode="\" horiz-adv-x="972" 
d="M594 -410l-594 1905h379l594 -1905h-379z" />
    <glyph glyph-name="bracketright" unicode="]" horiz-adv-x="757" 
d="M41 -410v349h225v1208h-225v348h594v-1905h-594z" />
    <glyph glyph-name="asciicircum" unicode="^" horiz-adv-x="993" 
d="M41 778l307 656h297l307 -656h-297l-153 359h-10l-154 -359h-297z" />
    <glyph glyph-name="underscore" unicode="_" horiz-adv-x="983" 
d="M-51 -512v307h1085v-307h-1085z" />
    <glyph glyph-name="grave" unicode="`" horiz-adv-x="634" 
d="M307 1260l-246 307h328l184 -307h-266z" />
    <glyph glyph-name="a" unicode="a" horiz-adv-x="1187" 
d="M532 276q88 0 141.5 43t53.5 101v20h-205q-102 0 -102 -82q0 -35 27.5 -58.5t84.5 -23.5zM440.5 -20q-180.5 0 -285 98t-104.5 250q0 147 110.5 242.5t330.5 95.5h235v41q0 41 -39 71.5t-104 30.5q-92 0 -123 -61h-369q27 158 151 268t351 110q236 0 369 -111.5
t133 -328.5v-686h-328l-31 102h-10q-106 -122 -286.5 -122z" />
    <glyph glyph-name="b" unicode="b" horiz-adv-x="1300" 
d="M676 307q88 0 141 63.5t53 182.5t-53 182.5t-141 63.5t-141.5 -63.5t-53.5 -182.5t53.5 -182.5t141.5 -63.5zM758 -20q-178 0 -277 122h-10l-31 -102h-327v1434h368v-420h11q113 113 266 112q221 0 351 -147.5t130 -426t-130 -425.5t-351 -147z" />
    <glyph glyph-name="c" unicode="c" horiz-adv-x="1218" 
d="M625 -20q-270 0 -417 148t-147 424.5t146.5 425t417.5 148.5q131 0 234.5 -42t164.5 -112.5t96 -146t47 -159.5h-368q-49 133 -185 133q-80 0 -132 -63.5t-52 -182.5t52.5 -182.5t131.5 -63.5q135 0 185 133h368q-12 -84 -47 -159.5t-96 -146.5t-164.5 -112.5
t-234.5 -41.5z" />
    <glyph glyph-name="d" unicode="d" horiz-adv-x="1300" 
d="M625 307q88 0 141 63.5t53 182.5t-53 182.5t-141 63.5t-141.5 -63.5t-53.5 -182.5t53.5 -182.5t141.5 -63.5zM543 -20q-221 0 -351.5 147t-130.5 425.5t130.5 426t351.5 147.5q154 0 266 -112h10v420h369v-1434h-328l-31 102h-10q-98 -122 -276 -122z" />
    <glyph glyph-name="e" unicode="e" horiz-adv-x="1249" 
d="M635 -20q-276 0 -425 148t-149 425q0 274 152 423.5t422 149.5q264 0 408.5 -163.5t144.5 -409.5l-10 -113h-758q12 -61 59 -112.5t135 -51.5q129 0 185 82h368q-14 -57 -45.5 -116.5t-91 -122t-163 -101t-232.5 -38.5zM420 676h409q-39 154 -204.5 154t-204.5 -154z" />
    <glyph glyph-name="f" unicode="f" horiz-adv-x="880" 
d="M215 0v768h-174v338h174v82q0 180 89 264t300 84h236v-317h-174q-37 0 -59.5 -27t-22.5 -66v-20h256v-338h-256v-768h-369z" />
    <glyph glyph-name="g" unicode="g" horiz-adv-x="1290" 
d="M645 -410q-152 0 -262.5 39t-168.5 104.5t-87 128t-35 128.5h369q27 -92 174 -92q98 0 141 38.5t43 124.5v113h-10q-25 -37 -93.5 -75t-172.5 -38q-207 0 -344.5 141.5t-137.5 381.5q0 244 142.5 393t359.5 149q170 0 277 -112h10l31 92h307v-1045q0 -236 -132 -353.5
t-411 -117.5zM625 369q86 0 140 60t54 164.5t-54 165t-140 60.5t-140.5 -60.5t-54.5 -165t54.5 -164.5t140.5 -60z" />
    <glyph glyph-name="h" unicode="h" horiz-adv-x="1259" 
d="M113 0v1434h368v-410h11q115 102 286 102q70 0 135.5 -23.5t124 -72.5t94 -138t35.5 -206v-686h-368v614q0 84 -43 129t-117 45t-116 -45t-42 -129v-614h-368z" />
    <glyph glyph-name="i" unicode="i" horiz-adv-x="573" 
d="M102 0v1106h369v-1106h-369zM286.5 1188q-98.5 0 -151.5 53t-53 141t53 141.5t151.5 53.5t152 -53.5t53.5 -141.5t-53.5 -141t-152 -53z" />
    <glyph glyph-name="j" unicode="j" horiz-adv-x="573" 
d="M-154 -410v328h174q37 0 59.5 26.5t22.5 65.5v1096h369v-1167q0 -180 -89 -264.5t-300 -84.5h-236zM286.5 1188q-98.5 0 -151.5 53t-53 141t53 141.5t151.5 53.5t152 -53.5t53.5 -141.5t-53.5 -141t-152 -53z" />
    <glyph glyph-name="k" unicode="k" horiz-adv-x="1218" 
d="M113 0v1434h368v-789l318 461h430l-379 -543l410 -563h-431l-348 481v-481h-368z" />
    <glyph glyph-name="l" unicode="l" horiz-adv-x="593" 
d="M113 0v1434h368v-1434h-368z" />
    <glyph glyph-name="m" unicode="m" horiz-adv-x="1832" 
d="M102 0v1106h328l31 -102h10q88 123 246 122q59 0 112.5 -16t85 -41t56 -49.5t33.5 -40.5l10 -16h10q4 6 11 17t34 40t59.5 50.5t90 38.5t122.5 17q156 0 278 -108.5t122 -331.5v-686h-369v614q0 174 -133 174q-59 0 -96 -43t-37 -131v-614h-369v614q0 174 -133 174
q-59 0 -96 -43t-37 -131v-614h-369z" />
    <glyph glyph-name="n" unicode="n" horiz-adv-x="1249" 
d="M102 0v1106h328l31 -102h10q117 123 297 122q70 0 135.5 -23.5t123.5 -72.5t94 -138t36 -206v-686h-369v614q0 84 -43 129t-116.5 45t-115.5 -45t-42 -129v-614h-369z" />
    <glyph glyph-name="o" unicode="o" horiz-adv-x="1249" 
d="M624.5 -20q-270.5 0 -417 148t-146.5 424.5t146.5 425t417 148.5t417 -148.5t146.5 -425t-146.5 -424.5t-417 -148zM625 307q88 0 141 63.5t53 182.5t-53 182.5t-141 63.5t-141.5 -63.5t-53.5 -182.5t53.5 -182.5t141.5 -63.5z" />
    <glyph glyph-name="p" unicode="p" horiz-adv-x="1290" 
d="M102 -410v1516h328l31 -102h10q98 123 277 122q221 0 351 -147.5t130 -426t-130 -425.5t-351 -147q-154 0 -267 112h-10v-502h-369zM666 307q88 0 141 63.5t53 182.5t-53 182.5t-141 63.5t-141.5 -63.5t-53.5 -182.5t53.5 -182.5t141.5 -63.5z" />
    <glyph glyph-name="q" unicode="q" horiz-adv-x="1290" 
d="M819 -410v502h-10q-113 -113 -266 -112q-221 0 -351.5 147t-130.5 425.5t130.5 426t351.5 147.5q178 0 276 -122h10l31 102h328v-1516h-369zM625 307q88 0 141 63.5t53 182.5t-53 182.5t-141 63.5t-141.5 -63.5t-53.5 -182.5t53.5 -182.5t141.5 -63.5z" />
    <glyph glyph-name="r" unicode="r" horiz-adv-x="901" 
d="M102 0v1106h328l31 -102h10q41 53 110.5 77.5t135.5 24.5h164v-348h-144q-266 0 -266 -277v-481h-369z" />
    <glyph glyph-name="s" unicode="s" horiz-adv-x="1126" 
d="M553 -20q-145 0 -252.5 37.5t-164 100t-84 127t-32.5 134.5h369q8 -45 52 -74t112 -29q164 0 164 72q0 33 -48 51.5t-122 23.5t-158 24.5t-157.5 50t-122 102.5t-48.5 178q0 158 129 253t363 95q139 0 242.5 -33.5t161 -91t86 -121t32.5 -132.5h-368q0 35 -36 58t-108 23
q-123 0 -123 -61q0 -35 66.5 -50.5t161 -27.5t189.5 -38.5t161.5 -105.5t66.5 -208q0 -59 -21.5 -113.5t-73.5 -114t-164.5 -95t-272.5 -35.5z" />
    <glyph glyph-name="t" unicode="t" horiz-adv-x="921" 
d="M604 0q-211 0 -300 84t-89 264v420h-174v338h174l61 287h308v-287h256v-338h-256v-348q0 -39 22.5 -65.5t59.5 -26.5h174v-328h-236z" />
    <glyph glyph-name="u" unicode="u" horiz-adv-x="1259" 
d="M492 -20q-70 0 -135.5 23.5t-124 72.5t-94.5 138t-36 206v686h369v-614q0 -84 43 -129.5t117 -45.5t115.5 45.5t41.5 129.5v614h369v-1106h-328l-30 102h-11q-116 -122 -296 -122z" />
    <glyph glyph-name="v" unicode="v" horiz-adv-x="1157" 
d="M348 0l-358 1106h389l201 -778l198 778h389l-358 -1106h-461z" />
    <glyph glyph-name="w" unicode="w" horiz-adv-x="1751" 
d="M297 0l-287 1106h389l140 -655l168 655h337l168 -655l140 655h389l-287 -1106h-410l-170 573l-167 -573h-410z" />
    <glyph glyph-name="x" unicode="x" horiz-adv-x="1085" 
d="M-31 0l328 573l-307 533h409l144 -307l143 307h410l-308 -533l328 -573h-409l-164 328l-164 -328h-410z" />
    <glyph glyph-name="y" unicode="y" horiz-adv-x="1218" 
d="M246 -410l164 410l-430 1106h409l225 -676l215 676h410l-594 -1516h-399z" />
    <glyph glyph-name="z" unicode="z" horiz-adv-x="1085" 
d="M61 0v287l461 491h-440v328h922v-287l-461 -491h471v-328h-953z" />
    <glyph glyph-name="braceleft" unicode="{" horiz-adv-x="819" 
d="M543 -410q-188 0 -273.5 92.5t-85.5 286.5v256q0 154 -143 154v0v0v2v0v2v0v2v0v2v2v2v2v2v2v2v2v2v3v2v2v2v2v2v2v2v2v2v2v2v2v2v2v2v2v2v4v2v3v2v2v2v2v2v4v2v2v2v2v4v2v2v4v2v2v2v5v2v2v4v2v4v2v2v4v2v4v2v2v4v2v5v2v4v2v4v2v4v2v4v2v4v4v2v5v2v4v4v2v4v2v4v4v2v4v4v2
v5v4v4v2v4v4v2v4v4v4v2v4v5v4v4v2v4v4v4v4v17q143 0 143 153v256q0 195 85 287t274 92h235v-348h-82q-143 0 -143 -143v-175q0 -242 -195 -266v-41q195 -25 195 -266v-174q0 -143 143 -143h82v-349h-235z" />
    <glyph glyph-name="bar" unicode="|" horiz-adv-x="860" 
d="M246 -410v1905h368v-1905h-368z" />
    <glyph glyph-name="braceright" unicode="}" horiz-adv-x="819" 
d="M41 -410v349h82q143 0 143 143v174q0 242 195 266v41q-195 25 -195 266v175q0 143 -143 143h-82v348h235q188 0 273.5 -92t85.5 -287v-256q0 -154 143 -153v0v0v-2v0v-3v0v-2v-2v-2v-2v-2v-2v-2v-2v-2v-2v-2v-2v-2v-2v-2v-2v-2v-2v-2v-2v-3v-2v-2v-2v-2v-2v-2v-2v-2v-2
v-2v-2v-4v-2v-2v-2v-2v-2v-5v-2v-2v-2v-4v-2v-2v-4v-2v-2v-2v-4v-2v-2v-4v-2v-5v-2v-2v-4v-2v-4v-2v-4v-2v-4v-2v-4v-2v-4v-2v-5v-2v-4v-2v-4v-2v-4v-4v-2v-4v-2v-4v-4v-3v-4v-4v-2v-4v-4v-2v-4v-4v-4v-2v-4v-5v-4v-2v-4v-4v-4v-4v-2v-4v-4v-4v-4v-5v-2v-20
q-143 0 -143 -154v-256q0 -195 -85 -287t-274 -92h-235z" />
    <glyph glyph-name="asciitilde" unicode="~" horiz-adv-x="1320" 
d="M860 430q-92 0 -162.5 34t-119 66.5t-86.5 32.5q-53 0 -83 -33.5t-30 -89.5h-297q0 207 105.5 318.5t273.5 111.5q92 0 162.5 -33.5t119 -66.5t86.5 -33q53 0 83 34t30 89h297q0 -207 -105.5 -318.5t-273.5 -111.5z" />
    <glyph glyph-name="uni00A0" unicode="&#xa0;" horiz-adv-x="491" 
 />
    <glyph glyph-name="exclamdown" unicode="&#xa1;" horiz-adv-x="614" 
d="M123 -410v185l31 798h307l31 -798v-185h-369zM307 727q-76 0 -135 55.5t-59 137.5q0 84 59 140t135 56t135.5 -56t59.5 -140q0 -82 -59.5 -137.5t-135.5 -55.5z" />
    <glyph glyph-name="cent" unicode="&#xa2;" horiz-adv-x="1218" 
d="M430 -225v227q-178 47 -273.5 188.5t-95.5 362.5t95.5 361.5t273.5 187.5v188h369v-186q166 -45 256 -168t112 -270h-368q-49 133 -185 133q-80 0 -132 -63.5t-52 -182.5t52.5 -182.5t131.5 -63.5q135 0 185 133h368q-23 -147 -112.5 -270t-255.5 -170v-225h-369z" />
    <glyph glyph-name="sterling" unicode="&#xa3;" horiz-adv-x="1259" 
d="M41 0v369h61q113 0 113 123v30h-174v359h174v82q0 238 131 364.5t371 126.5q254 0 373.5 -127t128.5 -344h-420q0 102 -82 102q-92 0 -92 -122v-82h297v-359h-297v-30q0 -41 -13.5 -72t-25.5 -41l-13 -10h656v-369h-1188z" />
    <glyph glyph-name="currency" unicode="&#xa4;" horiz-adv-x="1208" 
d="M604.5 410q108.5 0 177 68.5t68.5 177t-68.5 177t-177 68.5t-177.5 -68.5t-69 -177t69 -177t177.5 -68.5zM225 123l-164 145l140 140q-68 113 -68 247q0 143 68 250l-140 139l164 146l131 -131q113 68 248 67.5t248 -67.5l131 131l164 -146l-139 -139q68 -113 67 -250
q0 -135 -67 -247l139 -140l-164 -145l-129 129q-109 -68 -250 -68t-250 68z" />
    <glyph glyph-name="yen" unicode="&#xa5;" horiz-adv-x="1320" 
d="M455 0v154h-330v307h330v82h-330v307h158l-303 584h440l239 -594l242 594h440l-303 -584h158v-307h-332v-82h332v-307h-332v-154h-409z" />
    <glyph glyph-name="brokenbar" unicode="&#xa6;" horiz-adv-x="860" 
d="M246 -410v779h368v-779h-368zM246 717v778h368v-778h-368z" />
    <glyph glyph-name="section" unicode="&#xa7;" horiz-adv-x="1290" 
d="M645 -246q-225 0 -367.5 106.5t-164.5 303.5h389q23 -92 153 -92q51 0 87 17t36 54q0 35 -51 54.5t-129 25.5t-168 27.5t-168 54.5t-129 110t-51 189q0 80 46 149.5t110 106.5q-47 39 -81 101.5t-34 123.5q0 172 136 270.5t386 98.5q225 0 367.5 -103.5t165.5 -285.5
h-390q-25 72 -153 72q-51 0 -87 -17.5t-36 -54.5q0 -35 51 -54.5t129 -25.5t168 -27.5t168 -54.5t129 -109.5t51 -189.5q0 -80 -46 -149.5t-109 -106.5q47 -39 80.5 -101.5t33.5 -123.5q0 -172 -136 -270.5t-386 -98.5zM782 510q37 31 37 74q0 35 -32.5 56.5t-71.5 27.5
t-104.5 14t-102.5 16q-37 -31 -37 -73q0 -35 33 -56.5t71.5 -27.5t104 -14.5t102.5 -16.5z" />
    <glyph glyph-name="dieresis" unicode="&#xa8;" horiz-adv-x="901" 
d="M231 1249q-72 0 -121 47t-49 121t50.5 122t120 48t118.5 -48t49 -122t-49 -121t-119 -47zM672 1249q-72 0 -121 47t-49 121t50 122t119.5 48t119 -48t49.5 -122t-49 -121t-119 -47z" />
    <glyph glyph-name="copyright" unicode="&#xa9;" horiz-adv-x="1638" 
d="M819.5 -20q-323.5 0 -530.5 206.5t-207 530t207 530.5t530.5 207t530 -207t206.5 -530.5t-206.5 -530t-530 -206.5zM819 195q225 0 368.5 143t143.5 378.5t-143.5 379t-368.5 143.5t-368.5 -143.5t-143.5 -379t143.5 -378.5t368.5 -143zM819 328q-170 0 -269 103.5
t-99 285.5t99 285.5t269 103.5q162 0 246 -84t102 -203h-215q-37 92 -133 92q-154 0 -153.5 -194.5t153.5 -194.5q96 0 133 92h215q-18 -119 -102 -202.5t-246 -83.5z" />
    <glyph glyph-name="ordfeminine" unicode="&#xaa;" horiz-adv-x="737" 
d="M328 901q63 0 98 33t35 70v20h-133q-82 0 -82 -61.5t82 -61.5zM287 717q-125 0 -185.5 70.5t-60.5 154.5q0 96 70.5 160.5t195.5 64.5h154v21q0 82 -82 82q-29 0 -47.5 -11.5t-22.5 -17.5t-12 -22h-215q8 102 81 168.5t216 66.5t220 -70.5t77 -195.5v-461h-195l-8 61h-10
q-84 -71 -176 -71z" />
    <glyph glyph-name="guillemotleft" unicode="&#xab;" horiz-adv-x="1556" 
d="M512 61l-451 502l451 502h399l-450 -496v-12l450 -496h-399zM1116 61l-450 502l450 502h400l-451 -496v-12l451 -496h-400z" />
    <glyph glyph-name="logicalnot" unicode="&#xac;" horiz-adv-x="1105" 
d="M748 297v195h-687v286h973v-481h-286z" />
    <glyph glyph-name="uni00AD" unicode="&#xad;" horiz-adv-x="860" 
d="M82 430v307h696v-307h-696z" />
    <glyph glyph-name="registered" unicode="&#xae;" horiz-adv-x="1638" 
d="M819.5 -20q-323.5 0 -530.5 206.5t-207 530t207 530.5t530.5 207t530 -207t206.5 -530.5t-206.5 -530t-530 -206.5zM819 195q225 0 368.5 143t143.5 378.5t-143.5 379t-368.5 143.5t-368.5 -143.5t-143.5 -379t143.5 -378.5t368.5 -143zM532 338v768h328q143 0 215 -74
t72 -182q0 -166 -143 -232l163 -280h-239l-150 256h-30v-256h-216zM748 788h92q92 0 92 61.5t-92 61.5h-92v-123z" />
    <glyph glyph-name="macron" unicode="&#xaf;" horiz-adv-x="757" 
d="M61 1290v236h635v-236h-635z" />
    <glyph glyph-name="degree" unicode="&#xb0;" horiz-adv-x="819" 
d="M409.5 840q-141.5 0 -234.5 89t-93 238.5t93 238.5t234.5 89t234.5 -89t93 -238.5t-93 -238.5t-234.5 -89zM409.5 1044q51.5 0 82 35t30.5 88.5t-30.5 88t-82 34.5t-82 -34.5t-30.5 -88t30.5 -88.5t82 -35z" />
    <glyph glyph-name="plusminus" unicode="&#xb1;" horiz-adv-x="1126" 
d="M61 20v287h1004v-287h-1004zM420 389v338h-359v287h359v338h287v-338h358v-287h-358v-338h-287z" />
    <glyph glyph-name="uni00B2" unicode="&#xb2;" horiz-adv-x="706" 
d="M51 819v195l277 246q37 33 49 46t27.5 37.5t15.5 49.5q0 61 -72 61t-72 -72h-225q0 266 307 267q139 0 213 -70t74 -176q0 -135 -139 -258l-158 -131h287v-195h-584z" />
    <glyph glyph-name="uni00B3" unicode="&#xb3;" horiz-adv-x="727" 
d="M368.5 809q-163.5 0 -245.5 68.5t-82 187.5h225q0 -20 24.5 -40.5t67.5 -20.5q39 0 66 20t27 51q0 72 -93 72h-51v184h51q41 0 61.5 20.5t20.5 41.5q0 25 -22.5 43t-59.5 18q-92 0 -92 -72h-225q0 131 82 199t235 68q152 0 230 -66.5t78 -159.5q0 -125 -123 -174
q133 -49 133 -184q0 -92 -72 -174t-235.5 -82z" />
    <glyph glyph-name="acute" unicode="&#xb4;" horiz-adv-x="634" 
d="M61 1260l185 307h327l-245 -307h-267z" />
    <glyph glyph-name="mu" unicode="&#xb5;" horiz-adv-x="1259" 
d="M102 -369v1475h369v-614q0 -174 160 -175q158 0 157 175v614h369v-1106h-328l-30 102h-11q-66 -123 -194 -122q-33 0 -63.5 5t-45.5 11l-14 4v-369h-369z" />
    <glyph glyph-name="paragraph" unicode="&#xb6;" horiz-adv-x="1320" 
d="M420 -225v819q-150 0 -259.5 120t-109.5 300q0 184 103.5 302t265.5 118h778v-1659h-317v1310h-144v-1310h-317z" />
    <glyph glyph-name="periodcentered" unicode="&#xb7;" horiz-adv-x="491" 
d="M246 369q-76 0 -135.5 55t-59.5 137q0 84 59.5 140.5t135.5 56.5t135 -56.5t59 -140.5q0 -82 -59 -137t-135 -55z" />
    <glyph glyph-name="cedilla" unicode="&#xb8;" horiz-adv-x="542" 
d="M61 -512v205h123q51 0 51.5 41t-51.5 41h-92v143l41 82h184l-30 -61q72 -8 133 -65.5t61 -149.5q0 -100 -63.5 -168t-192.5 -68h-164z" />
    <glyph glyph-name="uni00B9" unicode="&#xb9;" horiz-adv-x="583" 
d="M256 819v512h-184v195h133q51 0 51 51v61h215v-819h-215z" />
    <glyph glyph-name="ordmasculine" unicode="&#xba;" horiz-adv-x="798" 
d="M399.5 717q-149.5 0 -249 93t-99.5 275.5t99.5 275.5t249 93t249 -93t99.5 -275.5t-99.5 -275.5t-249 -93zM399.5 911q65.5 0 99 50.5t33.5 124t-33.5 124t-99 50.5t-99.5 -50.5t-34 -124t34 -124t99.5 -50.5z" />
    <glyph glyph-name="guillemotright" unicode="&#xbb;" horiz-adv-x="1556" 
d="M41 61l451 496v12l-451 496h399l451 -502l-451 -502h-399zM645 61l451 496v12l-451 496h399l451 -502l-451 -502h-399z" />
    <glyph glyph-name="onequarter" unicode="&#xbc;" horiz-adv-x="1587" 
d="M164 0l891 1434h215l-891 -1434h-215zM225 614v512h-184v195h133q51 0 51 51v62h215v-820h-215zM1188 0v164h-359v194l328 461h246v-461h123v-194h-123v-164h-215zM1055 358h133v195z" />
    <glyph glyph-name="onehalf" unicode="&#xbd;" horiz-adv-x="1597" 
d="M164 0l891 1434h215l-891 -1434h-215zM225 614v512h-184v195h133q51 0 51 51v62h215v-820h-215zM922 0v195l276 245q37 33 49.5 46.5t27.5 38t15 48.5q0 61 -71.5 61.5t-71.5 -71.5h-225q0 266 307 266q139 0 213 -69.5t74 -175.5q0 -135 -140 -258l-157 -131h286v-195
h-583z" />
    <glyph glyph-name="threequarters" unicode="&#xbe;" horiz-adv-x="1757" 
d="M334 0l891 1434h215l-891 -1434h-215zM368.5 604q-163.5 0 -245.5 68.5t-82 187.5h225q0 -20 24.5 -40.5t67.5 -20.5q39 0 66 20.5t27 50.5q0 72 -93 72h-51v184h51q41 0 61.5 20.5t20.5 41.5q0 25 -22.5 43t-59.5 18q-92 0 -92 -71h-225q0 131 82 198.5t235 67.5
q152 0 230 -66.5t78 -158.5q0 -125 -123 -175q133 -49 133 -184q0 -92 -72 -174t-235.5 -82zM1358 0v164h-359v194l328 461h246v-461h123v-194h-123v-164h-215zM1225 358h133v195z" />
    <glyph glyph-name="questiondown" unicode="&#xbf;" horiz-adv-x="1085" 
d="M553 -430q-236 0 -374 104.5t-138 274.5q0 102 34 175t82 112.5t96 74.5t82 84t34 117v82h368v-82q0 -119 -30.5 -202t-73.5 -123t-87 -67.5t-75 -60t-31 -79.5q0 -35 33 -53.5t70 -18.5q123 0 123 102h399q0 -207 -136 -323.5t-376 -116.5zM545 727q-76 0 -135.5 56.5
t-59.5 140.5q0 82 59.5 137t135.5 55t135 -55t59 -137q0 -84 -59 -140.5t-135 -56.5z" />
    <glyph glyph-name="Agrave" unicode="&#xc0;" horiz-adv-x="1443" 
d="M-20 0l501 1434h482l501 -1434h-430l-63 205h-500l-61 -205h-430zM602 573h240l-121 431zM584 1567l-246 307h328l184 -307h-266z" />
    <glyph glyph-name="Aacute" unicode="&#xc1;" horiz-adv-x="1443" 
d="M-20 0l501 1434h482l501 -1434h-430l-63 205h-500l-61 -205h-430zM602 573h240l-121 431zM584 1567l184 307h328l-246 -307h-266z" />
    <glyph glyph-name="Acircumflex" unicode="&#xc2;" horiz-adv-x="1443" 
d="M-20 0l501 1434h482l501 -1434h-430l-63 205h-500l-61 -205h-430zM602 573h240l-121 431zM307 1567l287 317h256l287 -317h-287l-123 143h-10l-123 -143h-287z" />
    <glyph glyph-name="Atilde" unicode="&#xc3;" horiz-adv-x="1443" 
d="M-20 0l501 1434h482l501 -1434h-430l-63 205h-500l-61 -205h-430zM602 573h240l-121 431zM850 1577q-49 0 -124 36t-101 36q-41 0 -41 -62h-226q0 276 226 277q49 0 123.5 -36t101.5 -36q41 0 41 61h225q0 -276 -225 -276z" />
    <glyph glyph-name="Adieresis" unicode="&#xc4;" horiz-adv-x="1443" 
d="M-20 0l501 1434h482l501 -1434h-430l-63 205h-500l-61 -205h-430zM602 573h240l-121 431zM508 1556q-72 0 -121 47.5t-49 121t50 121.5t120 48t119 -48t49 -121.5t-49 -121t-119 -47.5zM948 1556q-72 0 -121 47.5t-49 121t50.5 121.5t120 48t118.5 -48t49 -121.5
t-49 -121t-119 -47.5z" />
    <glyph glyph-name="Aring" unicode="&#xc5;" horiz-adv-x="1443" 
d="M-20 0l501 1434h482l501 -1434h-430l-63 205h-500l-61 -205h-430zM602 573h240l-121 431zM716.5 1495q-104.5 0 -175 69.5t-70.5 176t70.5 176.5t175 70t175.5 -70t71 -176.5t-71 -176t-175.5 -69.5zM717 1659q37 0 59.5 22.5t22.5 59.5t-22.5 59.5t-59.5 22.5
t-59.5 -22.5t-22.5 -59.5t22.5 -59.5t59.5 -22.5z" />
    <glyph glyph-name="AE" unicode="&#xc6;" horiz-adv-x="1984" 
d="M614 573h265v492h-37zM-102 0l727 1434h1267v-369h-614v-174h573v-338h-573v-184h635v-369h-1034v236h-414l-119 -236h-448z" />
    <glyph glyph-name="Ccedilla" unicode="&#xc7;" horiz-adv-x="1464" 
d="M594 -512v205h123q51 0 51 41t-51 41h-92v143l32 68q-272 29 -434 218t-162 513q0 352 190.5 544.5t506.5 192.5q291 0 452.5 -146.5t202.5 -385.5h-420q-6 16 -16 33.5t-21.5 36t-30 35.5t-41 29.5t-55 20.5t-71.5 8q-147 0 -217 -99t-70 -269t69.5 -269.5t217.5 -99.5
q47 0 85 13.5t58.5 24.5t44 44t26.5 40t21 42h420q-37 -223 -178 -365.5t-393 -162.5l-23 -45q72 -8 133.5 -65.5t61.5 -149.5q0 -100 -63.5 -168t-192.5 -68h-164z" />
    <glyph glyph-name="Egrave" unicode="&#xc8;" horiz-adv-x="1239" 
d="M123 0v1434h1024v-369h-615v-174h574v-338h-574v-184h635v-369h-1044zM512 1567l-246 307h328l184 -307h-266z" />
    <glyph glyph-name="Eacute" unicode="&#xc9;" horiz-adv-x="1239" 
d="M123 0v1434h1024v-369h-615v-174h574v-338h-574v-184h635v-369h-1044zM512 1567l184 307h328l-246 -307h-266z" />
    <glyph glyph-name="Ecircumflex" unicode="&#xca;" horiz-adv-x="1239" 
d="M123 0v1434h1024v-369h-615v-174h574v-338h-574v-184h635v-369h-1044zM236 1567l286 317h256l287 -317h-287l-123 143h-10l-123 -143h-286z" />
    <glyph glyph-name="Edieresis" unicode="&#xcb;" horiz-adv-x="1239" 
d="M123 0v1434h1024v-369h-615v-174h574v-338h-574v-184h635v-369h-1044zM426 1556q-72 0 -121 47.5t-49 121t50 121.5t120 48t119 -48t49 -121.5t-49 -121t-119 -47.5zM866 1556q-72 0 -121 47.5t-49 121t50.5 121.5t120 48t118.5 -48t49 -121.5t-49 -121t-119 -47.5z" />
    <glyph glyph-name="Igrave" unicode="&#xcc;" horiz-adv-x="655" 
d="M123 0v1434h409v-1434h-409zM195 1567l-246 307h327l185 -307h-266z" />
    <glyph glyph-name="Iacute" unicode="&#xcd;" horiz-adv-x="655" 
d="M123 0v1434h409v-1434h-409zM195 1567l184 307h328l-246 -307h-266z" />
    <glyph glyph-name="Icircumflex" unicode="&#xce;" horiz-adv-x="655" 
d="M123 0v1434h409v-1434h-409zM-82 1567l287 317h256l287 -317h-287l-123 143h-10l-123 -143h-287z" />
    <glyph glyph-name="Idieresis" unicode="&#xcf;" horiz-adv-x="655" 
d="M123 0v1434h409v-1434h-409zM109 1556q-72 0 -121 47.5t-49 121t50 121.5t119.5 48t118.5 -48t49 -121.5t-48.5 -121t-118.5 -47.5zM549 1556q-72 0 -121 47.5t-49 121t50 121.5t119.5 48t119 -48t49.5 -121.5t-49 -121t-119 -47.5z" />
    <glyph glyph-name="Eth" unicode="&#xd0;" horiz-adv-x="1495" 
d="M164 0v553h-164v338h164v543h604q311 0 488.5 -196t177.5 -521.5t-177.5 -521t-488.5 -195.5h-604zM573 369h175q113 0 194.5 96t81.5 251.5t-82 252t-194 96.5h-175v-174h267v-338h-267v-184z" />
    <glyph glyph-name="Ntilde" unicode="&#xd1;" horiz-adv-x="1587" 
d="M123 0v1434h512l420 -828v828h409v-1434h-512l-420 827v-827h-409zM932 1577q-49 0 -124 36t-101 36q-41 0 -41 -62h-226q0 276 226 277q49 0 123.5 -36t101.5 -36q41 0 41 61h225q0 -276 -225 -276z" />
    <glyph glyph-name="Ograve" unicode="&#xd2;" horiz-adv-x="1515" 
d="M757.5 -20q-315.5 0 -506 192.5t-190.5 544.5t190.5 544.5t506 192.5t506 -192.5t190.5 -544.5t-190.5 -544.5t-506 -192.5zM757.5 348q147.5 0 217 99.5t69.5 269.5t-69.5 269t-217 99t-217 -99t-69.5 -269t69.5 -269.5t217 -99.5zM625 1567l-246 307h328l184 -307h-266
z" />
    <glyph glyph-name="Oacute" unicode="&#xd3;" horiz-adv-x="1515" 
d="M757.5 -20q-315.5 0 -506 192.5t-190.5 544.5t190.5 544.5t506 192.5t506 -192.5t190.5 -544.5t-190.5 -544.5t-506 -192.5zM757.5 348q147.5 0 217 99.5t69.5 269.5t-69.5 269t-217 99t-217 -99t-69.5 -269t69.5 -269.5t217 -99.5zM625 1567l184 307h328l-246 -307h-266
z" />
    <glyph glyph-name="Ocircumflex" unicode="&#xd4;" horiz-adv-x="1515" 
d="M757.5 -20q-315.5 0 -506 192.5t-190.5 544.5t190.5 544.5t506 192.5t506 -192.5t190.5 -544.5t-190.5 -544.5t-506 -192.5zM757.5 348q147.5 0 217 99.5t69.5 269.5t-69.5 269t-217 99t-217 -99t-69.5 -269t69.5 -269.5t217 -99.5zM348 1567l287 317h256l287 -317h-287
l-123 143h-10l-123 -143h-287z" />
    <glyph glyph-name="Otilde" unicode="&#xd5;" horiz-adv-x="1515" 
d="M757.5 -20q-315.5 0 -506 192.5t-190.5 544.5t190.5 544.5t506 192.5t506 -192.5t190.5 -544.5t-190.5 -544.5t-506 -192.5zM757.5 348q147.5 0 217 99.5t69.5 269.5t-69.5 269t-217 99t-217 -99t-69.5 -269t69.5 -269.5t217 -99.5zM891 1577q-49 0 -124 36t-101 36
q-41 0 -41 -62h-226q0 276 226 277q49 0 123.5 -36t101.5 -36q41 0 41 61h225q0 -276 -225 -276z" />
    <glyph glyph-name="Odieresis" unicode="&#xd6;" horiz-adv-x="1515" 
d="M757.5 -20q-315.5 0 -506 192.5t-190.5 544.5t190.5 544.5t506 192.5t506 -192.5t190.5 -544.5t-190.5 -544.5t-506 -192.5zM757.5 348q147.5 0 217 99.5t69.5 269.5t-69.5 269t-217 99t-217 -99t-69.5 -269t69.5 -269.5t217 -99.5zM539 1556q-72 0 -121 47.5t-49 121
t50 121.5t119.5 48t119 -48t49.5 -121.5t-49 -121t-119 -47.5zM979 1556q-72 0 -121 47.5t-49 121t50 121.5t120 48t119 -48t49 -121.5t-49 -121t-119 -47.5z" />
    <glyph glyph-name="multiply" unicode="&#xd7;" horiz-adv-x="1191" 
d="M285 154l-203 202l311 312l-311 311l203 203l311 -312l311 312l203 -203l-311 -311l311 -312l-203 -202l-311 311z" />
    <glyph glyph-name="Oslash" unicode="&#xd8;" horiz-adv-x="1515" 
d="M477 539l314 544q-10 2 -33 2q-156 0 -231.5 -99t-75.5 -269q-1 -104 26 -178zM139 -51l123 213q-201 195 -201 555q0 352 190.5 544.5t506.5 192.5q119 0 227 -31l35 62h358l-123 -215q199 -199 199 -553q0 -352 -190.5 -544.5t-505.5 -192.5q-117 0 -226 28l-34 -59
h-359zM727 348h31q156 0 231.5 99.5t75.5 269.5q0 92 -27 176z" />
    <glyph glyph-name="Ugrave" unicode="&#xd9;" horiz-adv-x="1495" 
d="M747.5 -20q-292.5 0 -463.5 175t-171 480v799h409v-799q0 -141 60.5 -214t165 -73t165 73t60.5 214v799h409v-799q0 -305 -171 -480t-463.5 -175zM614 1567l-245 307h327l185 -307h-267z" />
    <glyph glyph-name="Uacute" unicode="&#xda;" horiz-adv-x="1495" 
d="M747.5 -20q-292.5 0 -463.5 175t-171 480v799h409v-799q0 -141 60.5 -214t165 -73t165 73t60.5 214v799h409v-799q0 -305 -171 -480t-463.5 -175zM614 1567l185 307h327l-245 -307h-267z" />
    <glyph glyph-name="Ucircumflex" unicode="&#xdb;" horiz-adv-x="1495" 
d="M747.5 -20q-292.5 0 -463.5 175t-171 480v799h409v-799q0 -141 60.5 -214t165 -73t165 73t60.5 214v799h409v-799q0 -305 -171 -480t-463.5 -175zM328 1567l286 317h256l287 -317h-287l-122 143h-11l-123 -143h-286z" />
    <glyph glyph-name="Udieresis" unicode="&#xdc;" horiz-adv-x="1495" 
d="M747.5 -20q-292.5 0 -463.5 175t-171 480v799h409v-799q0 -141 60.5 -214t165 -73t165 73t60.5 214v799h409v-799q0 -305 -171 -480t-463.5 -175zM528 1556q-72 0 -121 47.5t-49 121t50.5 121.5t120 48t118.5 -48t49 -121.5t-49 -121t-119 -47.5zM969 1556
q-72 0 -121 47.5t-49 121t50 121.5t119.5 48t119 -48t49.5 -121.5t-49 -121t-119 -47.5z" />
    <glyph glyph-name="Yacute" unicode="&#xdd;" horiz-adv-x="1320" 
d="M455 0v440l-496 994h440l260 -615l263 615h440l-498 -994v-440h-409zM532 1567l185 307h327l-245 -307h-267z" />
    <glyph glyph-name="Thorn" unicode="&#xde;" horiz-adv-x="1505" 
d="M123 0v1434h409v-236h379q266 0 404.5 -132t138.5 -349t-138 -349t-405 -132h-379v-236h-409zM532 594h338q174 0 174 123t-174 123h-338v-246z" />
    <glyph glyph-name="germandbls" unicode="&#xdf;" horiz-adv-x="1249" 
d="M102 0v1004q0 207 134.5 328.5t388.5 121.5q258 0 390 -122t132 -288q0 -217 -215 -296q117 -33 191.5 -125.5t74.5 -212.5q0 -410 -532 -410h-93v328h103q154 0 153 129q0 127 -153 127h-103v286h52q154 0 153 134q0 59 -41 90.5t-112 31.5q-70 0 -112 -37.5t-42 -105.5
v-983h-369z" />
    <glyph glyph-name="agrave" unicode="&#xe0;" horiz-adv-x="1187" 
d="M532 276q88 0 141.5 43t53.5 101v20h-205q-102 0 -102 -82q0 -35 27.5 -58.5t84.5 -23.5zM440.5 -20q-180.5 0 -285 98t-104.5 250q0 147 110.5 242.5t330.5 95.5h235v41q0 41 -39 71.5t-104 30.5q-92 0 -123 -61h-369q27 158 151 268t351 110q236 0 369 -111.5
t133 -328.5v-686h-328l-31 102h-10q-106 -122 -286.5 -122zM492 1260l-246 307h327l185 -307h-266z" />
    <glyph glyph-name="aacute" unicode="&#xe1;" horiz-adv-x="1187" 
d="M532 276q88 0 141.5 43t53.5 101v20h-205q-102 0 -102 -82q0 -35 27.5 -58.5t84.5 -23.5zM440.5 -20q-180.5 0 -285 98t-104.5 250q0 147 110.5 242.5t330.5 95.5h235v41q0 41 -39 71.5t-104 30.5q-92 0 -123 -61h-369q27 158 151 268t351 110q236 0 369 -111.5
t133 -328.5v-686h-328l-31 102h-10q-106 -122 -286.5 -122zM492 1260l184 307h328l-246 -307h-266z" />
    <glyph glyph-name="acircumflex" unicode="&#xe2;" horiz-adv-x="1187" 
d="M532 276q88 0 141.5 43t53.5 101v20h-205q-102 0 -102 -82q0 -35 27.5 -58.5t84.5 -23.5zM440.5 -20q-180.5 0 -285 98t-104.5 250q0 147 110.5 242.5t330.5 95.5h235v41q0 41 -39 71.5t-104 30.5q-92 0 -123 -61h-369q27 158 151 268t351 110q236 0 369 -111.5
t133 -328.5v-686h-328l-31 102h-10q-106 -122 -286.5 -122zM195 1260l286 317h256l287 -317h-287l-123 143h-10l-123 -143h-286z" />
    <glyph glyph-name="atilde" unicode="&#xe3;" horiz-adv-x="1187" 
d="M532 276q88 0 141.5 43t53.5 101v20h-205q-102 0 -102 -82q0 -35 27.5 -58.5t84.5 -23.5zM440.5 -20q-180.5 0 -285 98t-104.5 250q0 147 110.5 242.5t330.5 95.5h235v41q0 41 -39 71.5t-104 30.5q-92 0 -123 -61h-369q27 158 151 268t351 110q236 0 369 -111.5
t133 -328.5v-686h-328l-31 102h-10q-106 -122 -286.5 -122zM748 1270q-49 0 -124 35.5t-102 35.5q-41 0 -41 -61h-225q0 276 225 276q49 0 124 -35.5t102 -35.5q41 0 41 61h225q0 -276 -225 -276z" />
    <glyph glyph-name="adieresis" unicode="&#xe4;" horiz-adv-x="1187" 
d="M532 276q88 0 141.5 43t53.5 101v20h-205q-102 0 -102 -82q0 -35 27.5 -58.5t84.5 -23.5zM440.5 -20q-180.5 0 -285 98t-104.5 250q0 147 110.5 242.5t330.5 95.5h235v41q0 41 -39 71.5t-104 30.5q-92 0 -123 -61h-369q27 158 151 268t351 110q236 0 369 -111.5
t133 -328.5v-686h-328l-31 102h-10q-106 -122 -286.5 -122zM395 1249q-72 0 -121 47t-49 121t50.5 122t120 48t118.5 -48t49 -122t-49 -121t-119 -47zM836 1249q-72 0 -121 47t-49 121t50 122t119.5 48t119 -48t49.5 -122t-49 -121t-119 -47z" />
    <glyph glyph-name="aring" unicode="&#xe5;" horiz-adv-x="1187" 
d="M532 276q88 0 141.5 43t53.5 101v20h-205q-102 0 -102 -82q0 -35 27.5 -58.5t84.5 -23.5zM440.5 -20q-180.5 0 -285 98t-104.5 250q0 147 110.5 242.5t330.5 95.5h235v41q0 41 -39 71.5t-104 30.5q-92 0 -123 -61h-369q27 158 151 268t351 110q236 0 369 -111.5
t133 -328.5v-686h-328l-31 102h-10q-106 -122 -286.5 -122zM614.5 1229q-104.5 0 -175 69.5t-70.5 176t70.5 176t175 69.5t175 -69.5t70.5 -176t-70.5 -176t-175 -69.5zM614.5 1393q36.5 0 59 22.5t22.5 59t-22.5 59t-59 22.5t-59.5 -22.5t-23 -59t23 -59t59.5 -22.5z" />
    <glyph glyph-name="ae" unicode="&#xe6;" horiz-adv-x="1904" 
d="M532 276q88 0 141.5 43t53.5 101v20h-205q-102 0 -102 -82q0 -35 27.5 -58.5t84.5 -23.5zM451 -20q-195 0 -297.5 102t-102.5 246q0 147 110.5 242.5t330.5 95.5h235v41q0 45 -42 73.5t-99 28.5q-94 0 -125 -61h-369q25 160 153 269t339 109q100 0 176 -25.5t109.5 -54
t72.5 -73.5q131 154 379 153q250 0 386 -163.5t136 -409.5l-10 -113h-737q33 -164 184 -164q57 0 96 16.5t50.5 29t27.5 36.5h369q-14 -59 -44 -116.5t-86.5 -121t-152.5 -102t-219 -38.5q-256 0 -420 163q-61 -55 -107 -84.5t-134 -54t-209 -24.5zM1096 666h389
q-8 68 -58.5 115.5t-136.5 47.5t-136 -47.5t-58 -115.5z" />
    <glyph glyph-name="ccedilla" unicode="&#xe7;" horiz-adv-x="1218" 
d="M471 -512v205h123q51 0 51 41t-51 41h-92v143l33 66q-227 25 -350.5 171t-123.5 398q0 276 146.5 424.5t417.5 148.5q131 0 234.5 -42t164.5 -112.5t96 -146t47 -159.5h-368q-49 133 -185 133q-80 0 -132 -63.5t-52 -182.5t52.5 -182.5t131.5 -63.5q135 0 185 133h368
q-12 -76 -41.5 -145.5t-81 -136t-135.5 -112.5t-190 -60l-23 -47q72 -8 133.5 -65.5t61.5 -149.5q0 -100 -63.5 -168t-192.5 -68h-164z" />
    <glyph glyph-name="egrave" unicode="&#xe8;" horiz-adv-x="1249" 
d="M635 -20q-276 0 -425 148t-149 425q0 274 152 423.5t422 149.5q264 0 408.5 -163.5t144.5 -409.5l-10 -113h-758q12 -61 59 -112.5t135 -51.5q129 0 185 82h368q-14 -57 -45.5 -116.5t-91 -122t-163 -101t-232.5 -38.5zM420 676h409q-39 154 -204.5 154t-204.5 -154z
M502 1260l-246 307h328l184 -307h-266z" />
    <glyph glyph-name="eacute" unicode="&#xe9;" horiz-adv-x="1249" 
d="M635 -20q-276 0 -425 148t-149 425q0 274 152 423.5t422 149.5q264 0 408.5 -163.5t144.5 -409.5l-10 -113h-758q12 -61 59 -112.5t135 -51.5q129 0 185 82h368q-14 -57 -45.5 -116.5t-91 -122t-163 -101t-232.5 -38.5zM420 676h409q-39 154 -204.5 154t-204.5 -154z
M502 1260l184 307h328l-246 -307h-266z" />
    <glyph glyph-name="ecircumflex" unicode="&#xea;" horiz-adv-x="1249" 
d="M635 -20q-276 0 -425 148t-149 425q0 274 152 423.5t422 149.5q264 0 408.5 -163.5t144.5 -409.5l-10 -113h-758q12 -61 59 -112.5t135 -51.5q129 0 185 82h368q-14 -57 -45.5 -116.5t-91 -122t-163 -101t-232.5 -38.5zM420 676h409q-39 154 -204.5 154t-204.5 -154z
M215 1260l287 317h256l286 -317h-286l-123 143h-10l-123 -143h-287z" />
    <glyph glyph-name="edieresis" unicode="&#xeb;" horiz-adv-x="1249" 
d="M635 -20q-276 0 -425 148t-149 425q0 274 152 423.5t422 149.5q264 0 408.5 -163.5t144.5 -409.5l-10 -113h-758q12 -61 59 -112.5t135 -51.5q129 0 185 82h368q-14 -57 -45.5 -116.5t-91 -122t-163 -101t-232.5 -38.5zM420 676h409q-39 154 -204.5 154t-204.5 -154z
M406 1249q-72 0 -121 47t-49 121t50 122t119.5 48t118.5 -48t49 -122t-48.5 -121t-118.5 -47zM846 1249q-72 0 -121 47t-49 121t50 122t119.5 48t119 -48t49.5 -122t-49 -121t-119 -47z" />
    <glyph glyph-name="igrave" unicode="&#xec;" horiz-adv-x="573" 
d="M102 0v1106h369v-1106h-369zM154 1260l-246 307h328l184 -307h-266z" />
    <glyph glyph-name="iacute" unicode="&#xed;" horiz-adv-x="573" 
d="M102 0v1106h369v-1106h-369zM154 1260l184 307h328l-246 -307h-266z" />
    <glyph glyph-name="icircumflex" unicode="&#xee;" horiz-adv-x="573" 
d="M102 0v1106h369v-1106h-369zM-133 1260l287 317h256l286 -317h-286l-123 143h-11l-122 -143h-287z" />
    <glyph glyph-name="idieresis" unicode="&#xef;" horiz-adv-x="573" 
d="M102 0v1106h369v-1106h-369zM68 1249q-72 0 -121 47t-49 121t50 122t119.5 48t119 -48t49.5 -122t-49 -121t-119 -47zM508 1249q-72 0 -121 47t-49 121t50 122t120 48t119 -48t49 -122t-49 -121t-119 -47z" />
    <glyph glyph-name="eth" unicode="&#xf0;" horiz-adv-x="1239" 
d="M614.5 307q79.5 0 132 52.5t52.5 142.5t-52.5 142t-132 52t-132 -52t-52.5 -142t52.5 -142.5t132 -52.5zM614 -20q-244 0 -398.5 152.5t-154.5 389.5q0 223 132.5 362.5t338.5 139.5q137 0 220 -61h10q-57 104 -135 190l-258 -109l-93 185l189 80q-131 109 -279 186h389
q76 -39 140 -82l196 82l93 -184l-117 -49q291 -309 291 -699q0 -158 -48.5 -275.5t-131.5 -182t-178 -95t-206 -30.5z" />
    <glyph glyph-name="ntilde" unicode="&#xf1;" horiz-adv-x="1249" 
d="M102 0v1106h328l31 -102h10q117 123 297 122q70 0 135.5 -23.5t123.5 -72.5t94 -138t36 -206v-686h-369v614q0 84 -43 129t-116.5 45t-115.5 -45t-42 -129v-614h-369zM758 1270q-49 0 -124 35.5t-102 35.5q-41 0 -40 -61h-226q0 276 226 276q49 0 123.5 -35.5
t101.5 -35.5q41 0 41 61h225q0 -276 -225 -276z" />
    <glyph glyph-name="ograve" unicode="&#xf2;" horiz-adv-x="1249" 
d="M624.5 -20q-270.5 0 -417 148t-146.5 424.5t146.5 425t417 148.5t417 -148.5t146.5 -425t-146.5 -424.5t-417 -148zM625 307q88 0 141 63.5t53 182.5t-53 182.5t-141 63.5t-141.5 -63.5t-53.5 -182.5t53.5 -182.5t141.5 -63.5zM492 1260l-246 307h327l185 -307h-266z" />
    <glyph glyph-name="oacute" unicode="&#xf3;" horiz-adv-x="1249" 
d="M624.5 -20q-270.5 0 -417 148t-146.5 424.5t146.5 425t417 148.5t417 -148.5t146.5 -425t-146.5 -424.5t-417 -148zM625 307q88 0 141 63.5t53 182.5t-53 182.5t-141 63.5t-141.5 -63.5t-53.5 -182.5t53.5 -182.5t141.5 -63.5zM492 1260l184 307h328l-246 -307h-266z" />
    <glyph glyph-name="ocircumflex" unicode="&#xf4;" horiz-adv-x="1249" 
d="M624.5 -20q-270.5 0 -417 148t-146.5 424.5t146.5 425t417 148.5t417 -148.5t146.5 -425t-146.5 -424.5t-417 -148zM625 307q88 0 141 63.5t53 182.5t-53 182.5t-141 63.5t-141.5 -63.5t-53.5 -182.5t53.5 -182.5t141.5 -63.5zM215 1260l287 317h256l286 -317h-286
l-123 143h-10l-123 -143h-287z" />
    <glyph glyph-name="otilde" unicode="&#xf5;" horiz-adv-x="1249" 
d="M624.5 -20q-270.5 0 -417 148t-146.5 424.5t146.5 425t417 148.5t417 -148.5t146.5 -425t-146.5 -424.5t-417 -148zM625 307q88 0 141 63.5t53 182.5t-53 182.5t-141 63.5t-141.5 -63.5t-53.5 -182.5t53.5 -182.5t141.5 -63.5zM758 1270q-49 0 -124 35.5t-102 35.5
q-41 0 -40 -61h-226q0 276 226 276q49 0 123.5 -35.5t101.5 -35.5q41 0 41 61h225q0 -276 -225 -276z" />
    <glyph glyph-name="odieresis" unicode="&#xf6;" horiz-adv-x="1249" 
d="M624.5 -20q-270.5 0 -417 148t-146.5 424.5t146.5 425t417 148.5t417 -148.5t146.5 -425t-146.5 -424.5t-417 -148zM625 307q88 0 141 63.5t53 182.5t-53 182.5t-141 63.5t-141.5 -63.5t-53.5 -182.5t53.5 -182.5t141.5 -63.5zM406 1249q-72 0 -121 47t-49 121t50 122
t119.5 48t118.5 -48t49 -122t-48.5 -121t-118.5 -47zM846 1249q-72 0 -121 47t-49 121t50 122t119.5 48t119 -48t49.5 -122t-49 -121t-119 -47z" />
    <glyph glyph-name="divide" unicode="&#xf7;" horiz-adv-x="1095" 
d="M547 51q-76 0 -130.5 55.5t-54.5 129t54.5 129t130.5 55.5t130 -55.5t54 -129t-54 -129t-130 -55.5zM61 502v286h973v-286h-973zM547 860q-76 0 -130.5 55.5t-54.5 129t54.5 129t130.5 55.5t130 -55.5t54 -129t-54 -129t-130 -55.5z" />
    <glyph glyph-name="oslash" unicode="&#xf8;" horiz-adv-x="1249" 
d="M399 422l269 424q-29 4 -43 4q-109 0 -177.5 -80t-68.5 -217q0 -76 20 -131zM102 -41l107 168q-147 147 -148 426q0 276 146.5 424.5t417.5 148.5q104 0 204 -26l31 47h307l-116 -182q137 -147 137 -412q0 -276 -146.5 -424.5t-416.5 -148.5q-98 0 -189 22l-26 -43h-308z
M600 256h25q109 0 177 80t68 217q0 49 -14 106z" />
    <glyph glyph-name="ugrave" unicode="&#xf9;" horiz-adv-x="1259" 
d="M492 -20q-70 0 -135.5 23.5t-124 72.5t-94.5 138t-36 206v686h369v-614q0 -84 43 -129.5t117 -45.5t115.5 45.5t41.5 129.5v614h369v-1106h-328l-30 102h-11q-116 -122 -296 -122zM502 1260l-246 307h328l184 -307h-266z" />
    <glyph glyph-name="uacute" unicode="&#xfa;" horiz-adv-x="1259" 
d="M492 -20q-70 0 -135.5 23.5t-124 72.5t-94.5 138t-36 206v686h369v-614q0 -84 43 -129.5t117 -45.5t115.5 45.5t41.5 129.5v614h369v-1106h-328l-30 102h-11q-116 -122 -296 -122zM502 1260l184 307h328l-246 -307h-266z" />
    <glyph glyph-name="ucircumflex" unicode="&#xfb;" horiz-adv-x="1259" 
d="M492 -20q-70 0 -135.5 23.5t-124 72.5t-94.5 138t-36 206v686h369v-614q0 -84 43 -129.5t117 -45.5t115.5 45.5t41.5 129.5v614h369v-1106h-328l-30 102h-11q-116 -122 -296 -122zM215 1260l287 317h256l286 -317h-286l-123 143h-10l-123 -143h-287z" />
    <glyph glyph-name="udieresis" unicode="&#xfc;" horiz-adv-x="1259" 
d="M492 -20q-70 0 -135.5 23.5t-124 72.5t-94.5 138t-36 206v686h369v-614q0 -84 43 -129.5t117 -45.5t115.5 45.5t41.5 129.5v614h369v-1106h-328l-30 102h-11q-116 -122 -296 -122zM416 1249q-72 0 -121 47t-49 121t50 122t119.5 48t119 -48t49.5 -122t-49 -121t-119 -47z
M856 1249q-72 0 -121 47t-49 121t50 122t120 48t119 -48t49 -122t-49 -121t-119 -47z" />
    <glyph glyph-name="yacute" unicode="&#xfd;" horiz-adv-x="1218" 
d="M246 -410l164 410l-430 1106h409l225 -676l215 676h410l-594 -1516h-399zM471 1260l184 307h328l-246 -307h-266z" />
    <glyph glyph-name="thorn" unicode="&#xfe;" horiz-adv-x="1300" 
d="M113 -410v1844h368v-420h11q90 113 266 112q221 0 351 -147.5t130 -426t-130 -425.5t-351 -147q-154 0 -266 112h-11v-502h-368zM676 307q88 0 141 63.5t53 182.5t-53 182.5t-141 63.5t-141.5 -63.5t-53.5 -182.5t53.5 -182.5t141.5 -63.5z" />
    <glyph glyph-name="ydieresis" unicode="&#xff;" horiz-adv-x="1218" 
d="M246 -410l164 410l-430 1106h409l225 -676l215 676h410l-594 -1516h-399zM385 1249q-72 0 -121 47t-49 121t50 122t120 48t119 -48t49 -122t-49 -121t-119 -47zM825 1249q-72 0 -121 47t-49 121t50.5 122t120 48t118.5 -48t49 -122t-49 -121t-119 -47z" />
    <glyph glyph-name="Amacron" unicode="&#x100;" horiz-adv-x="1443" 
d="M-20 0l501 1434h482l501 -1434h-430l-63 205h-500l-61 -205h-430zM602 573h240l-121 431zM399 1597v236h635v-236h-635z" />
    <glyph glyph-name="amacron" unicode="&#x101;" horiz-adv-x="1187" 
d="M532 276q88 0 141.5 43t53.5 101v20h-205q-102 0 -102 -82q0 -35 27.5 -58.5t84.5 -23.5zM440.5 -20q-180.5 0 -285 98t-104.5 250q0 147 110.5 242.5t330.5 95.5h235v41q0 41 -39 71.5t-104 30.5q-92 0 -123 -61h-369q27 158 151 268t351 110q236 0 369 -111.5
t133 -328.5v-686h-328l-31 102h-10q-106 -122 -286.5 -122zM297 1290v236h635v-236h-635z" />
    <glyph glyph-name="Abreve" unicode="&#x102;" horiz-adv-x="1443" 
d="M-20 0l501 1434h482l501 -1434h-430l-63 205h-500l-61 -205h-430zM602 573h240l-121 431zM716.5 1556q-149.5 0 -252 81t-116.5 247h246q14 -102 122.5 -102t123.5 102h245q-14 -166 -116.5 -247t-252 -81z" />
    <glyph glyph-name="abreve" unicode="&#x103;" horiz-adv-x="1187" 
d="M532 276q88 0 141.5 43t53.5 101v20h-205q-102 0 -102 -82q0 -35 27.5 -58.5t84.5 -23.5zM440.5 -20q-180.5 0 -285 98t-104.5 250q0 147 110.5 242.5t330.5 95.5h235v41q0 41 -39 71.5t-104 30.5q-92 0 -123 -61h-369q27 158 151 268t351 110q236 0 369 -111.5
t133 -328.5v-686h-328l-31 102h-10q-106 -122 -286.5 -122zM614.5 1249q-149.5 0 -252 81t-116.5 247h246q14 -102 122.5 -102t122.5 102h246q-14 -166 -116.5 -247t-252 -81z" />
    <glyph glyph-name="Aogonek" unicode="&#x104;" horiz-adv-x="1443" 
d="M1208 -471q-172 0 -249.5 67.5t-77.5 178.5q0 84 45 142t108 83l-63 205h-500l-61 -205h-430l501 1434h482l501 -1434h-215q-53 -31 -82.5 -73t-29.5 -81q0 -43 25.5 -67.5t97.5 -24.5h40v-225h-92zM602 573h240l-121 431z" />
    <glyph glyph-name="aogonek" unicode="&#x105;" horiz-adv-x="1187" 
d="M532 276q88 0 141.5 43t53.5 101v20h-205q-102 0 -102 -82q0 -35 27.5 -58.5t84.5 -23.5zM1055 -471q-172 0 -250 67.5t-78 178.5q0 84 45 142t109 83h-113l-31 102h-10q-106 -123 -286.5 -122.5t-285 98.5t-104.5 250q0 147 110.5 242.5t330.5 95.5h235v41
q0 41 -39 71.5t-104 30.5q-92 0 -123 -61h-369q27 158 151 268t351 110q236 0 369 -111.5t133 -328.5v-686q-53 -31 -83 -73t-30 -81q0 -43 25.5 -67.5t97.5 -24.5h41v-225h-92z" />
    <glyph glyph-name="Cacute" unicode="&#x106;" horiz-adv-x="1464" 
d="M758 -20q-315 0 -506 192.5t-191 544.5t190.5 544.5t506.5 192.5q291 0 452.5 -146.5t202.5 -385.5h-420q-6 16 -16 33.5t-21.5 36t-30 35.5t-41 29.5t-55 20.5t-71.5 8q-147 0 -217 -99t-70 -269t69.5 -269.5t217.5 -99.5q47 0 85 13.5t58.5 24.5t44 44t26.5 40t21 42
h420q-41 -240 -202.5 -386t-452.5 -146zM625 1567l184 307h328l-246 -307h-266z" />
    <glyph glyph-name="cacute" unicode="&#x107;" horiz-adv-x="1218" 
d="M625 -20q-270 0 -417 148t-147 424.5t146.5 425t417.5 148.5q131 0 234.5 -42t164.5 -112.5t96 -146t47 -159.5h-368q-49 133 -185 133q-80 0 -132 -63.5t-52 -182.5t52.5 -182.5t131.5 -63.5q135 0 185 133h368q-12 -84 -47 -159.5t-96 -146.5t-164.5 -112.5
t-234.5 -41.5zM492 1260l184 307h328l-246 -307h-266z" />
    <glyph glyph-name="Ccircumflex" unicode="&#x108;" horiz-adv-x="1464" 
d="M758 -20q-315 0 -506 192.5t-191 544.5t190.5 544.5t506.5 192.5q291 0 452.5 -146.5t202.5 -385.5h-420q-6 16 -16 33.5t-21.5 36t-30 35.5t-41 29.5t-55 20.5t-71.5 8q-147 0 -217 -99t-70 -269t69.5 -269.5t217.5 -99.5q47 0 85 13.5t58.5 24.5t44 44t26.5 40t21 42
h420q-41 -240 -202.5 -386t-452.5 -146zM358 1567l287 317h256l287 -317h-287l-123 143h-10l-123 -143h-287z" />
    <glyph glyph-name="ccircumflex" unicode="&#x109;" horiz-adv-x="1218" 
d="M625 -20q-270 0 -417 148t-147 424.5t146.5 425t417.5 148.5q131 0 234.5 -42t164.5 -112.5t96 -146t47 -159.5h-368q-49 133 -185 133q-80 0 -132 -63.5t-52 -182.5t52.5 -182.5t131.5 -63.5q135 0 185 133h368q-12 -84 -47 -159.5t-96 -146.5t-164.5 -112.5
t-234.5 -41.5zM215 1260l287 317h256l286 -317h-286l-123 143h-10l-123 -143h-287z" />
    <glyph glyph-name="Cdotaccent" unicode="&#x10a;" horiz-adv-x="1464" 
d="M758 -20q-315 0 -506 192.5t-191 544.5t190.5 544.5t506.5 192.5q291 0 452.5 -146.5t202.5 -385.5h-420q-6 16 -16 33.5t-21.5 36t-30 35.5t-41 29.5t-55 20.5t-71.5 8q-147 0 -217 -99t-70 -269t69.5 -269.5t217.5 -99.5q47 0 85 13.5t58.5 24.5t44 44t26.5 40t21 42
h420q-41 -240 -202.5 -386t-452.5 -146zM774 1556q-72 0 -121 47.5t-49 121t50.5 121.5t120 48t118.5 -48t49 -121.5t-49 -121t-119 -47.5z" />
    <glyph glyph-name="cdotaccent" unicode="&#x10b;" horiz-adv-x="1218" 
d="M625 -20q-270 0 -417 148t-147 424.5t146.5 425t417.5 148.5q131 0 234.5 -42t164.5 -112.5t96 -146t47 -159.5h-368q-49 133 -185 133q-80 0 -132 -63.5t-52 -182.5t52.5 -182.5t131.5 -63.5q135 0 185 133h368q-12 -84 -47 -159.5t-96 -146.5t-164.5 -112.5
t-234.5 -41.5zM631 1249q-72 0 -121 47t-49 121t50 122t119.5 48t119 -48t49.5 -122t-49 -121t-119 -47z" />
    <glyph glyph-name="Ccaron" unicode="&#x10c;" horiz-adv-x="1464" 
d="M758 -20q-315 0 -506 192.5t-191 544.5t190.5 544.5t506.5 192.5q291 0 452.5 -146.5t202.5 -385.5h-420q-6 16 -16 33.5t-21.5 36t-30 35.5t-41 29.5t-55 20.5t-71.5 8q-147 0 -217 -99t-70 -269t69.5 -269.5t217.5 -99.5q47 0 85 13.5t58.5 24.5t44 44t26.5 40t21 42
h420q-41 -240 -202.5 -386t-452.5 -146zM645 1567l-287 317h287l123 -143h10l123 143h287l-287 -317h-256z" />
    <glyph glyph-name="ccaron" unicode="&#x10d;" horiz-adv-x="1218" 
d="M625 -20q-270 0 -417 148t-147 424.5t146.5 425t417.5 148.5q131 0 234.5 -42t164.5 -112.5t96 -146t47 -159.5h-368q-49 133 -185 133q-80 0 -132 -63.5t-52 -182.5t52.5 -182.5t131.5 -63.5q135 0 185 133h368q-12 -84 -47 -159.5t-96 -146.5t-164.5 -112.5
t-234.5 -41.5zM502 1249l-287 318h287l123 -144h10l123 144h286l-286 -318h-256z" />
    <glyph glyph-name="Dcaron" unicode="&#x10e;" horiz-adv-x="1454" 
d="M123 0v1434h604q311 0 488.5 -196t177.5 -521.5t-177.5 -521t-488.5 -195.5h-604zM532 369h175q113 0 194.5 96t81.5 251.5t-82 252t-194 96.5h-175v-696zM594 1567l-287 317h287l123 -143h10l123 143h287l-287 -317h-256z" />
    <glyph glyph-name="dcaron" unicode="&#x10f;" horiz-adv-x="1536" 
d="M625 307q88 0 141 63.5t53 182.5t-53 182.5t-141 63.5t-141.5 -63.5t-53.5 -182.5t53.5 -182.5t141.5 -63.5zM543 -20q-221 0 -351.5 147t-130.5 425.5t130.5 426t351.5 147.5q154 0 266 -112h10v420h369v-1434h-328l-31 102h-10q-98 -122 -276 -122zM1260 1085l92 349
h286l-153 -349h-225z" />
    <glyph glyph-name="Dcroat" unicode="&#x110;" horiz-adv-x="1495" 
d="M164 0v553h-164v338h164v543h604q311 0 488.5 -196t177.5 -521.5t-177.5 -521t-488.5 -195.5h-604zM573 369h175q113 0 194.5 96t81.5 251.5t-82 252t-194 96.5h-175v-174h267v-338h-267v-184z" />
    <glyph glyph-name="dcroat" unicode="&#x111;" horiz-adv-x="1280" 
d="M614.5 307q79.5 0 132 52.5t52.5 142.5t-52.5 142t-132 52t-132 -52t-52.5 -142t52.5 -142.5t132 -52.5zM522 -20q-217 0 -339 135t-122 387t122 387t339 135q154 0 266 -113h11v154h-236v235h236v134h368v-134h144v-235h-144v-1065h-327l-31 102h-10q-99 -122 -277 -122
z" />
    <glyph glyph-name="Emacron" unicode="&#x112;" horiz-adv-x="1239" 
d="M123 0v1434h1024v-369h-615v-174h574v-338h-574v-184h635v-369h-1044zM328 1597v236h635v-236h-635z" />
    <glyph glyph-name="emacron" unicode="&#x113;" horiz-adv-x="1249" 
d="M635 -20q-276 0 -425 148t-149 425q0 274 152 423.5t422 149.5q264 0 408.5 -163.5t144.5 -409.5l-10 -113h-758q12 -61 59 -112.5t135 -51.5q129 0 185 82h368q-14 -57 -45.5 -116.5t-91 -122t-163 -101t-232.5 -38.5zM420 676h409q-39 154 -204.5 154t-204.5 -154z
M307 1290v236h635v-236h-635z" />
    <glyph glyph-name="Ebreve" unicode="&#x114;" horiz-adv-x="1239" 
d="M123 0v1434h1024v-369h-615v-174h574v-338h-574v-184h635v-369h-1044zM645.5 1556q-149.5 0 -252 81t-117.5 247h246q14 -102 123 -102t123 102h246q-14 -166 -116.5 -247t-252 -81z" />
    <glyph glyph-name="ebreve" unicode="&#x115;" horiz-adv-x="1249" 
d="M635 -20q-276 0 -425 148t-149 425q0 274 152 423.5t422 149.5q264 0 408.5 -163.5t144.5 -409.5l-10 -113h-758q12 -61 59 -112.5t135 -51.5q129 0 185 82h368q-14 -57 -45.5 -116.5t-91 -122t-163 -101t-232.5 -38.5zM420 676h409q-39 154 -204.5 154t-204.5 -154z
M624.5 1249q-149.5 0 -252 81t-116.5 247h246q14 -102 122.5 -102t123.5 102h245q-14 -166 -116.5 -247t-252 -81z" />
    <glyph glyph-name="Edotaccent" unicode="&#x116;" horiz-adv-x="1239" 
d="M123 0v1434h1024v-369h-615v-174h574v-338h-574v-184h635v-369h-1044zM651 1556q-72 0 -121 47.5t-49 121t50.5 121.5t120 48t118.5 -48t49 -121.5t-49 -121t-119 -47.5z" />
    <glyph glyph-name="edotaccent" unicode="&#x117;" horiz-adv-x="1249" 
d="M635 -20q-276 0 -425 148t-149 425q0 274 152 423.5t422 149.5q264 0 408.5 -163.5t144.5 -409.5l-10 -113h-758q12 -61 59 -112.5t135 -51.5q129 0 185 82h368q-14 -57 -45.5 -116.5t-91 -122t-163 -101t-232.5 -38.5zM420 676h409q-39 154 -204.5 154t-204.5 -154z
M631 1249q-72 0 -121 47t-49 121t50 122t119.5 48t119 -48t49.5 -122t-49 -121t-119 -47z" />
    <glyph glyph-name="Eogonek" unicode="&#x118;" horiz-adv-x="1239" 
d="M1126 -471q-172 0 -249.5 67.5t-77.5 178.5q0 84 45 142t108 83h-829v1434h1024v-369h-615v-174h574v-338h-574v-184h635v-369q-53 -31 -82.5 -73t-29.5 -81q0 -43 25.5 -67.5t97.5 -24.5h41v-225h-93z" />
    <glyph glyph-name="eogonek" unicode="&#x119;" horiz-adv-x="1249" 
d="M725 -471q-172 0 -250 67.5t-78 178.5q0 145 125 213q-223 29 -342 173t-119 392q0 274 152 423.5t422 149.5q264 0 408.5 -163.5t144.5 -409.5l-10 -113h-758q12 -61 59 -112.5t135 -51.5q129 0 185 82h368q-12 -51 -38.5 -103t-74.5 -109.5t-128 -100.5t-181 -57
q-92 -59 -92 -142q0 -43 26 -67.5t97 -24.5h41v-225h-92zM420 676h409q-39 154 -204.5 154t-204.5 -154z" />
    <glyph glyph-name="Ecaron" unicode="&#x11a;" horiz-adv-x="1239" 
d="M123 0v1434h1024v-369h-615v-174h574v-338h-574v-184h635v-369h-1044zM522 1567l-286 317h286l123 -143h10l123 143h287l-287 -317h-256z" />
    <glyph glyph-name="ecaron" unicode="&#x11b;" horiz-adv-x="1249" 
d="M635 -20q-276 0 -425 148t-149 425q0 274 152 423.5t422 149.5q264 0 408.5 -163.5t144.5 -409.5l-10 -113h-758q12 -61 59 -112.5t135 -51.5q129 0 185 82h368q-14 -57 -45.5 -116.5t-91 -122t-163 -101t-232.5 -38.5zM420 676h409q-39 154 -204.5 154t-204.5 -154z
M502 1249l-287 318h287l123 -144h10l123 144h286l-286 -318h-256z" />
    <glyph glyph-name="Gcircumflex" unicode="&#x11c;" horiz-adv-x="1495" 
d="M758 -20q-315 0 -506 192.5t-191 544.5t190.5 544.5t506.5 192.5q291 0 453.5 -146.5t201.5 -385.5h-420q-59 164 -235 163q-147 0 -217 -99t-70 -269q0 -369 297 -369q178 0 238 144h-289v307h717v-133q0 -309 -185.5 -497.5t-490.5 -188.5zM358 1567l287 317h256
l287 -317h-287l-123 143h-10l-123 -143h-287z" />
    <glyph glyph-name="gcircumflex" unicode="&#x11d;" horiz-adv-x="1290" 
d="M645 -410q-152 0 -262.5 39t-168.5 104.5t-87 128t-35 128.5h369q27 -92 174 -92q98 0 141 38.5t43 124.5v113h-10q-25 -37 -93.5 -75t-172.5 -38q-207 0 -344.5 141.5t-137.5 381.5q0 244 142.5 393t359.5 149q170 0 277 -112h10l31 92h307v-1045q0 -236 -132 -353.5
t-411 -117.5zM625 369q86 0 140 60t54 164.5t-54 165t-140 60.5t-140.5 -60.5t-54.5 -165t54.5 -164.5t140.5 -60zM236 1260l286 317h256l287 -317h-287l-123 143h-10l-123 -143h-286z" />
    <glyph glyph-name="Gbreve" unicode="&#x11e;" horiz-adv-x="1495" 
d="M758 -20q-315 0 -506 192.5t-191 544.5t190.5 544.5t506.5 192.5q291 0 453.5 -146.5t201.5 -385.5h-420q-59 164 -235 163q-147 0 -217 -99t-70 -269q0 -369 297 -369q178 0 238 144h-289v307h717v-133q0 -309 -185.5 -497.5t-490.5 -188.5zM768 1556q-150 0 -252 81
t-117 247h246q14 -102 123 -102t123 102h246q-14 -166 -116.5 -247t-252.5 -81z" />
    <glyph glyph-name="gbreve" unicode="&#x11f;" horiz-adv-x="1290" 
d="M645 -410q-152 0 -262.5 39t-168.5 104.5t-87 128t-35 128.5h369q27 -92 174 -92q98 0 141 38.5t43 124.5v113h-10q-25 -37 -93.5 -75t-172.5 -38q-207 0 -344.5 141.5t-137.5 381.5q0 244 142.5 393t359.5 149q170 0 277 -112h10l31 92h307v-1045q0 -236 -132 -353.5
t-411 -117.5zM625 369q86 0 140 60t54 164.5t-54 165t-140 60.5t-140.5 -60.5t-54.5 -165t54.5 -164.5t140.5 -60zM645.5 1249q-149.5 0 -252 81t-117.5 247h246q14 -102 123 -102t123 102h246q-14 -166 -116.5 -247t-252 -81z" />
    <glyph glyph-name="Gdotaccent" unicode="&#x120;" horiz-adv-x="1495" 
d="M758 -20q-315 0 -506 192.5t-191 544.5t190.5 544.5t506.5 192.5q291 0 453.5 -146.5t201.5 -385.5h-420q-59 164 -235 163q-147 0 -217 -99t-70 -269q0 -369 297 -369q178 0 238 144h-289v307h717v-133q0 -309 -185.5 -497.5t-490.5 -188.5zM774 1556q-72 0 -121 47.5
t-49 121t50.5 121.5t120 48t118.5 -48t49 -121.5t-49 -121t-119 -47.5z" />
    <glyph glyph-name="gdotaccent" unicode="&#x121;" horiz-adv-x="1290" 
d="M645 -410q-152 0 -262.5 39t-168.5 104.5t-87 128t-35 128.5h369q27 -92 174 -92q98 0 141 38.5t43 124.5v113h-10q-25 -37 -93.5 -75t-172.5 -38q-207 0 -344.5 141.5t-137.5 381.5q0 244 142.5 393t359.5 149q170 0 277 -112h10l31 92h307v-1045q0 -236 -132 -353.5
t-411 -117.5zM625 369q86 0 140 60t54 164.5t-54 165t-140 60.5t-140.5 -60.5t-54.5 -165t54.5 -164.5t140.5 -60zM651 1249q-72 0 -121 47t-49 121t50.5 122t120 48t118.5 -48t49 -122t-49 -121t-119 -47z" />
    <glyph glyph-name="uni0122" unicode="&#x122;" horiz-adv-x="1495" 
d="M758 -20q-315 0 -506 192.5t-191 544.5t190.5 544.5t506.5 192.5q291 0 453.5 -146.5t201.5 -385.5h-420q-59 164 -235 163q-147 0 -217 -99t-70 -269q0 -369 297 -369q178 0 238 144h-289v307h717v-133q0 -309 -185.5 -497.5t-490.5 -188.5zM522 -522l92 348h308
l-154 -348h-246z" />
    <glyph glyph-name="uni0123" unicode="&#x123;" horiz-adv-x="1290" 
d="M481 1260l127 430h283l-82 -430h-328zM645 -410q-152 0 -262.5 39t-168.5 104.5t-87 128t-35 128.5h369q27 -92 174 -92q98 0 141 38.5t43 124.5v113h-10q-25 -37 -93.5 -75t-172.5 -38q-207 0 -344.5 141.5t-137.5 381.5q0 244 142.5 393t359.5 149q170 0 277 -112h10
l31 92h307v-1045q0 -236 -132 -353.5t-411 -117.5zM625 369q86 0 140 60t54 164.5t-54 165t-140 60.5t-140.5 -60.5t-54.5 -165t54.5 -164.5t140.5 -60z" />
    <glyph glyph-name="Hcircumflex" unicode="&#x124;" horiz-adv-x="1495" 
d="M123 0v1434h409v-523h431v523h409v-1434h-409v543h-431v-543h-409zM338 1567l287 317h256l286 -317h-286l-123 143h-10l-123 -143h-287z" />
    <glyph glyph-name="hcircumflex" unicode="&#x125;" horiz-adv-x="1259" 
d="M113 0v1434h368v-410h11q115 102 286 102q70 0 135.5 -23.5t124 -72.5t94 -138t35.5 -206v-686h-368v614q0 84 -43 129t-117 45t-116 -45t-42 -129v-614h-368zM215 1608l287 317h256l286 -317h-286l-123 143h-10l-123 -143h-287z" />
    <glyph glyph-name="Hbar" unicode="&#x126;" horiz-adv-x="1536" 
d="M143 0v1001h-123v297h123v136h410v-136h430v136h410v-136h123v-297h-123v-1001h-410v512h-430v-512h-410zM553 881h430v120h-430v-120z" />
    <glyph glyph-name="hbar" unicode="&#x127;" horiz-adv-x="1249" 
d="M113 0v1065h-133v235h133v134h368v-134h246v-235h-246v-184h11q115 102 286 102q70 0 135.5 -23.5t124 -72.5t94 -138.5t35.5 -205.5v-543h-368v471q0 84 -43 129t-117 45t-116 -45t-42 -129v-471h-368z" />
    <glyph glyph-name="Imacron" unicode="&#x12a;" horiz-adv-x="655" 
d="M123 0v1434h409v-1434h-409zM10 1597v236h635v-236h-635z" />
    <glyph glyph-name="imacron" unicode="&#x12b;" horiz-adv-x="573" 
d="M102 0v1106h369v-1106h-369zM-31 1290v236h635v-236h-635z" />
    <glyph glyph-name="Ibreve" unicode="&#x12c;" horiz-adv-x="655" 
d="M123 0v1434h409v-1434h-409zM327.5 1556q-149.5 0 -252 81t-116.5 247h246q14 -102 122.5 -102t123.5 102h245q-14 -166 -116.5 -247t-252 -81z" />
    <glyph glyph-name="ibreve" unicode="&#x12d;" horiz-adv-x="573" 
d="M102 0v1106h369v-1106h-369zM286.5 1249q-149.5 0 -252 81t-116.5 247h246q14 -102 122.5 -102t123.5 102h245q-14 -166 -116.5 -247t-252 -81z" />
    <glyph glyph-name="Iogonek" unicode="&#x12e;" horiz-adv-x="655" 
d="M297 -471q-172 0 -250 67.5t-78 178.5q0 84 45 142t109 83v1434h409v-1434h-194q-53 -31 -83 -73t-30 -81q0 -43 25.5 -67.5t97.5 -24.5h41v-225h-92z" />
    <glyph glyph-name="iogonek" unicode="&#x12f;" horiz-adv-x="573" 
d="M276 -471q-172 0 -249.5 67.5t-77.5 178.5q0 84 46 142t107 83v1106h369v-1106h-154q-53 -31 -82.5 -73t-29.5 -81q0 -43 25.5 -67.5t97.5 -24.5h41v-225h-93zM286.5 1188q-98.5 0 -151.5 53t-53 141t53 141.5t151.5 53.5t152 -53.5t53.5 -141.5t-53.5 -141t-152 -53z
" />
    <glyph glyph-name="Idotaccent" unicode="&#x130;" horiz-adv-x="655" 
d="M123 0v1434h409v-1434h-409zM334 1556q-72 0 -121 47.5t-49 121t50 121.5t119.5 48t119 -48t49.5 -121.5t-49 -121t-119 -47.5z" />
    <glyph glyph-name="dotlessi" unicode="&#x131;" horiz-adv-x="573" 
d="M102 0v1106h369v-1106h-369z" />
    <glyph glyph-name="IJ" unicode="&#x132;" horiz-adv-x="1792" 
d="M123 0v1434h409v-1434h-409zM1167 -20q-252 0 -387 131t-135 370h410q0 -133 112 -133q102 0 103 144v942h409v-942q0 -246 -133 -379t-379 -133z" />
    <glyph glyph-name="ij" unicode="&#x133;" horiz-adv-x="1157" 
d="M102 0v1106h369v-1106h-369zM286.5 1188q-98.5 0 -151.5 53t-53 141t53 141.5t151.5 53.5t152 -53.5t53.5 -141.5t-53.5 -141t-152 -53zM430 -410v328h174q37 0 59.5 26.5t22.5 65.5v1096h369v-1167q0 -180 -89 -264.5t-300 -84.5h-236zM870.5 1188q-96.5 0 -150.5 53
t-54 141t54 141.5t150.5 53.5t150.5 -53.5t54 -141.5t-54 -141t-150.5 -53z" />
    <glyph glyph-name="Jcircumflex" unicode="&#x134;" horiz-adv-x="1187" 
d="M563 -20q-252 0 -387 131t-135 370h410q0 -133 112 -133q102 0 103 144v942h409v-942q0 -246 -133 -379t-379 -133zM451 1567l286 317h256l287 -317h-287l-123 143h-10l-123 -143h-286z" />
    <glyph glyph-name="jcircumflex" unicode="&#x135;" horiz-adv-x="573" 
d="M-154 -410v328h174q37 0 59.5 26.5t22.5 65.5v1096h369v-1167q0 -180 -89 -264.5t-300 -84.5h-236zM-133 1260l287 317h256l286 -317h-286l-123 143h-11l-122 -143h-287z" />
    <glyph glyph-name="uni0136" unicode="&#x136;" horiz-adv-x="1402" 
d="M123 0v1434h409v-605l410 605h471l-491 -707l522 -727h-471l-441 625v-625h-409zM492 -522l92 348h307l-154 -348h-245z" />
    <glyph glyph-name="uni0137" unicode="&#x137;" horiz-adv-x="1218" 
d="M113 0v1434h368v-789l318 461h430l-379 -543l410 -563h-431l-348 481v-481h-368zM410 -522l92 348h307l-154 -348h-245z" />
    <glyph glyph-name="Lacute" unicode="&#x139;" horiz-adv-x="1167" 
d="M123 0v1434h409v-1065h594v-369h-1003zM195 1567l184 307h328l-246 -307h-266z" />
    <glyph glyph-name="lacute" unicode="&#x13a;" horiz-adv-x="593" 
d="M113 0v1434h368v-1434h-368zM164 1567l184 307h328l-246 -307h-266z" />
    <glyph glyph-name="uni013B" unicode="&#x13b;" horiz-adv-x="1167" 
d="M123 0v1434h409v-1065h594v-369h-1003zM389 -522l92 348h307l-153 -348h-246z" />
    <glyph glyph-name="uni013C" unicode="&#x13c;" horiz-adv-x="593" 
d="M113 0v1434h368v-1434h-368zM51 -522l92 348h308l-154 -348h-246z" />
    <glyph glyph-name="Lcaron" unicode="&#x13d;" horiz-adv-x="1167" 
d="M123 0v1434h409v-1065h594v-369h-1003zM635 1085l92 349h287l-154 -349h-225z" />
    <glyph glyph-name="lcaron" unicode="&#x13e;" horiz-adv-x="829" 
d="M113 0v1434h368v-1434h-368zM553 1085l92 349h287l-154 -349h-225z" />
    <glyph glyph-name="Ldot" unicode="&#x13f;" horiz-adv-x="1167" 
d="M911.5 676q-75.5 0 -135 55t-59.5 137q0 84 59.5 140.5t135 56.5t135 -56.5t59.5 -140.5q0 -82 -59.5 -137t-135 -55zM123 0v1434h409v-1065h594v-369h-1003z" />
    <glyph glyph-name="ldot" unicode="&#x140;" horiz-adv-x="921" 
d="M758 553q-76 0 -135.5 55.5t-59.5 136.5q0 84 59.5 140.5t135.5 56.5t135 -56.5t59 -140.5q0 -82 -59 -137t-135 -55zM113 0v1434h368v-1434h-368z" />
    <glyph glyph-name="Lslash" unicode="&#x141;" horiz-adv-x="1228" 
d="M184 0v485l-184 -67v368l184 68v580h410v-428l297 110v-368l-297 -111v-268h594v-369h-1004z" />
    <glyph glyph-name="lslash" unicode="&#x142;" horiz-adv-x="737" 
d="M174 0v479l-154 -69v317l154 70v637h369v-469l174 79v-317l-174 -80v-647h-369z" />
    <glyph glyph-name="Nacute" unicode="&#x143;" horiz-adv-x="1587" 
d="M123 0v1434h512l420 -828v828h409v-1434h-512l-420 827v-827h-409zM655 1567l185 307h327l-245 -307h-267z" />
    <glyph glyph-name="nacute" unicode="&#x144;" horiz-adv-x="1249" 
d="M102 0v1106h328l31 -102h10q117 123 297 122q70 0 135.5 -23.5t123.5 -72.5t94 -138t36 -206v-686h-369v614q0 84 -43 129t-116.5 45t-115.5 -45t-42 -129v-614h-369zM492 1260l184 307h328l-246 -307h-266z" />
    <glyph glyph-name="uni0145" unicode="&#x145;" horiz-adv-x="1587" 
d="M123 0v1434h512l420 -828v828h409v-1434h-512l-420 827v-827h-409zM553 -522l92 348h307l-153 -348h-246z" />
    <glyph glyph-name="uni0146" unicode="&#x146;" horiz-adv-x="1249" 
d="M102 0v1106h328l31 -102h10q117 123 297 122q70 0 135.5 -23.5t123.5 -72.5t94 -138t36 -206v-686h-369v614q0 84 -43 129t-116.5 45t-115.5 -45t-42 -129v-614h-369zM379 -522l92 348h307l-153 -348h-246z" />
    <glyph glyph-name="Ncaron" unicode="&#x147;" horiz-adv-x="1587" 
d="M123 0v1434h512l420 -828v828h409v-1434h-512l-420 827v-827h-409zM666 1567l-287 317h287l122 -143h11l123 143h286l-286 -317h-256z" />
    <glyph glyph-name="ncaron" unicode="&#x148;" horiz-adv-x="1249" 
d="M102 0v1106h328l31 -102h10q117 123 297 122q70 0 135.5 -23.5t123.5 -72.5t94 -138t36 -206v-686h-369v614q0 84 -43 129t-116.5 45t-115.5 -45t-42 -129v-614h-369zM502 1249l-287 318h287l123 -144h10l123 144h286l-286 -318h-256z" />
    <glyph glyph-name="napostrophe" unicode="&#x149;" horiz-adv-x="1484" 
d="M338 0v1106h328l30 -102h11q117 123 297 122q70 0 135 -23.5t123.5 -72.5t94.5 -138t36 -206v-686h-369v614q0 84 -43 129t-116.5 45t-115.5 -45t-42 -129v-614h-369zM10 1085l92 349h287l-153 -349h-226z" />
    <glyph glyph-name="Eng" unicode="&#x14a;" horiz-adv-x="1587" 
d="M768 -553v369h123q84 0 129 43t45 121v20h-113l-420 827v-827h-409v1434h512l420 -828v828h409v-1381q0 -313 -134 -459.5t-419 -146.5h-143z" />
    <glyph glyph-name="eng" unicode="&#x14b;" horiz-adv-x="1249" 
d="M532 -410v328h175q37 0 59 26.5t22 65.5v604q0 84 -43 129t-116.5 45t-115.5 -45t-42 -129v-614h-369v1106h328l31 -102h10q117 123 297 122q70 0 135.5 -23.5t123.5 -72.5t94 -138t36 -206v-747q0 -180 -89 -264.5t-300 -84.5h-236z" />
    <glyph glyph-name="Omacron" unicode="&#x14c;" horiz-adv-x="1515" 
d="M757.5 -20q-315.5 0 -506 192.5t-190.5 544.5t190.5 544.5t506 192.5t506 -192.5t190.5 -544.5t-190.5 -544.5t-506 -192.5zM757.5 348q147.5 0 217 99.5t69.5 269.5t-69.5 269t-217 99t-217 -99t-69.5 -269t69.5 -269.5t217 -99.5zM440 1597v236h635v-236h-635z" />
    <glyph glyph-name="omacron" unicode="&#x14d;" horiz-adv-x="1249" 
d="M624.5 -20q-270.5 0 -417 148t-146.5 424.5t146.5 425t417 148.5t417 -148.5t146.5 -425t-146.5 -424.5t-417 -148zM625 307q88 0 141 63.5t53 182.5t-53 182.5t-141 63.5t-141.5 -63.5t-53.5 -182.5t53.5 -182.5t141.5 -63.5zM307 1290v236h635v-236h-635z" />
    <glyph glyph-name="Obreve" unicode="&#x14e;" horiz-adv-x="1515" 
d="M757.5 -20q-315.5 0 -506 192.5t-190.5 544.5t190.5 544.5t506 192.5t506 -192.5t190.5 -544.5t-190.5 -544.5t-506 -192.5zM757.5 348q147.5 0 217 99.5t69.5 269.5t-69.5 269t-217 99t-217 -99t-69.5 -269t69.5 -269.5t217 -99.5zM757.5 1556q-149.5 0 -252 81
t-116.5 247h246q14 -102 122.5 -102t123.5 102h245q-14 -166 -116.5 -247t-252 -81z" />
    <glyph glyph-name="obreve" unicode="&#x14f;" horiz-adv-x="1249" 
d="M624.5 -20q-270.5 0 -417 148t-146.5 424.5t146.5 425t417 148.5t417 -148.5t146.5 -425t-146.5 -424.5t-417 -148zM625 307q88 0 141 63.5t53 182.5t-53 182.5t-141 63.5t-141.5 -63.5t-53.5 -182.5t53.5 -182.5t141.5 -63.5zM624.5 1249q-149.5 0 -252 81t-116.5 247
h246q14 -102 122.5 -102t123.5 102h245q-14 -166 -116.5 -247t-252 -81z" />
    <glyph glyph-name="Ohungarumlaut" unicode="&#x150;" horiz-adv-x="1515" 
d="M757.5 -20q-315.5 0 -506 192.5t-190.5 544.5t190.5 544.5t506 192.5t506 -192.5t190.5 -544.5t-190.5 -544.5t-506 -192.5zM757.5 348q147.5 0 217 99.5t69.5 269.5t-69.5 269t-217 99t-217 -99t-69.5 -269t69.5 -269.5t217 -99.5zM440 1567l195 307h307l-246 -307h-256
zM850 1567l194 307h308l-246 -307h-256z" />
    <glyph glyph-name="ohungarumlaut" unicode="&#x151;" horiz-adv-x="1249" 
d="M624.5 -20q-270.5 0 -417 148t-146.5 424.5t146.5 425t417 148.5t417 -148.5t146.5 -425t-146.5 -424.5t-417 -148zM625 307q88 0 141 63.5t53 182.5t-53 182.5t-141 63.5t-141.5 -63.5t-53.5 -182.5t53.5 -182.5t141.5 -63.5zM287 1260l194 307h307l-245 -307h-256z
M696 1260l195 307h307l-246 -307h-256z" />
    <glyph glyph-name="OE" unicode="&#x152;" horiz-adv-x="2119" 
d="M743 348q133 0 202 103.5t69 265.5t-68.5 265t-202.5 103q-131 0 -201.5 -103t-70.5 -265t70.5 -265.5t201.5 -103.5zM707 -20q-279 0 -462.5 197.5t-183.5 539.5t183.5 539.5t462.5 197.5q96 0 172.5 -22.5t105.5 -47.5l29 -22v72h1034v-369h-625v-184h564v-338h-564
v-174h605v-369h-1014v72q-10 -10 -31.5 -25.5t-100.5 -41t-175 -25.5z" />
    <glyph glyph-name="oe" unicode="&#x153;" horiz-adv-x="1964" 
d="M614.5 799q-79.5 0 -132 -63.5t-52.5 -182.5t52.5 -182.5t132 -63.5t132 63.5t52.5 182.5t-52.5 182.5t-132 63.5zM614 -20q-262 0 -407.5 149.5t-145.5 423.5t145.5 423.5t407.5 149.5q231 0 369 -163q51 61 147.5 112t229.5 51q264 0 403.5 -162.5t139.5 -410.5
l-11 -113h-735q31 -164 182 -164q57 0 96.5 16.5t50.5 29t27 36.5h369q-14 -59 -45 -116.5t-88 -121t-158.5 -102t-230.5 -38.5q-240 0 -377 163q-138 -163 -369 -163zM1157 676h387q-39 154 -194.5 154t-192.5 -154z" />
    <glyph glyph-name="Racute" unicode="&#x154;" horiz-adv-x="1372" 
d="M123 0v1434h655q233 0 372.5 -140.5t139.5 -351.5q0 -68 -14 -129t-36.5 -105t-50.5 -80t-54.5 -58.5t-50 -39t-35.5 -22.5l-15 -6l318 -502h-451l-270 451h-99v-451h-409zM532 819h216q61 0 97 34t36 89t-36 89t-97 34h-216v-246zM543 1567l184 307h328l-246 -307h-266z
" />
    <glyph glyph-name="racute" unicode="&#x155;" horiz-adv-x="901" 
d="M102 0v1106h328l31 -102h10q41 53 110.5 77.5t135.5 24.5h164v-348h-144q-266 0 -266 -277v-481h-369zM358 1260l185 307h327l-245 -307h-267z" />
    <glyph glyph-name="uni0156" unicode="&#x156;" horiz-adv-x="1372" 
d="M123 0v1434h655q233 0 372.5 -140.5t139.5 -351.5q0 -68 -14 -129t-36.5 -105t-50.5 -80t-54.5 -58.5t-50 -39t-35.5 -22.5l-15 -6l318 -502h-451l-270 451h-99v-451h-409zM532 819h216q61 0 97 34t36 89t-36 89t-97 34h-216v-246zM471 -522l92 348h307l-153 -348h-246z
" />
    <glyph glyph-name="uni0157" unicode="&#x157;" horiz-adv-x="901" 
d="M102 0v1106h328l31 -102h10q41 53 110.5 77.5t135.5 24.5h164v-348h-144q-266 0 -266 -277v-481h-369zM41 -522l92 348h307l-153 -348h-246z" />
    <glyph glyph-name="Rcaron" unicode="&#x158;" horiz-adv-x="1372" 
d="M123 0v1434h655q233 0 372.5 -140.5t139.5 -351.5q0 -68 -14 -129t-36.5 -105t-50.5 -80t-54.5 -58.5t-50 -39t-35.5 -22.5l-15 -6l318 -502h-451l-270 451h-99v-451h-409zM532 819h216q61 0 97 34t36 89t-36 89t-97 34h-216v-246zM553 1567l-287 317h287l123 -143h10
l123 143h287l-287 -317h-256z" />
    <glyph glyph-name="rcaron" unicode="&#x159;" horiz-adv-x="901" 
d="M102 0v1106h328l31 -102h10q41 53 110.5 77.5t135.5 24.5h164v-348h-144q-266 0 -266 -277v-481h-369zM389 1249l-287 318h287l123 -144h10l123 144h287l-287 -318h-256z" />
    <glyph glyph-name="Sacute" unicode="&#x15a;" horiz-adv-x="1300" 
d="M645 -20q-268 0 -441 124.5t-184 366.5h410q0 -66 55.5 -104.5t159.5 -38.5q195 0 195 112q0 47 -57.5 73t-142.5 34t-184.5 32.5t-184.5 63.5t-142 131t-57 230q0 119 50 209t134 141t182.5 75.5t206.5 24.5q299 0 444.5 -133t149.5 -338h-410q0 59 -47 91t-127 32
q-86 0 -124.5 -29.5t-38.5 -72.5q0 -47 57 -74t142 -37t184.5 -36t184.5 -62.5t142.5 -125.5t57.5 -218q0 -209 -163 -340t-452 -131zM512 1567l184 307h328l-246 -307h-266z" />
    <glyph glyph-name="sacute" unicode="&#x15b;" horiz-adv-x="1126" 
d="M553 -20q-145 0 -252.5 37.5t-164 100t-84 127t-32.5 134.5h369q8 -45 52 -74t112 -29q164 0 164 72q0 33 -48 51.5t-122 23.5t-158 24.5t-157.5 50t-122 102.5t-48.5 178q0 158 129 253t363 95q139 0 242.5 -33.5t161 -91t86 -121t32.5 -132.5h-368q0 35 -36 58t-108 23
q-123 0 -123 -61q0 -35 66.5 -50.5t161 -27.5t189.5 -38.5t161.5 -105.5t66.5 -208q0 -59 -21.5 -113.5t-73.5 -114t-164.5 -95t-272.5 -35.5zM420 1260l184 307h328l-246 -307h-266z" />
    <glyph glyph-name="Scircumflex" unicode="&#x15c;" horiz-adv-x="1300" 
d="M645 -20q-268 0 -441 124.5t-184 366.5h410q0 -66 55.5 -104.5t159.5 -38.5q195 0 195 112q0 47 -57.5 73t-142.5 34t-184.5 32.5t-184.5 63.5t-142 131t-57 230q0 119 50 209t134 141t182.5 75.5t206.5 24.5q299 0 444.5 -133t149.5 -338h-410q0 59 -47 91t-127 32
q-86 0 -124.5 -29.5t-38.5 -72.5q0 -47 57 -74t142 -37t184.5 -36t184.5 -62.5t142.5 -125.5t57.5 -218q0 -209 -163 -340t-452 -131zM246 1567l286 317h256l287 -317h-287l-122 143h-11l-123 -143h-286z" />
    <glyph glyph-name="scircumflex" unicode="&#x15d;" horiz-adv-x="1126" 
d="M553 -20q-145 0 -252.5 37.5t-164 100t-84 127t-32.5 134.5h369q8 -45 52 -74t112 -29q164 0 164 72q0 33 -48 51.5t-122 23.5t-158 24.5t-157.5 50t-122 102.5t-48.5 178q0 158 129 253t363 95q139 0 242.5 -33.5t161 -91t86 -121t32.5 -132.5h-368q0 35 -36 58t-108 23
q-123 0 -123 -61q0 -35 66.5 -50.5t161 -27.5t189.5 -38.5t161.5 -105.5t66.5 -208q0 -59 -21.5 -113.5t-73.5 -114t-164.5 -95t-272.5 -35.5zM143 1260l287 317h256l287 -317h-287l-123 143h-10l-123 -143h-287z" />
    <glyph glyph-name="Scedilla" unicode="&#x15e;" horiz-adv-x="1300" 
d="M492 -512v205h122q51 0 51.5 41t-51.5 41h-92v143l33 66q-233 18 -379.5 142t-155.5 345h410q0 -66 55.5 -104.5t159.5 -38.5q195 0 195 112q0 47 -57.5 73t-142.5 34t-184.5 32.5t-184.5 63.5t-142 131t-57 230q0 119 50 209t134 141t182.5 75.5t206.5 24.5
q299 0 444.5 -133t149.5 -338h-410q0 59 -47 91t-127 32q-86 0 -124.5 -29.5t-38.5 -72.5q0 -47 57 -74t142 -37t184.5 -36t184.5 -62.5t142.5 -125.5t57.5 -218q0 -190 -137.5 -318.5t-383.5 -148.5l-22 -45q72 -8 133 -65.5t61 -149.5q0 -100 -63.5 -168t-192.5 -68h-163z
" />
    <glyph glyph-name="scedilla" unicode="&#x15f;" horiz-adv-x="1126" 
d="M410 -512v205h122q51 0 51.5 41t-51.5 41h-92v143l33 66q-123 10 -214 50t-139 100.5t-71.5 120.5t-28.5 124h369q8 -45 52 -74t112 -29q164 0 164 72q0 33 -48 51.5t-122 23.5t-158 24.5t-157.5 50t-122 102.5t-48.5 178q0 158 129 253t363 95q139 0 242.5 -33.5
t161 -91t86 -121t32.5 -132.5h-368q0 35 -36 58t-108 23q-123 0 -123 -61q0 -35 66.5 -50.5t161 -27.5t189.5 -38.5t161.5 -105.5t66.5 -208q0 -53 -17 -103.5t-60 -105.5t-133.5 -94t-217.5 -49l-22 -47q72 -8 133 -65.5t61 -149.5q0 -100 -63.5 -168t-192.5 -68h-163z" />
    <glyph glyph-name="Scaron" unicode="&#x160;" horiz-adv-x="1300" 
d="M645 -20q-268 0 -441 124.5t-184 366.5h410q0 -66 55.5 -104.5t159.5 -38.5q195 0 195 112q0 47 -57.5 73t-142.5 34t-184.5 32.5t-184.5 63.5t-142 131t-57 230q0 119 50 209t134 141t182.5 75.5t206.5 24.5q299 0 444.5 -133t149.5 -338h-410q0 59 -47 91t-127 32
q-86 0 -124.5 -29.5t-38.5 -72.5q0 -47 57 -74t142 -37t184.5 -36t184.5 -62.5t142.5 -125.5t57.5 -218q0 -209 -163 -340t-452 -131zM532 1567l-286 317h286l123 -143h11l122 143h287l-287 -317h-256z" />
    <glyph glyph-name="scaron" unicode="&#x161;" horiz-adv-x="1126" 
d="M553 -20q-145 0 -252.5 37.5t-164 100t-84 127t-32.5 134.5h369q8 -45 52 -74t112 -29q164 0 164 72q0 33 -48 51.5t-122 23.5t-158 24.5t-157.5 50t-122 102.5t-48.5 178q0 158 129 253t363 95q139 0 242.5 -33.5t161 -91t86 -121t32.5 -132.5h-368q0 35 -36 58t-108 23
q-123 0 -123 -61q0 -35 66.5 -50.5t161 -27.5t189.5 -38.5t161.5 -105.5t66.5 -208q0 -59 -21.5 -113.5t-73.5 -114t-164.5 -95t-272.5 -35.5zM430 1249l-287 318h287l123 -144h10l123 144h287l-287 -318h-256z" />
    <glyph glyph-name="uni0162" unicode="&#x162;" horiz-adv-x="1249" 
d="M573 -512v205h123q51 0 51.5 41t-51.5 41h-92v143l41 82h-225v1065h-400v369h1209v-369h-400v-1065l-30 -61q72 -8 133 -65.5t61 -149.5q0 -100 -63.5 -168t-192.5 -68h-164z" />
    <glyph glyph-name="uni0163" unicode="&#x163;" horiz-adv-x="921" 
d="M328 -512v205h123q51 0 51 41t-51 41h-93v143l54 107q-104 33 -150.5 112.5t-46.5 210.5v420h-174v338h174l61 287h308v-287h256v-338h-256v-348q0 -39 22.5 -65.5t59.5 -26.5h174v-328h-256l-31 -61q72 -8 133.5 -65.5t61.5 -149.5q0 -100 -63.5 -168t-192.5 -68h-164z
" />
    <glyph glyph-name="Tcaron" unicode="&#x164;" horiz-adv-x="1249" 
d="M420 0v1065h-400v369h1209v-369h-400v-1065h-409zM502 1567l-287 317h287l123 -143h10l123 143h286l-286 -317h-256z" />
    <glyph glyph-name="tcaron" unicode="&#x165;" horiz-adv-x="1095" 
d="M604 0q-211 0 -300 84t-89 264v420h-174v338h174l61 287h308v-287h256v-338h-256v-348q0 -39 22.5 -65.5t59.5 -26.5h174v-328h-236zM819 1085h225l154 349h-287z" />
    <glyph glyph-name="Tbar" unicode="&#x166;" horiz-adv-x="1290" 
d="M440 0v573h-297v328h297v164h-399v369h1208v-369h-399v-164h297v-328h-297v-573h-410z" />
    <glyph glyph-name="tbar" unicode="&#x167;" horiz-adv-x="921" 
d="M604 0q-211 0 -300 84t-89 264v133h-174v267h174v92h-174v266h174l61 287h308v-287h256v-266h-256v-92h256v-267h-256v-71q0 -39 22.5 -66t59.5 -27h174v-317h-236z" />
    <glyph glyph-name="Umacron" unicode="&#x16a;" horiz-adv-x="1495" 
d="M747.5 -20q-292.5 0 -463.5 175t-171 480v799h409v-799q0 -141 60.5 -214t165 -73t165 73t60.5 214v799h409v-799q0 -305 -171 -480t-463.5 -175zM430 1597v236h635v-236h-635z" />
    <glyph glyph-name="umacron" unicode="&#x16b;" horiz-adv-x="1259" 
d="M492 -20q-70 0 -135.5 23.5t-124 72.5t-94.5 138t-36 206v686h369v-614q0 -84 43 -129.5t117 -45.5t115.5 45.5t41.5 129.5v614h369v-1106h-328l-30 102h-11q-116 -122 -296 -122zM307 1290v236h635v-236h-635z" />
    <glyph glyph-name="Ubreve" unicode="&#x16c;" horiz-adv-x="1495" 
d="M747.5 -20q-292.5 0 -463.5 175t-171 480v799h409v-799q0 -141 60.5 -214t165 -73t165 73t60.5 214v799h409v-799q0 -305 -171 -480t-463.5 -175zM747.5 1556q-149.5 0 -252 81t-116.5 247h246q14 -102 122.5 -102t122.5 102h246q-14 -166 -116.5 -247t-252 -81z" />
    <glyph glyph-name="ubreve" unicode="&#x16d;" horiz-adv-x="1259" 
d="M492 -20q-70 0 -135.5 23.5t-124 72.5t-94.5 138t-36 206v686h369v-614q0 -84 43 -129.5t117 -45.5t115.5 45.5t41.5 129.5v614h369v-1106h-328l-30 102h-11q-116 -122 -296 -122zM624.5 1249q-149.5 0 -252 81t-116.5 247h246q14 -102 122.5 -102t123.5 102h245
q-14 -166 -116.5 -247t-252 -81z" />
    <glyph glyph-name="Uring" unicode="&#x16e;" horiz-adv-x="1495" 
d="M747.5 -20q-292.5 0 -463.5 175t-171 480v799h409v-799q0 -141 60.5 -214t165 -73t165 73t60.5 214v799h409v-799q0 -305 -171 -480t-463.5 -175zM747.5 1495q-104.5 0 -175 69.5t-70.5 176t70.5 176.5t175 70t175 -70t70.5 -176.5t-70.5 -176t-175 -69.5zM747.5 1659
q36.5 0 59 22.5t22.5 59.5t-22.5 59.5t-59 22.5t-59 -22.5t-22.5 -59.5t22.5 -59.5t59 -22.5z" />
    <glyph glyph-name="uring" unicode="&#x16f;" horiz-adv-x="1259" 
d="M492 -20q-70 0 -135.5 23.5t-124 72.5t-94.5 138t-36 206v686h369v-614q0 -84 43 -129.5t117 -45.5t115.5 45.5t41.5 129.5v614h369v-1106h-328l-30 102h-11q-116 -122 -296 -122zM624.5 1229q-104.5 0 -175 69.5t-70.5 176t70.5 176t175 69.5t175 -69.5t70.5 -176
t-70.5 -176t-175 -69.5zM625 1393q37 0 59.5 22.5t22.5 59t-22.5 59t-59.5 22.5t-59.5 -22.5t-22.5 -59t22.5 -59t59.5 -22.5z" />
    <glyph glyph-name="Uhungarumlaut" unicode="&#x170;" horiz-adv-x="1495" 
d="M747.5 -20q-292.5 0 -463.5 175t-171 480v799h409v-799q0 -141 60.5 -214t165 -73t165 73t60.5 214v799h409v-799q0 -305 -171 -480t-463.5 -175zM399 1567l195 307h307l-246 -307h-256zM809 1567l195 307h307l-246 -307h-256z" />
    <glyph glyph-name="uhungarumlaut" unicode="&#x171;" horiz-adv-x="1259" 
d="M492 -20q-70 0 -135.5 23.5t-124 72.5t-94.5 138t-36 206v686h369v-614q0 -84 43 -129.5t117 -45.5t115.5 45.5t41.5 129.5v614h369v-1106h-328l-30 102h-11q-116 -122 -296 -122zM297 1260l195 307h307l-246 -307h-256zM707 1260l194 307h307l-245 -307h-256z" />
    <glyph glyph-name="Uogonek" unicode="&#x172;" horiz-adv-x="1495" 
d="M860 -471q-172 0 -250 67.5t-78 178.5q0 139 121 211q-252 27 -396 197.5t-144 451.5v799h409v-799q0 -141 60.5 -214t165 -73t165 73t60.5 214v799h409v-799q0 -266 -132 -435t-365 -208q-96 -63 -97 -146q0 -43 26 -67.5t97 -24.5h41v-225h-92z" />
    <glyph glyph-name="uogonek" unicode="&#x173;" horiz-adv-x="1259" 
d="M1116 -471q-172 0 -250 67.5t-78 178.5q0 84 46.5 142t107.5 83h-113l-30 102h-11q-117 -123 -296 -122q-70 0 -135.5 23.5t-124 72.5t-94.5 138t-36 206v686h369v-614q0 -84 43 -129.5t117 -45.5t115.5 45.5t41.5 129.5v614h369v-1106q-53 -31 -83 -73t-30 -81
q0 -43 26 -67.5t97 -24.5h41v-225h-92z" />
    <glyph glyph-name="Wcircumflex" unicode="&#x174;" horiz-adv-x="2015" 
d="M379 0l-369 1434h420l182 -850l228 850h336l225 -850l184 850h420l-369 -1434h-399l-229 768l-230 -768h-399zM594 1567l287 317h256l286 -317h-286l-123 143h-10l-123 -143h-287z" />
    <glyph glyph-name="wcircumflex" unicode="&#x175;" horiz-adv-x="1751" 
d="M297 0l-287 1106h389l140 -655l168 655h337l168 -655l140 655h389l-287 -1106h-410l-170 573l-167 -573h-410zM461 1260l287 317h256l286 -317h-286l-123 143h-11l-122 -143h-287z" />
    <glyph glyph-name="Ycircumflex" unicode="&#x176;" horiz-adv-x="1320" 
d="M455 0v440l-496 994h440l260 -615l263 615h440l-498 -994v-440h-409zM246 1567l286 317h256l287 -317h-287l-122 143h-11l-123 -143h-286z" />
    <glyph glyph-name="ycircumflex" unicode="&#x177;" horiz-adv-x="1218" 
d="M246 -410l164 410l-430 1106h409l225 -676l215 676h410l-594 -1516h-399zM195 1260l286 317h256l287 -317h-287l-123 143h-10l-123 -143h-286z" />
    <glyph glyph-name="Ydieresis" unicode="&#x178;" horiz-adv-x="1320" 
d="M455 0v440l-496 994h440l260 -615l263 615h440l-498 -994v-440h-409zM436 1556q-72 0 -121 47.5t-49 121t50.5 121.5t120 48t118.5 -48t49 -121.5t-49 -121t-119 -47.5zM877 1556q-72 0 -121 47.5t-49 121t50 121.5t119.5 48t118.5 -48t49 -121.5t-48.5 -121
t-118.5 -47.5z" />
    <glyph glyph-name="Zacute" unicode="&#x179;" horiz-adv-x="1280" 
d="M61 0v307l615 778h-594v349h1126v-308l-624 -778h624v-348h-1147zM502 1567l184 307h328l-246 -307h-266z" />
    <glyph glyph-name="zacute" unicode="&#x17a;" horiz-adv-x="1085" 
d="M61 0v287l461 491h-440v328h922v-287l-461 -491h471v-328h-953zM399 1260l185 307h327l-245 -307h-267z" />
    <glyph glyph-name="Zdotaccent" unicode="&#x17b;" horiz-adv-x="1280" 
d="M61 0v307l615 778h-594v349h1126v-308l-624 -778h624v-348h-1147zM641 1556q-72 0 -121 47.5t-49 121t50 121.5t120 48t119 -48t49 -121.5t-49 -121t-119 -47.5z" />
    <glyph glyph-name="zdotaccent" unicode="&#x17c;" horiz-adv-x="1085" 
d="M61 0v287l461 491h-440v328h922v-287l-461 -491h471v-328h-953zM539 1249q-72 0 -121 47t-49 121t50 122t119.5 48t119 -48t49.5 -122t-49 -121t-119 -47z" />
    <glyph glyph-name="Zcaron" unicode="&#x17d;" horiz-adv-x="1280" 
d="M61 0v307l615 778h-594v349h1126v-308l-624 -778h624v-348h-1147zM512 1567l-287 317h287l123 -143h10l123 143h287l-287 -317h-256z" />
    <glyph glyph-name="zcaron" unicode="&#x17e;" horiz-adv-x="1085" 
d="M61 0v287l461 491h-440v328h922v-287l-461 -491h471v-328h-953zM410 1249l-287 318h287l122 -144h11l123 144h286l-286 -318h-256z" />
    <glyph glyph-name="uni018F" unicode="&#x18f;" horiz-adv-x="1495" 
d="M737 348q205 0 267 205h-267h-266q61 -205 266 -205zM737.5 -20q-315.5 0 -496 203.5t-180.5 594.5v82h949q-55 225 -273 225q-94 0 -154.5 -33.5t-82.5 -68.5h-410q35 188 200 329.5t447 141.5q315 0 506 -192.5t191 -544.5t-190.5 -544.5t-506 -192.5z" />
    <glyph glyph-name="florin" unicode="&#x192;" horiz-adv-x="1054" 
d="M-113 -369l80 369h82q127 0 152 123l100 471h-186l80 369h186l35 163q39 182 144.5 275.5t324.5 93.5h221l-80 -369h-100q-127 0 -152 -122l-8 -41h248l-78 -369h-250l-127 -594q-39 -182 -144.5 -275.5t-324.5 -93.5h-203z" />
    <glyph glyph-name="Aringacute" unicode="&#x1fa;" horiz-adv-x="1443" 
d="M717 1649q37 0 59.5 22.5t22.5 59t-22.5 59t-59.5 22.5t-59.5 -22.5t-22.5 -59t22.5 -59t59.5 -22.5zM716.5 1485q-104.5 0 -175 69.5t-70.5 176.5q0 94 56.5 159.5t144.5 81.5l51 137h246l-117 -172q111 -68 111 -206q0 -106 -71 -176t-175.5 -70zM-20 0l501 1434h482
l501 -1434h-430l-63 205h-500l-61 -205h-430zM602 573h240l-121 431z" />
    <glyph glyph-name="aringacute" unicode="&#x1fb;" horiz-adv-x="1187" 
d="M614.5 1372q36.5 0 59 22.5t22.5 59.5t-22.5 59.5t-59 22.5t-59.5 -22.5t-23 -59.5t23 -59.5t59.5 -22.5zM614.5 1208q-104.5 0 -175 70t-70.5 176q0 94 56 159.5t144 82.5l52 137h245l-116 -172q111 -68 110 -207q0 -106 -70.5 -176t-175 -70zM532 276q88 0 141.5 43
t53.5 101v20h-205q-102 0 -102 -82q0 -35 27.5 -58.5t84.5 -23.5zM440.5 -20q-180.5 0 -285 98t-104.5 250q0 147 110.5 242.5t330.5 95.5h235v41q0 41 -39 71.5t-104 30.5q-92 0 -123 -61h-369q27 158 151 268t351 110q236 0 369 -111.5t133 -328.5v-686h-328l-31 102h-10
q-106 -122 -286.5 -122z" />
    <glyph glyph-name="AEacute" unicode="&#x1fc;" horiz-adv-x="1984" 
d="M614 573h265v492h-37zM-102 0l727 1434h1267v-369h-614v-174h573v-338h-573v-184h635v-369h-1034v236h-414l-119 -236h-448zM963 1567l184 307h328l-246 -307h-266z" />
    <glyph glyph-name="aeacute" unicode="&#x1fd;" horiz-adv-x="1904" 
d="M532 276q88 0 141.5 43t53.5 101v20h-205q-102 0 -102 -82q0 -35 27.5 -58.5t84.5 -23.5zM451 -20q-195 0 -297.5 102t-102.5 246q0 147 110.5 242.5t330.5 95.5h235v41q0 45 -42 73.5t-99 28.5q-94 0 -125 -61h-369q25 160 153 269t339 109q100 0 176 -25.5t109.5 -54
t72.5 -73.5q131 154 379 153q250 0 386 -163.5t136 -409.5l-10 -113h-737q33 -164 184 -164q57 0 96 16.5t50.5 29t27.5 36.5h369q-14 -59 -44 -116.5t-86.5 -121t-152.5 -102t-219 -38.5q-256 0 -420 163q-61 -55 -107 -84.5t-134 -54t-209 -24.5zM1096 666h389
q-8 68 -58.5 115.5t-136.5 47.5t-136 -47.5t-58 -115.5zM819 1260l185 307h327l-246 -307h-266z" />
    <glyph glyph-name="Oslashacute" unicode="&#x1fe;" horiz-adv-x="1515" 
d="M477 539l314 544q-10 2 -33 2q-156 0 -231.5 -99t-75.5 -269q-1 -104 26 -178zM139 -51l123 213q-201 195 -201 555q0 352 190.5 544.5t506.5 192.5q119 0 227 -31l35 62h358l-123 -215q199 -199 199 -553q0 -352 -190.5 -544.5t-505.5 -192.5q-117 0 -226 28l-34 -59
h-359zM727 348h31q156 0 231.5 99.5t75.5 269.5q0 92 -27 176zM625 1567l184 307h328l-246 -307h-266z" />
    <glyph glyph-name="oslashacute" unicode="&#x1ff;" horiz-adv-x="1249" 
d="M399 422l269 424q-29 4 -43 4q-109 0 -177.5 -80t-68.5 -217q0 -76 20 -131zM102 -41l107 168q-147 147 -148 426q0 276 146.5 424.5t417.5 148.5q104 0 204 -26l31 47h307l-116 -182q137 -147 137 -412q0 -276 -146.5 -424.5t-416.5 -148.5q-98 0 -189 22l-26 -43h-308z
M600 256h25q109 0 177 80t68 217q0 49 -14 106zM492 1260l184 307h328l-246 -307h-266z" />
    <glyph glyph-name="uni0218" unicode="&#x218;" horiz-adv-x="1300" 
d="M645 -20q-268 0 -441 124.5t-184 366.5h410q0 -66 55.5 -104.5t159.5 -38.5q195 0 195 112q0 47 -57.5 73t-142.5 34t-184.5 32.5t-184.5 63.5t-142 131t-57 230q0 119 50 209t134 141t182.5 75.5t206.5 24.5q299 0 444.5 -133t149.5 -338h-410q0 59 -47 91t-127 32
q-86 0 -124.5 -29.5t-38.5 -72.5q0 -47 57 -74t142 -37t184.5 -36t184.5 -62.5t142.5 -125.5t57.5 -218q0 -209 -163 -340t-452 -131zM410 -522l92 348h307l-154 -348h-245z" />
    <glyph glyph-name="uni0219" unicode="&#x219;" horiz-adv-x="1126" 
d="M553 -20q-145 0 -252.5 37.5t-164 100t-84 127t-32.5 134.5h369q8 -45 52 -74t112 -29q164 0 164 72q0 33 -48 51.5t-122 23.5t-158 24.5t-157.5 50t-122 102.5t-48.5 178q0 158 129 253t363 95q139 0 242.5 -33.5t161 -91t86 -121t32.5 -132.5h-368q0 35 -36 58t-108 23
q-123 0 -123 -61q0 -35 66.5 -50.5t161 -27.5t189.5 -38.5t161.5 -105.5t66.5 -208q0 -59 -21.5 -113.5t-73.5 -114t-164.5 -95t-272.5 -35.5zM317 -522l93 348h307l-154 -348h-246z" />
    <glyph glyph-name="uni021A" unicode="&#x21a;" horiz-adv-x="1249" 
d="M420 0v1065h-400v369h1209v-369h-400v-1065h-409zM379 -522l92 348h307l-153 -348h-246z" />
    <glyph glyph-name="uni021B" unicode="&#x21b;" horiz-adv-x="921" 
d="M604 0q-211 0 -300 84t-89 264v420h-174v338h174l61 287h308v-287h256v-338h-256v-348q0 -39 22.5 -65.5t59.5 -26.5h174v-328h-236zM297 -522l92 348h307l-153 -348h-246z" />
    <glyph glyph-name="uni0232" unicode="&#x232;" horiz-adv-x="1320" 
d="M455 0v440l-496 994h440l260 -615l263 615h440l-498 -994v-440h-409zM338 1597v236h635v-236h-635z" />
    <glyph glyph-name="uni0233" unicode="&#x233;" horiz-adv-x="1218" 
d="M246 -410l164 410l-430 1106h409l225 -676l215 676h410l-594 -1516h-399zM287 1290v236h635v-236h-635z" />
    <glyph glyph-name="uni0244" unicode="&#x244;" horiz-adv-x="1495" 
d="M747.5 348q104.5 0 165 73t60.5 214v203h-451v-203q0 -141 60.5 -214t165 -73zM747.5 -20q-292.5 0 -463.5 175t-171 480v203h-113v297h113v299h409v-299h451v299h409v-299h113v-297h-113v-203q0 -305 -171 -480t-463.5 -175z" />
    <glyph glyph-name="uni0259" unicode="&#x259;" horiz-adv-x="1249" 
d="M625 276q166 0 204 154h-409q39 -154 205 -154zM614 -20q-264 0 -408.5 163.5t-144.5 409.5l11 113h757q-12 61 -59 112t-135 51q-129 0 -184 -81h-369q14 57 46 116.5t91.5 122t162.5 101t232 38.5q276 0 425 -148.5t149 -424.5q0 -274 -152 -423.5t-422 -149.5z" />
    <glyph glyph-name="uni0289" unicode="&#x289;" horiz-adv-x="1341" 
d="M671.5 317q73.5 0 115.5 45.5t42 129.5v194h-317v-194q0 -84 43 -129.5t116.5 -45.5zM532 -20q-70 0 -135 23.5t-123.5 72.5t-94.5 138t-36 206v266h-112v266h112v154h369v-154h317v154h369v-154h113v-266h-113v-686h-328l-30 102h-11q-117 -122 -297 -122z" />
    <glyph glyph-name="uni02BC" unicode="&#x2bc;" horiz-adv-x="501" 
d="M61 1085l93 349h286l-153 -349h-226z" />
    <glyph glyph-name="circumflex" unicode="&#x2c6;" horiz-adv-x="952" 
d="M61 1260l287 317h256l287 -317h-287l-123 143h-10l-123 -143h-287z" />
    <glyph glyph-name="caron" unicode="&#x2c7;" horiz-adv-x="952" 
d="M348 1249l-287 318h287l123 -144h10l123 144h287l-287 -318h-256z" />
    <glyph glyph-name="breve" unicode="&#x2d8;" horiz-adv-x="860" 
d="M430.5 1249q-149.5 0 -252 81t-117.5 247h246q14 -102 123 -102t123 102h246q-14 -166 -116.5 -247t-252 -81z" />
    <glyph glyph-name="dotaccent" unicode="&#x2d9;" horiz-adv-x="460" 
d="M231 1249q-72 0 -121 47t-49 121t50.5 122t120 48t118.5 -48t49 -122t-49 -121t-119 -47z" />
    <glyph glyph-name="ring" unicode="&#x2da;" horiz-adv-x="614" 
d="M307.5 1229q-104.5 0 -175.5 69.5t-71 176t71 176t175.5 69.5t175 -69.5t70.5 -176t-70.5 -176t-175 -69.5zM307 1393q37 0 59.5 22.5t22.5 59t-22.5 59t-59.5 22.5t-59.5 -22.5t-22.5 -59t22.5 -59t59.5 -22.5z" />
    <glyph glyph-name="ogonek" unicode="&#x2db;" horiz-adv-x="542" 
d="M389 -471q-172 0 -250 67.5t-78 178.5q0 84 45.5 142t108.5 83v20h215v-20q-53 -31 -83 -73t-30 -81q0 -43 26 -67.5t97 -24.5h41v-225h-92z" />
    <glyph glyph-name="tilde" unicode="&#x2dc;" horiz-adv-x="839" 
d="M553 1270q-49 0 -124 35.5t-101 35.5q-41 0 -41 -61h-226q0 276 226 276q49 0 123.5 -35.5t101.5 -35.5q41 0 41 61h225q0 -276 -225 -276z" />
    <glyph glyph-name="hungarumlaut" unicode="&#x2dd;" horiz-adv-x="1034" 
d="M61 1260l195 307h307l-246 -307h-256zM471 1260l195 307h307l-246 -307h-256z" />
    <glyph glyph-name="acutecomb" unicode="&#x301;" horiz-adv-x="0" 
d="M-891 1567l184 307h328l-246 -307h-266z" />
    <glyph glyph-name="uni0302" unicode="&#x302;" horiz-adv-x="0" 
d="M-1167 1567l286 317h256l287 -317h-287l-123 143h-10l-123 -143h-286z" />
    <glyph glyph-name="uni0304" unicode="&#x304;" horiz-adv-x="0" 
d="M-1065 1597v236h635v-236h-635z" />
    <glyph glyph-name="uni0306" unicode="&#x306;" horiz-adv-x="0" 
d="M-747.5 1556q-149.5 0 -252 81t-116.5 247h246q14 -102 122.5 -102t122.5 102h246q-14 -166 -116.5 -247t-252 -81z" />
    <glyph glyph-name="uni0307" unicode="&#x307;" horiz-adv-x="0" 
d="M-752 1556q-72 0 -121 47.5t-49 121t50.5 121.5t120 48t118.5 -48t49 -121.5t-49 -121t-119 -47.5z" />
    <glyph glyph-name="uni0308" unicode="&#x308;" horiz-adv-x="0" 
d="M-967 1556q-72 0 -121 47.5t-49 121t50.5 121.5t120 48t118.5 -48t49 -121.5t-49 -121t-119 -47.5zM-526 1556q-72 0 -121 47.5t-49 121t50 121.5t119.5 48t119 -48t49.5 -121.5t-49 -121t-119 -47.5z" />
    <glyph glyph-name="uni030A" unicode="&#x30a;" horiz-adv-x="0" 
d="M-747.5 1536q-104.5 0 -175 69.5t-70.5 176t70.5 176.5t175 70t175 -70t70.5 -176.5t-70.5 -176t-175 -69.5zM-747.5 1700q36.5 0 59 22.5t22.5 59.5t-22.5 59.5t-59 22.5t-59 -22.5t-22.5 -59.5t22.5 -59.5t59 -22.5z" />
    <glyph glyph-name="uni030C" unicode="&#x30c;" horiz-adv-x="0" 
d="M-870 1556l-287 318h287l122 -143h11l123 143h286l-286 -318h-256z" />
    <glyph glyph-name="uni0326" unicode="&#x326;" horiz-adv-x="522" 
d="M61 -522l93 348h307l-154 -348h-246z" />
    <glyph glyph-name="uni0400" unicode="&#x400;" horiz-adv-x="1239" 
d="M123 0v1434h1024v-369h-615v-174h574v-338h-574v-184h635v-369h-1044zM512 1567l-246 307h328l184 -307h-266z" />
    <glyph glyph-name="uni0401" unicode="&#x401;" horiz-adv-x="1239" 
d="M123 0v1434h1024v-369h-615v-174h574v-338h-574v-184h635v-369h-1044zM426 1556q-72 0 -121 47.5t-49 121t50 121.5t120 48t119 -48t49 -121.5t-49 -121t-119 -47.5zM866 1556q-72 0 -121 47.5t-49 121t50.5 121.5t120 48t118.5 -48t49 -121.5t-49 -121t-119 -47.5z" />
    <glyph glyph-name="uni0402" unicode="&#x402;" horiz-adv-x="1495" 
d="M297 0v1065h-317v369h1044v-369h-317v-154q92 41 225 41q248 0 380 -130t132 -351q0 -219 -136.5 -345t-385.5 -126h-123v358h71q78 0 121 30t43 83q0 123 -164 123q-82 0 -163 -41v-553h-410z" />
    <glyph glyph-name="uni0403" unicode="&#x403;" horiz-adv-x="1116" 
d="M123 0v1434h942v-369h-533v-1065h-409zM461 1567l184 307h328l-246 -307h-266z" />
    <glyph glyph-name="uni0404" unicode="&#x404;" horiz-adv-x="1464" 
d="M758 -20q-315 0 -506 192.5t-191 544.5t190.5 544.5t506.5 192.5q291 0 452.5 -146.5t202.5 -385.5h-420q-6 16 -16 33.5t-21.5 36t-30 35.5t-41 29.5t-55 20.5t-71.5 8q-209 0 -266 -204h380v-328h-380q57 -205 266 -205q47 0 85 13.5t58.5 24.5t44 44t26.5 40t21 42
h420q-41 -240 -202.5 -386t-452.5 -146z" />
    <glyph glyph-name="uni0405" unicode="&#x405;" horiz-adv-x="1300" 
d="M645 -20q-268 0 -441 124.5t-184 366.5h410q0 -66 55.5 -104.5t159.5 -38.5q195 0 195 112q0 47 -57.5 73t-142.5 34t-184.5 32.5t-184.5 63.5t-142 131t-57 230q0 119 50 209t134 141t182.5 75.5t206.5 24.5q299 0 444.5 -133t149.5 -338h-410q0 59 -47 91t-127 32
q-86 0 -124.5 -29.5t-38.5 -72.5q0 -47 57 -74t142 -37t184.5 -36t184.5 -62.5t142.5 -125.5t57.5 -218q0 -209 -163 -340t-452 -131z" />
    <glyph glyph-name="uni0406" unicode="&#x406;" horiz-adv-x="655" 
d="M123 0v1434h409v-1434h-409z" />
    <glyph glyph-name="uni0407" unicode="&#x407;" horiz-adv-x="655" 
d="M123 0v1434h409v-1434h-409zM109 1556q-72 0 -121 47.5t-49 121t50 121.5t119.5 48t118.5 -48t49 -121.5t-48.5 -121t-118.5 -47.5zM549 1556q-72 0 -121 47.5t-49 121t50 121.5t119.5 48t119 -48t49.5 -121.5t-49 -121t-119 -47.5z" />
    <glyph glyph-name="uni0408" unicode="&#x408;" horiz-adv-x="1187" 
d="M563 -20q-252 0 -387 131t-135 370h410q0 -133 112 -133q102 0 103 144v942h409v-942q0 -246 -133 -379t-379 -133z" />
    <glyph glyph-name="uni0409" unicode="&#x409;" horiz-adv-x="2078" 
d="M20 -31v400h21q74 0 111.5 32.5t60.5 143t23 325.5v564h1054v-410h205q233 0 383 -142.5t150 -369.5t-149.5 -369.5t-383.5 -142.5h-614v1065h-236v-236q0 -238 -24.5 -391t-90 -264t-179 -158t-290.5 -47h-41zM1290 369h164q76 0 120 40t44 103t-44 103t-120 40h-164
v-286z" />
    <glyph glyph-name="uni040A" unicode="&#x40a;" horiz-adv-x="2119" 
d="M123 0v1434h409v-471h390v471h409v-471h225q229 0 370.5 -133.5t141.5 -348.5t-141 -348t-371 -133h-634v594h-390v-594h-409zM1331 369h195q66 0 99.5 31.5t33.5 80.5t-34 81t-99 32h-195v-225z" />
    <glyph glyph-name="uni040B" unicode="&#x40b;" horiz-adv-x="1515" 
d="M297 0v1065h-317v369h1044v-369h-317v-154q92 41 225 41q250 0 365.5 -129t115.5 -393v-430h-409v430q0 88 -30 126t-104 38q-82 0 -163 -41v-553h-410z" />
    <glyph glyph-name="uni040C" unicode="&#x40c;" horiz-adv-x="1402" 
d="M123 0v1434h409v-605l410 605h471l-491 -707l522 -727h-471l-441 625v-625h-409zM604 1567l184 307h328l-246 -307h-266z" />
    <glyph glyph-name="uni040D" unicode="&#x40d;" horiz-adv-x="1587" 
d="M123 0v1434h409v-834l441 834h491v-1434h-409v834l-441 -834h-491zM666 1567l-246 307h328l184 -307h-266z" />
    <glyph glyph-name="uni040E" unicode="&#x40e;" horiz-adv-x="1259" 
d="M297 0l139 348l-487 1086h440l250 -625l231 625h430l-593 -1434h-410zM624.5 1556q-149.5 0 -252 81t-116.5 247h246q14 -102 122.5 -102t123.5 102h245q-14 -166 -116.5 -247t-252 -81z" />
    <glyph glyph-name="uni040F" unicode="&#x40f;" horiz-adv-x="1474" 
d="M543 -297v297h-420v1434h409v-1065h410v1065h410v-1434h-420v-297h-389z" />
    <glyph glyph-name="uni0410" unicode="&#x410;" horiz-adv-x="1443" 
d="M-20 0l501 1434h482l501 -1434h-430l-63 205h-500l-61 -205h-430zM602 573h240l-121 431z" />
    <glyph glyph-name="uni0411" unicode="&#x411;" horiz-adv-x="1351" 
d="M532 348h185q82 0 123 34t41 89t-41 89t-123 34h-185v-246zM123 0v1434h1065v-369h-656v-143h246q242 0 377 -125t135 -336t-135 -336t-377 -125h-655z" />
    <glyph glyph-name="uni0412" unicode="&#x412;" horiz-adv-x="1392" 
d="M532 348h267q123 0 123 102.5t-123 102.5h-267v-205zM123 0v1434h727q225 0 343 -105.5t118 -294.5q0 -102 -54.5 -185t-130.5 -122q205 -102 205 -328q0 -180 -113.5 -289.5t-347.5 -109.5h-747zM532 881h246q123 0 123 102t-123 102h-246v-204z" />
    <glyph glyph-name="uni0413" unicode="&#x413;" horiz-adv-x="1116" 
d="M123 0v1434h942v-369h-533v-1065h-409z" />
    <glyph glyph-name="uni0414" unicode="&#x414;" horiz-adv-x="1546" 
d="M10 -297v666h144q92 184 92 583v482h1085v-1065h174v-666h-389v297h-717v-297h-389zM543 369h379v696h-267v-113q7 -380 -112 -583z" />
    <glyph glyph-name="uni0415" unicode="&#x415;" horiz-adv-x="1239" 
d="M123 0v1434h1024v-369h-615v-174h574v-338h-574v-184h635v-369h-1044z" />
    <glyph glyph-name="uni0416" unicode="&#x416;" horiz-adv-x="1986" 
d="M-41 0l461 727l-430 707h450l348 -605v605h410v-605l348 605h451l-430 -707l461 -727h-451l-379 625v-625h-410v625l-378 -625h-451z" />
    <glyph glyph-name="uni0417" unicode="&#x417;" horiz-adv-x="1341" 
d="M665.5 -20q-307.5 0 -462 125.5t-162.5 355.5h410q23 -113 215 -113q205 0 204 103q0 92 -204 92h-154v348h154q184 0 184 92q0 47 -50 74.5t-134 27.5q-182 0 -195 -112h-410q16 229 165 355t440 126q281 0 437.5 -116.5t156.5 -293.5q0 -236 -205 -327
q106 -45 165.5 -119t59.5 -209q0 -180 -153.5 -294.5t-461 -114.5z" />
    <glyph glyph-name="uni0418" unicode="&#x418;" horiz-adv-x="1587" 
d="M123 0v1434h409v-834l441 834h491v-1434h-409v834l-441 -834h-491z" />
    <glyph glyph-name="uni0419" unicode="&#x419;" horiz-adv-x="1587" 
d="M123 0v1434h409v-834l441 834h491v-1434h-409v834l-441 -834h-491zM819.5 1556q-149.5 0 -252 81t-116.5 247h245q14 -102 123 -102t123 102h246q-14 -166 -116.5 -247t-252 -81z" />
    <glyph glyph-name="uni041A" unicode="&#x41a;" horiz-adv-x="1402" 
d="M123 0v1434h409v-605l410 605h471l-491 -707l522 -727h-471l-441 625v-625h-409z" />
    <glyph glyph-name="uni041B" unicode="&#x41b;" horiz-adv-x="1443" 
d="M20 -31v400h21q74 0 111.5 32.5t60.5 143t23 325.5v564h1085v-1434h-410v1065h-266v-236q0 -238 -24.5 -391t-90 -264t-179 -158t-290.5 -47h-41z" />
    <glyph glyph-name="uni041C" unicode="&#x41c;" horiz-adv-x="1955" 
d="M123 0v1434h573l281 -871l283 871h573v-1434h-410v879l-282 -879h-326l-283 879v-879h-409z" />
    <glyph glyph-name="uni041D" unicode="&#x41d;" horiz-adv-x="1495" 
d="M123 0v1434h409v-523h431v523h409v-1434h-409v543h-431v-543h-409z" />
    <glyph glyph-name="uni041E" unicode="&#x41e;" horiz-adv-x="1515" 
d="M757.5 -20q-315.5 0 -506 192.5t-190.5 544.5t190.5 544.5t506 192.5t506 -192.5t190.5 -544.5t-190.5 -544.5t-506 -192.5zM757.5 348q147.5 0 217 99.5t69.5 269.5t-69.5 269t-217 99t-217 -99t-69.5 -269t69.5 -269.5t217 -99.5z" />
    <glyph glyph-name="uni041F" unicode="&#x41f;" horiz-adv-x="1474" 
d="M123 0v1434h1229v-1434h-410v1065h-410v-1065h-409z" />
    <glyph glyph-name="uni0420" unicode="&#x420;" horiz-adv-x="1351" 
d="M123 0v1434h635q238 0 385 -145.5t147 -377t-147.5 -377t-384.5 -145.5h-226v-389h-409zM532 758h185q76 0 120 42t44 111.5t-44 111.5t-120 42h-185v-307z" />
    <glyph glyph-name="uni0421" unicode="&#x421;" horiz-adv-x="1464" 
d="M758 -20q-315 0 -506 192.5t-191 544.5t190.5 544.5t506.5 192.5q291 0 452.5 -146.5t202.5 -385.5h-420q-6 16 -16 33.5t-21.5 36t-30 35.5t-41 29.5t-55 20.5t-71.5 8q-147 0 -217 -99t-70 -269t69.5 -269.5t217.5 -99.5q47 0 85 13.5t58.5 24.5t44 44t26.5 40t21 42
h420q-41 -240 -202.5 -386t-452.5 -146z" />
    <glyph glyph-name="uni0422" unicode="&#x422;" horiz-adv-x="1249" 
d="M420 0v1065h-400v369h1209v-369h-400v-1065h-409z" />
    <glyph glyph-name="uni0423" unicode="&#x423;" horiz-adv-x="1259" 
d="M297 0l139 348l-487 1086h440l250 -625l231 625h430l-593 -1434h-410z" />
    <glyph glyph-name="uni0424" unicode="&#x424;" horiz-adv-x="1802" 
d="M696 492v471q-111 0 -178 -61.5t-67 -174.5t67 -174t178 -61zM696 -20v163q-293 0 -474 162t-181 422t181 422t474 162v143h410v-143q293 0 474 -162t181 -422t-181 -422t-474 -162v-163h-410zM1106 492q111 0 178.5 61t67.5 174t-67.5 174.5t-178.5 61.5v-471z" />
    <glyph glyph-name="uni0425" unicode="&#x425;" horiz-adv-x="1372" 
d="M-41 0l461 737l-440 697h460l246 -441l246 441h461l-441 -697l461 -737h-461l-266 481l-266 -481h-461z" />
    <glyph glyph-name="uni0426" unicode="&#x426;" horiz-adv-x="1566" 
d="M1137 -297v297h-1014v1434h409v-1065h410v1065h410v-1065h174v-666h-389z" />
    <glyph glyph-name="uni0427" unicode="&#x427;" horiz-adv-x="1443" 
d="M911 0v410q-90 -51 -276 -52q-532 0 -533 564v512h410v-492q0 -215 205 -215q61 0 109 13.5t67 25.5l18 12v656h410v-1434h-410z" />
    <glyph glyph-name="uni0428" unicode="&#x428;" horiz-adv-x="2068" 
d="M123 0v1434h409v-1065h297v1065h410v-1065h297v1065h410v-1434h-1823z" />
    <glyph glyph-name="uni0429" unicode="&#x429;" horiz-adv-x="2160" 
d="M1731 -297v297h-1608v1434h409v-1065h297v1065h410v-1065h297v1065h410v-1065h174v-666h-389z" />
    <glyph glyph-name="uni042A" unicode="&#x42a;" horiz-adv-x="1546" 
d="M328 0v1065h-328v369h737v-410h226q233 0 382.5 -142.5t149.5 -369.5t-149.5 -369.5t-382.5 -142.5h-635zM737 369h185q76 0 119.5 40t43.5 103t-44 103t-119 40h-185v-286z" />
    <glyph glyph-name="uni042B" unicode="&#x42b;" horiz-adv-x="1894" 
d="M532 369h164q76 0 120 40t44 103t-44 103t-120 40h-164v-286zM123 0v1434h409v-410h205q233 0 383 -142.5t150 -369.5t-149.5 -369.5t-383.5 -142.5h-614zM1362 0v1434h410v-1434h-410z" />
    <glyph glyph-name="uni042C" unicode="&#x42c;" horiz-adv-x="1341" 
d="M532 369h185q76 0 120 40t44 103t-44 103t-120 40h-185v-286zM123 0v1434h409v-410h226q233 0 382.5 -142.5t149.5 -369.5t-149.5 -369.5t-382.5 -142.5h-635z" />
    <glyph glyph-name="uni042D" unicode="&#x42d;" horiz-adv-x="1454" 
d="M696 -20q-291 0 -452.5 146t-202.5 386h420q6 -16 16 -33.5t21.5 -36t30 -36t41 -29.5t55 -20.5t71.5 -8.5q209 0 267 205h-381v328h381q-57 205 -267 204q-47 0 -85 -13t-58.5 -24.5t-44 -44t-26.5 -40t-21 -41.5h-420q41 240 203 386t452 146q315 0 506 -192.5
t191 -544.5t-191 -544.5t-506 -192.5z" />
    <glyph glyph-name="uni042E" unicode="&#x42e;" horiz-adv-x="2078" 
d="M1352 -20q-266 0 -438.5 148t-211.5 404h-170v-532h-409v1434h409v-533h170q41 258 212 405.5t438 147.5q305 0 485 -194.5t180 -542.5t-180 -542.5t-485 -194.5zM1352 348q256 0 256 368.5t-256 368.5t-256 -368.5t256 -368.5z" />
    <glyph glyph-name="uni042F" unicode="&#x42f;" horiz-adv-x="1372" 
d="M10 0l328 512q-102 41 -179 149.5t-77 280.5q0 211 139 351.5t373 140.5h655v-1434h-409v451h-90l-289 -451h-451zM625 819h215v246h-215q-61 0 -97 -34t-36 -89t36 -89t97 -34z" />
    <glyph glyph-name="uni0430" unicode="&#x430;" horiz-adv-x="1187" 
d="M532 276q88 0 141.5 43t53.5 101v20h-205q-102 0 -102 -82q0 -35 27.5 -58.5t84.5 -23.5zM440.5 -20q-180.5 0 -285 98t-104.5 250q0 147 110.5 242.5t330.5 95.5h235v41q0 41 -39 71.5t-104 30.5q-92 0 -123 -61h-369q27 158 151 268t351 110q236 0 369 -111.5
t133 -328.5v-686h-328l-31 102h-10q-106 -122 -286.5 -122z" />
    <glyph glyph-name="uni0431" unicode="&#x431;" horiz-adv-x="1259" 
d="M635 276q86 0 140 60.5t54 165t-54 165t-140 60.5t-140.5 -60.5t-54.5 -165t54.5 -165t140.5 -60.5zM635 -20q-266 0 -414.5 165.5t-148.5 489.5q0 397 154.5 618.5t449.5 221.5q285 0 420 61v-330q-102 -70 -379 -69q-80 0 -139.5 -21.5t-94 -60.5t-51 -65.5
t-33.5 -65.5h11q100 100 307 100q223 0 352 -144.5t129 -367.5q0 -242 -149.5 -387t-413.5 -145z" />
    <glyph glyph-name="uni0432" unicode="&#x432;" horiz-adv-x="1157" 
d="M471 287h174q92 0 92 71.5t-92 71.5h-174v-143zM102 0v1106h625q172 0 265 -83t93 -224q0 -160 -153 -236q174 -78 174 -246q0 -150 -95.5 -233.5t-283.5 -83.5h-625zM471 696h164q82 0 82 61.5t-82 61.5h-164v-123z" />
    <glyph glyph-name="uni0433" unicode="&#x433;" horiz-adv-x="911" 
d="M102 0v1106h768v-338h-399v-768h-369z" />
    <glyph glyph-name="uni0434" unicode="&#x434;" horiz-adv-x="1310" 
d="M10 -246v584h92q2 4 7 10q66 106 65 307v451h963v-768h133v-584h-359v246h-542v-246h-359zM461 338h307v430h-225v-113q0 -194 -82 -317z" />
    <glyph glyph-name="uni0435" unicode="&#x435;" horiz-adv-x="1249" 
d="M635 -20q-276 0 -425 148t-149 425q0 274 152 423.5t422 149.5q264 0 408.5 -163.5t144.5 -409.5l-10 -113h-758q12 -61 59 -112.5t135 -51.5q129 0 185 82h368q-14 -57 -45.5 -116.5t-91 -122t-163 -101t-232.5 -38.5zM420 676h409q-39 154 -204.5 154t-204.5 -154z" />
    <glyph glyph-name="uni0436" unicode="&#x436;" horiz-adv-x="1720" 
d="M-41 0l389 563l-358 543h430l256 -440v440h368v-440l256 440h431l-359 -543l389 -563h-430l-287 440v-440h-368v440l-287 -440h-430z" />
    <glyph glyph-name="uni0437" unicode="&#x437;" horiz-adv-x="1146" 
d="M573 -20q-264 0 -394 110.5t-138 298.5h369q12 -102 163 -102q143 0 144 71q0 61 -123 62h-133v266h112q123 0 123 62q0 72 -123 71q-131 0 -143 -102h-369q8 188 132 298.5t380 110.5q246 0 374 -93t128 -245q0 -156 -174 -225q88 -33 141.5 -99.5t53.5 -156.5
q0 -152 -131.5 -239.5t-391.5 -87.5z" />
    <glyph glyph-name="uni0438" unicode="&#x438;" horiz-adv-x="1290" 
d="M102 0v1106h369v-574l336 574h381v-1106h-369v573l-336 -573h-381z" />
    <glyph glyph-name="uni0439" unicode="&#x439;" horiz-adv-x="1290" 
d="M102 0v1106h369v-574l336 574h381v-1106h-369v573l-336 -573h-381zM645 1249q-141 0 -237.5 81t-110.5 247h246q14 -102 102 -102t103 102h245q-14 -166 -110.5 -247t-237.5 -81z" />
    <glyph glyph-name="uni043A" unicode="&#x43a;" horiz-adv-x="1208" 
d="M102 0v1106h369v-461l317 461h431l-379 -543l409 -563h-430l-348 481v-481h-369z" />
    <glyph glyph-name="uni043B" unicode="&#x43b;" horiz-adv-x="1239" 
d="M20 -10v368h31q80 0 112 83t32 255v410h942v-1106h-369v768h-205v-154q0 -96 -9 -176t-38 -167t-77 -145t-131 -97t-195 -39h-93z" />
    <glyph glyph-name="uni043C" unicode="&#x43c;" horiz-adv-x="1597" 
d="M102 0v1106h502l195 -543l194 543h502v-1106h-369v584l-204 -584h-246l-205 584v-584h-369z" />
    <glyph glyph-name="uni043D" unicode="&#x43d;" horiz-adv-x="1249" 
d="M102 0v1106h369v-389h307v389h369v-1106h-369v379h-307v-379h-369z" />
    <glyph glyph-name="uni043E" unicode="&#x43e;" horiz-adv-x="1249" 
d="M624.5 -20q-270.5 0 -417 148t-146.5 424.5t146.5 425t417 148.5t417 -148.5t146.5 -425t-146.5 -424.5t-417 -148zM625 307q88 0 141 63.5t53 182.5t-53 182.5t-141 63.5t-141.5 -63.5t-53.5 -182.5t53.5 -182.5t141.5 -63.5z" />
    <glyph glyph-name="uni043F" unicode="&#x43f;" horiz-adv-x="1249" 
d="M102 0v1106h1045v-1106h-369v768h-307v-768h-369z" />
    <glyph glyph-name="uni0440" unicode="&#x440;" horiz-adv-x="1290" 
d="M102 -410v1516h328l31 -102h10q98 123 277 122q221 0 351 -147.5t130 -426t-130 -425.5t-351 -147q-154 0 -267 112h-10v-502h-369zM666 307q88 0 141 63.5t53 182.5t-53 182.5t-141 63.5t-141.5 -63.5t-53.5 -182.5t53.5 -182.5t141.5 -63.5z" />
    <glyph glyph-name="uni0441" unicode="&#x441;" horiz-adv-x="1218" 
d="M625 -20q-270 0 -417 148t-147 424.5t146.5 425t417.5 148.5q131 0 234.5 -42t164.5 -112.5t96 -146t47 -159.5h-368q-49 133 -185 133q-80 0 -132 -63.5t-52 -182.5t52.5 -182.5t131.5 -63.5q135 0 185 133h368q-12 -84 -47 -159.5t-96 -146.5t-164.5 -112.5
t-234.5 -41.5z" />
    <glyph glyph-name="uni0442" unicode="&#x442;" horiz-adv-x="1044" 
d="M338 0v768h-318v338h1004v-338h-317v-768h-369z" />
    <glyph glyph-name="uni0443" unicode="&#x443;" horiz-adv-x="1218" 
d="M246 -410l164 410l-430 1106h409l225 -676l215 676h410l-594 -1516h-399z" />
    <glyph glyph-name="uni0444" unicode="&#x444;" horiz-adv-x="1617" 
d="M625 328v450q-92 0 -148.5 -62.5t-56.5 -162.5t56.5 -162.5t148.5 -62.5zM625 -410v410q-260 0 -417 152.5t-157 400.5t157 400.5t417 152.5v369h368v-369q260 0 417 -152.5t157 -400.5t-157 -400.5t-417 -152.5v-410h-368zM993 328q92 0 148.5 62.5t56.5 162.5
t-56.5 162.5t-148.5 62.5v-450z" />
    <glyph glyph-name="uni0445" unicode="&#x445;" horiz-adv-x="1085" 
d="M-31 0l328 573l-307 533h409l144 -307l143 307h410l-308 -533l328 -573h-409l-164 328l-164 -328h-410z" />
    <glyph glyph-name="uni0446" unicode="&#x446;" horiz-adv-x="1310" 
d="M911 -246v246h-809v1106h369v-768h297v768h369v-768h133v-584h-359z" />
    <glyph glyph-name="uni0447" unicode="&#x447;" horiz-adv-x="1218" 
d="M748 0v297q-80 -31 -216 -31q-229 0 -339.5 108.5t-110.5 332.5v399h369v-379q0 -133 153 -133q92 0 144 41v471h368v-1106h-368z" />
    <glyph glyph-name="uni0448" unicode="&#x448;" horiz-adv-x="1679" 
d="M102 0v1106h369v-768h184v768h369v-768h184v768h369v-1106h-1475z" />
    <glyph glyph-name="uni0449" unicode="&#x449;" horiz-adv-x="1751" 
d="M1352 -246v246h-1250v1106h369v-768h184v768h369v-768h184v768h369v-768h133v-584h-358z" />
    <glyph glyph-name="uni044A" unicode="&#x44a;" horiz-adv-x="1239" 
d="M246 0v799h-246v307h614v-307h185q184 0 296.5 -110.5t112.5 -289t-112.5 -289t-296.5 -110.5h-553zM614 307h134q45 0 68.5 25.5t23.5 66.5t-23.5 67t-68.5 26h-134v-185z" />
    <glyph glyph-name="uni044B" unicode="&#x44b;" horiz-adv-x="1589" 
d="M471 307h113q45 0 68.5 25.5t23.5 66.5t-23.5 67t-68.5 26h-113v-185zM102 0v1106h369v-307h164q184 0 296.5 -110.5t112.5 -289t-112.5 -289t-296.5 -110.5h-533zM1116 0v1106h371v-1106h-371z" />
    <glyph glyph-name="uni044C" unicode="&#x44c;" horiz-adv-x="1095" 
d="M471 307h133q45 0 68.5 25.5t23.5 66.5t-23.5 67t-68.5 26h-133v-185zM102 0v1106h369v-307h184q184 0 297 -110.5t113 -289t-112.5 -289t-297.5 -110.5h-553z" />
    <glyph glyph-name="uni044D" unicode="&#x44d;" horiz-adv-x="1208" 
d="M584 -20q-131 0 -234.5 41.5t-165 110.5t-96.5 140.5t-47 147.5h358q51 -143 195 -144q135 0 174 144h-279v276h279q-45 133 -174 133q-143 0 -195 -143h-358q12 76 47 147.5t96.5 140t165 110.5t234.5 42q270 0 416.5 -148.5t146.5 -425t-146.5 -424.5t-416.5 -148z" />
    <glyph glyph-name="uni044E" unicode="&#x44e;" horiz-adv-x="1730" 
d="M1126 -20q-215 0 -352 105t-176 304h-127v-389h-369v1106h369v-389h127q39 199 176 304t352 105q256 0 399.5 -149.5t143.5 -423.5t-143.5 -423.5t-399.5 -149.5zM1126 307q174 0 174 246t-174 246t-174 -246t174 -246z" />
    <glyph glyph-name="uni044F" unicode="&#x44f;" horiz-adv-x="1167" 
d="M20 0l205 389q-164 98 -164 328q0 170 114 279.5t296 109.5h594v-1106h-369v328h-92l-174 -328h-410zM512 625h184v163h-184q-82 0 -82 -81.5t82 -81.5z" />
    <glyph glyph-name="uni0450" unicode="&#x450;" horiz-adv-x="1249" 
d="M635 -20q-276 0 -425 148t-149 425q0 274 152 423.5t422 149.5q264 0 408.5 -163.5t144.5 -409.5l-10 -113h-758q12 -61 59 -112.5t135 -51.5q129 0 185 82h368q-14 -57 -45.5 -116.5t-91 -122t-163 -101t-232.5 -38.5zM420 676h409q-39 154 -204.5 154t-204.5 -154z
M502 1260l-246 307h328l184 -307h-266z" />
    <glyph glyph-name="uni0451" unicode="&#x451;" horiz-adv-x="1249" 
d="M635 -20q-276 0 -425 148t-149 425q0 274 152 423.5t422 149.5q264 0 408.5 -163.5t144.5 -409.5l-10 -113h-758q12 -61 59 -112.5t135 -51.5q129 0 185 82h368q-14 -57 -45.5 -116.5t-91 -122t-163 -101t-232.5 -38.5zM420 676h409q-39 154 -204.5 154t-204.5 -154z
M406 1249q-72 0 -121 47t-49 121t50 122t119.5 48t118.5 -48t49 -122t-48.5 -121t-118.5 -47zM846 1249q-72 0 -121 47t-49 121t50 122t119.5 48t119 -48t49.5 -122t-49 -121t-119 -47z" />
    <glyph glyph-name="uni0452" unicode="&#x452;" horiz-adv-x="1249" 
d="M563 -410v318h82q80 0 115 30.5t39 106.5v426q0 84 -43 129t-117 45t-116 -45t-42 -129v-471h-368v1065h-133v235h133v134h368v-134h246v-235h-246v-184h11q115 102 286 102q70 0 135.5 -23.5t124 -72.5t94 -138.5t35.5 -205.5v-543q0 -201 -104.5 -305.5t-304.5 -104.5
h-195z" />
    <glyph glyph-name="uni0453" unicode="&#x453;" horiz-adv-x="911" 
d="M102 0v1106h768v-338h-399v-768h-369zM358 1260l185 307h327l-245 -307h-267z" />
    <glyph glyph-name="uni0454" unicode="&#x454;" horiz-adv-x="1208" 
d="M625 -20q-270 0 -417 148t-147 424.5t146.5 425t417.5 148.5q131 0 234.5 -42t164.5 -110.5t96 -140t47 -147.5h-358q-51 143 -195 143q-129 0 -174 -133h279v-276h-279q39 -143 174 -144q143 0 195 144h358q-12 -76 -47 -147.5t-96 -140.5t-164.5 -110.5t-234.5 -41.5z
" />
    <glyph glyph-name="uni0455" unicode="&#x455;" horiz-adv-x="1126" 
d="M553 -20q-145 0 -252.5 37.5t-164 100t-84 127t-32.5 134.5h369q8 -45 52 -74t112 -29q164 0 164 72q0 33 -48 51.5t-122 23.5t-158 24.5t-157.5 50t-122 102.5t-48.5 178q0 158 129 253t363 95q139 0 242.5 -33.5t161 -91t86 -121t32.5 -132.5h-368q0 35 -36 58t-108 23
q-123 0 -123 -61q0 -35 66.5 -50.5t161 -27.5t189.5 -38.5t161.5 -105.5t66.5 -208q0 -59 -21.5 -113.5t-73.5 -114t-164.5 -95t-272.5 -35.5z" />
    <glyph glyph-name="uni0456" unicode="&#x456;" horiz-adv-x="573" 
d="M102 0v1106h369v-1106h-369zM286.5 1188q-98.5 0 -151.5 53t-53 141t53 141.5t151.5 53.5t152 -53.5t53.5 -141.5t-53.5 -141t-152 -53z" />
    <glyph glyph-name="uni0457" unicode="&#x457;" horiz-adv-x="573" 
d="M102 0v1106h369v-1106h-369zM68 1249q-72 0 -121 47t-49 121t50 122t119.5 48t119 -48t49.5 -122t-49 -121t-119 -47zM508 1249q-72 0 -121 47t-49 121t50 122t120 48t119 -48t49 -122t-49 -121t-119 -47z" />
    <glyph glyph-name="uni0458" unicode="&#x458;" horiz-adv-x="573" 
d="M-154 -410v328h174q37 0 59.5 26.5t22.5 65.5v1096h369v-1167q0 -180 -89 -264.5t-300 -84.5h-236zM286.5 1188q-98.5 0 -151.5 53t-53 141t53 141.5t151.5 53.5t152 -53.5t53.5 -141.5t-53.5 -141t-152 -53z" />
    <glyph glyph-name="uni0459" unicode="&#x459;" horiz-adv-x="1720" 
d="M20 -10v368h31q80 0 112 83t32 255v410h921v-307h164q184 0 297 -110.5t113 -289t-113 -289t-297 -110.5h-532v768h-185v-154q0 -96 -9 -176t-38 -167t-77 -145t-131 -97t-195 -39h-93zM1116 307h113q45 0 68.5 25.5t23.5 66.5t-23.5 67t-68.5 26h-113v-185z" />
    <glyph glyph-name="uni045A" unicode="&#x45a;" horiz-adv-x="1730" 
d="M102 0v1106h369v-369h287v369h368v-369h185q176 0 282.5 -100t106.5 -268t-106.5 -268.5t-282.5 -100.5h-553v430h-287v-430h-369zM1126 307h144q25 0 43 16.5t18 45t-18.5 45t-42.5 16.5h-144v-123z" />
    <glyph glyph-name="uni045B" unicode="&#x45b;" horiz-adv-x="1249" 
d="M113 0v1065h-133v235h133v134h368v-134h246v-235h-246v-184h11q115 102 286 102q70 0 135.5 -23.5t124 -72.5t94 -138.5t35.5 -205.5v-543h-368v471q0 84 -43 129t-117 45t-116 -45t-42 -129v-471h-368z" />
    <glyph glyph-name="uni045C" unicode="&#x45c;" horiz-adv-x="1208" 
d="M102 0v1106h369v-461l317 461h431l-379 -543l409 -563h-430l-348 481v-481h-369zM502 1260l184 307h328l-246 -307h-266z" />
    <glyph glyph-name="uni045D" unicode="&#x45d;" horiz-adv-x="1290" 
d="M102 0v1106h369v-574l336 574h381v-1106h-369v573l-336 -573h-381zM522 1260l-246 307h328l184 -307h-266z" />
    <glyph glyph-name="uni045E" unicode="&#x45e;" horiz-adv-x="1218" 
d="M246 -410l164 410l-430 1106h409l225 -676l215 676h410l-594 -1516h-399zM614.5 1249q-141.5 0 -237.5 81t-111 247h246q14 -102 102 -102t103 102h246q-14 -166 -110.5 -247t-238 -81z" />
    <glyph glyph-name="uni045F" unicode="&#x45f;" horiz-adv-x="1249" 
d="M451 -246v246h-349v1106h369v-768h307v768h369v-1106h-348v-246h-348z" />
    <glyph glyph-name="uni0490" unicode="&#x490;" horiz-adv-x="1116" 
d="M123 0v1434h563v286h379v-655h-533v-1065h-409z" />
    <glyph glyph-name="uni0491" unicode="&#x491;" horiz-adv-x="911" 
d="M102 0v1106h430v225h338v-563h-399v-768h-369z" />
    <glyph glyph-name="uni0492" unicode="&#x492;" horiz-adv-x="1228" 
d="M184 0v471h-164v369h164v594h983v-369h-573v-225h358v-369h-358v-471h-410z" />
    <glyph glyph-name="uni0493" unicode="&#x493;" horiz-adv-x="962" 
d="M143 0v328h-143v297h143v481h789v-338h-420v-143h276v-297h-276v-328h-369z" />
    <glyph glyph-name="uni0494" unicode="&#x494;" horiz-adv-x="1361" 
d="M686 -338v358q106 0 171 60.5t65 185.5q0 86 -53.5 145.5t-161.5 59.5q-102 0 -175 -51v-420h-409v1434h962v-369h-553v-287q80 51 256 51q262 0 397.5 -149.5t135.5 -403.5q0 -293 -172 -453.5t-463 -160.5z" />
    <glyph glyph-name="uni0495" unicode="&#x495;" horiz-adv-x="1126" 
d="M584 -410v328q76 0 125 55.5t49 139.5q0 88 -41 141t-123 53q-37 0 -67.5 -10t-43.5 -21l-12 -10v-266h-369v1106h809v-338h-440v-174q72 41 184 41q203 0 322 -130t119 -403q0 -248 -130 -380t-382 -132z" />
    <glyph glyph-name="uni0496" unicode="&#x496;" horiz-adv-x="1994" 
d="M1657 -297v297h-80l-379 625v-625h-410v625l-378 -625h-451l461 727l-430 707h450l348 -605v605h410v-605l348 605h451l-430 -707l227 -358h252v-666h-389z" />
    <glyph glyph-name="uni0497" unicode="&#x497;" horiz-adv-x="1720" 
d="M1403 -246v246h-72l-287 440v-440h-368v440l-287 -440h-430l389 563l-358 543h430l256 -440v440h368v-440l256 440h431l-359 -543l156 -225h233v-584h-358z" />
    <glyph glyph-name="uni049A" unicode="&#x49a;" horiz-adv-x="1423" 
d="M1055 -297v297h-82l-441 625v-625h-409v1434h409v-605l410 605h471l-491 -707l256 -358h266v-666h-389z" />
    <glyph glyph-name="uni049B" unicode="&#x49b;" horiz-adv-x="1228" 
d="M891 -246v246h-72l-348 481v-481h-369v1106h369v-461l317 461h431l-379 -543l164 -225h245v-584h-358z" />
    <glyph glyph-name="uni049C" unicode="&#x49c;" horiz-adv-x="1458" 
d="M123 0v1434h409v-543h41v153h185v-153h22l246 543h430l-348 -707l371 -727h-430l-265 553h-26v-154h-185v154h-41v-553h-409z" />
    <glyph glyph-name="uni049D" unicode="&#x49d;" horiz-adv-x="1280" 
d="M102 0v1106h369v-389h41v102h154v-102h22l182 389h400l-277 -543l307 -563h-399l-209 410h-26v-103h-154v103h-41v-410h-369z" />
    <glyph glyph-name="uni04A2" unicode="&#x4a2;" horiz-adv-x="1587" 
d="M1157 -297v297h-194v543h-431v-543h-409v1434h409v-523h431v523h409v-1065h174v-666h-389z" />
    <glyph glyph-name="uni04A3" unicode="&#x4a3;" horiz-adv-x="1320" 
d="M922 -246v246h-144v379h-307v-379h-369v1106h369v-389h307v389h369v-768h133v-584h-358z" />
    <glyph glyph-name="uni04AA" unicode="&#x4aa;" horiz-adv-x="1464" 
d="M553 -297v301q-229 57 -360.5 239.5t-131.5 473.5q0 352 190.5 544.5t506.5 192.5q291 0 452.5 -146.5t202.5 -385.5h-420q-6 16 -16 33.5t-21.5 36t-30 35.5t-41 29.5t-55 20.5t-71.5 8q-147 0 -217 -99t-70 -269t69.5 -269.5t217.5 -99.5q47 0 85 13.5t58.5 24.5t44 44
t26.5 40t21 42h420q-35 -199 -151.5 -335t-319.5 -179v-295h-389z" />
    <glyph glyph-name="uni04AB" unicode="&#x4ab;" horiz-adv-x="1218" 
d="M440 -246v246q-184 47 -281.5 187.5t-97.5 365.5q0 276 146.5 424.5t417.5 148.5q131 0 234.5 -42t164.5 -112.5t96 -146t47 -159.5h-368q-49 133 -185 133q-80 0 -132 -63.5t-52 -182.5t52.5 -182.5t131.5 -63.5q135 0 185 133h368q-23 -147 -112.5 -270t-255.5 -170
v-246h-359z" />
    <glyph glyph-name="uni04AE" unicode="&#x4ae;" horiz-adv-x="1320" 
d="M455 0v440l-496 994h440l260 -615l263 615h440l-498 -994v-440h-409z" />
    <glyph glyph-name="uni04AF" unicode="&#x4af;" horiz-adv-x="1198" 
d="M420 -410v410h-51l-389 1106h409l211 -686l209 686h410l-390 -1106h-51v-410h-358z" />
    <glyph glyph-name="uni04B0" unicode="&#x4b0;" horiz-adv-x="1341" 
d="M465 0v420h-346v358h176l-326 656h441l260 -615l262 615h440l-330 -656h172v-358h-340v-420h-409z" />
    <glyph glyph-name="uni04B1" unicode="&#x4b1;" horiz-adv-x="1218" 
d="M430 -410v410h-266v307h127l-301 799h409l211 -686l209 686h410l-301 -799h147v-307h-287v-410h-358z" />
    <glyph glyph-name="uni04B2" unicode="&#x4b2;" horiz-adv-x="1402" 
d="M1014 -297v297h-62l-266 481l-266 -481h-461l461 737l-440 697h460l246 -441l246 441h461l-441 -697l230 -368h221v-666h-389z" />
    <glyph glyph-name="uni04B3" unicode="&#x4b3;" horiz-adv-x="1105" 
d="M768 -246v246h-61l-164 328l-164 -328h-410l328 573l-307 533h409l144 -307l143 307h410l-308 -533l134 -235h204v-584h-358z" />
    <glyph glyph-name="uni04B6" unicode="&#x4b6;" horiz-adv-x="1536" 
d="M1106 -297v297h-195v410q-90 -51 -276 -52q-532 0 -533 564v512h410v-492q0 -215 205 -215q61 0 109 13.5t67 25.5l18 12v656h410v-1065h174v-666h-389z" />
    <glyph glyph-name="uni04B7" unicode="&#x4b7;" horiz-adv-x="1288" 
d="M889 -246v246h-141v297q-80 -31 -216 -31q-229 0 -339.5 108.5t-110.5 332.5v399h369v-379q0 -133 153 -133q92 0 144 41v471h368v-768h131v-584h-358z" />
    <glyph glyph-name="uni04B8" unicode="&#x4b8;" horiz-adv-x="1443" 
d="M911 0v410q-25 -14 -92 -33v-162h-205v143q-256 4 -384 142.5t-128 421.5v512h410v-492q0 -150 102 -197v197h205v-205q29 6 51.5 16.5t30.5 16.5l10 8v656h410v-1434h-410z" />
    <glyph glyph-name="uni04B9" unicode="&#x4b9;" horiz-adv-x="1218" 
d="M748 0v297q-43 -14 -72 -18v-125h-154v112q-225 2 -332.5 110.5t-107.5 330.5v399h369v-379q0 -88 71 -119v99h154v-105q39 8 72 33v471h368v-1106h-368z" />
    <glyph glyph-name="uni04BA" unicode="&#x4ba;" horiz-adv-x="1443" 
d="M123 0v1434h409v-441q137 51 308 51q238 0 380 -124.5t142 -387.5v-532h-410v471q0 205 -215 205q-57 0 -117.5 -16.5t-87.5 -34.5v-625h-409z" />
    <glyph glyph-name="uni04BB" unicode="&#x4bb;" horiz-adv-x="1249" 
d="M102 0v1434h369v-410h10q115 102 287 102q70 0 135.5 -23.5t123.5 -72.5t94 -138t36 -206v-686h-369v614q0 84 -43 129t-116.5 45t-115.5 -45t-42 -129v-614h-369z" />
    <glyph glyph-name="uni04C1" unicode="&#x4c1;" horiz-adv-x="1986" 
d="M-41 0l461 727l-430 707h450l348 -605v605h410v-605l348 605h451l-430 -707l461 -727h-451l-379 625v-625h-410v625l-378 -625h-451zM993.5 1556q-149.5 0 -252 81t-116.5 247h245q14 -102 123 -102t123 102h246q-14 -166 -116.5 -247t-252 -81z" />
    <glyph glyph-name="uni04C2" unicode="&#x4c2;" horiz-adv-x="1720" 
d="M-41 0l389 563l-358 543h430l256 -440v440h368v-440l256 440h431l-359 -543l389 -563h-430l-287 440v-440h-368v440l-287 -440h-430zM860 1249q-141 0 -237.5 81t-110.5 247h246q14 -102 102 -102t103 102h245q-14 -166 -110.5 -247t-237.5 -81z" />
    <glyph glyph-name="uni04D2" unicode="&#x4d2;" horiz-adv-x="1443" 
d="M-20 0l501 1434h482l501 -1434h-430l-63 205h-500l-61 -205h-430zM602 573h240l-121 431zM508 1556q-72 0 -121 47.5t-49 121t50 121.5t120 48t119 -48t49 -121.5t-49 -121t-119 -47.5zM948 1556q-72 0 -121 47.5t-49 121t50.5 121.5t120 48t118.5 -48t49 -121.5
t-49 -121t-119 -47.5z" />
    <glyph glyph-name="uni04D3" unicode="&#x4d3;" horiz-adv-x="1187" 
d="M532 276q88 0 141.5 43t53.5 101v20h-205q-102 0 -102 -82q0 -35 27.5 -58.5t84.5 -23.5zM440.5 -20q-180.5 0 -285 98t-104.5 250q0 147 110.5 242.5t330.5 95.5h235v41q0 41 -39 71.5t-104 30.5q-92 0 -123 -61h-369q27 158 151 268t351 110q236 0 369 -111.5
t133 -328.5v-686h-328l-31 102h-10q-106 -122 -286.5 -122zM395 1249q-72 0 -121 47t-49 121t50.5 122t120 48t118.5 -48t49 -122t-49 -121t-119 -47zM836 1249q-72 0 -121 47t-49 121t50 122t119.5 48t119 -48t49.5 -122t-49 -121t-119 -47z" />
    <glyph glyph-name="uni04D8" unicode="&#x4d8;" horiz-adv-x="1495" 
d="M737 348q205 0 267 205h-267h-266q61 -205 266 -205zM737.5 -20q-315.5 0 -496 203.5t-180.5 594.5v82h949q-55 225 -273 225q-94 0 -154.5 -33.5t-82.5 -68.5h-410q35 188 200 329.5t447 141.5q315 0 506 -192.5t191 -544.5t-190.5 -544.5t-506 -192.5z" />
    <glyph glyph-name="uni04D9" unicode="&#x4d9;" horiz-adv-x="1249" 
d="M625 276q166 0 204 154h-409q39 -154 205 -154zM614 -20q-264 0 -408.5 163.5t-144.5 409.5l11 113h757q-12 61 -59 112t-135 51q-129 0 -184 -81h-369q14 57 46 116.5t91.5 122t162.5 101t232 38.5q276 0 425 -148.5t149 -424.5q0 -274 -152 -423.5t-422 -149.5z" />
    <glyph glyph-name="uni04E0" unicode="&#x4e0;" horiz-adv-x="1320" 
d="M655 -20q-307 0 -466.5 125.5t-168.5 355.5h410q23 -113 215 -113q104 0 154.5 44t50.5 100q0 143 -205 143h-246v246l246 184h-543v369h1106v-285l-368 -268h10q160 0 285 -113t125 -307q0 -80 -30 -159t-94.5 -153.5t-188.5 -121.5t-292 -47z" />
    <glyph glyph-name="uni04E1" unicode="&#x4e1;" horiz-adv-x="1157" 
d="M573 -410q-287 0 -430 130t-143 341h369q0 -61 50 -102t134 -41q86 0 135 45t49 129q0 174 -205 174h-266v246l338 266h-512v328h983v-328l-327 -256q178 -37 268 -158.5t90 -291.5q0 -221 -146.5 -351.5t-386.5 -130.5z" />
    <glyph glyph-name="uni04E2" unicode="&#x4e2;" horiz-adv-x="1587" 
d="M123 0v1434h409v-834l441 834h491v-1434h-409v834l-441 -834h-491zM471 1597v236h635v-236h-635z" />
    <glyph glyph-name="uni04E3" unicode="&#x4e3;" horiz-adv-x="1290" 
d="M102 0v1106h369v-574l336 574h381v-1106h-369v573l-336 -573h-381zM328 1290v236h635v-236h-635z" />
    <glyph glyph-name="uni04E6" unicode="&#x4e6;" horiz-adv-x="1515" 
d="M757.5 -20q-315.5 0 -506 192.5t-190.5 544.5t190.5 544.5t506 192.5t506 -192.5t190.5 -544.5t-190.5 -544.5t-506 -192.5zM757.5 348q147.5 0 217 99.5t69.5 269.5t-69.5 269t-217 99t-217 -99t-69.5 -269t69.5 -269.5t217 -99.5zM539 1556q-72 0 -121 47.5t-49 121
t50 121.5t119.5 48t119 -48t49.5 -121.5t-49 -121t-119 -47.5zM979 1556q-72 0 -121 47.5t-49 121t50 121.5t120 48t119 -48t49 -121.5t-49 -121t-119 -47.5z" />
    <glyph glyph-name="uni04E7" unicode="&#x4e7;" horiz-adv-x="1249" 
d="M624.5 -20q-270.5 0 -417 148t-146.5 424.5t146.5 425t417 148.5t417 -148.5t146.5 -425t-146.5 -424.5t-417 -148zM625 307q88 0 141 63.5t53 182.5t-53 182.5t-141 63.5t-141.5 -63.5t-53.5 -182.5t53.5 -182.5t141.5 -63.5zM406 1249q-72 0 -121 47t-49 121t50 122
t119.5 48t118.5 -48t49 -122t-48.5 -121t-118.5 -47zM846 1249q-72 0 -121 47t-49 121t50 122t119.5 48t119 -48t49.5 -122t-49 -121t-119 -47z" />
    <glyph glyph-name="uni04E8" unicode="&#x4e8;" horiz-adv-x="1515" 
d="M758 348q215 0 268 215h-539q58 -215 271 -215zM757.5 -20q-315.5 0 -506 192.5t-190.5 544.5t190.5 544.5t506 192.5t506 -192.5t190.5 -544.5t-190.5 -544.5t-506 -192.5zM487 870h539q-53 215 -268 215q-214 0 -271 -215z" />
    <glyph glyph-name="uni04E9" unicode="&#x4e9;" horiz-adv-x="1249" 
d="M624.5 287q65.5 0 121 37.5t69.5 95.5h-383q16 -57 71.5 -95t121 -38zM624.5 -20q-270.5 0 -417 148t-146.5 424.5t146.5 425t417 148.5t417 -148.5t146.5 -425t-146.5 -424.5t-417 -148zM432 686h383q-16 55 -71.5 94t-119 39t-120 -39t-72.5 -94z" />
    <glyph glyph-name="uni04EE" unicode="&#x4ee;" horiz-adv-x="1259" 
d="M297 0l139 348l-487 1086h440l250 -625l231 625h430l-593 -1434h-410zM307 1597v236h635v-236h-635z" />
    <glyph glyph-name="uni04EF" unicode="&#x4ef;" horiz-adv-x="1218" 
d="M246 -410l164 410l-430 1106h409l225 -676l215 676h410l-594 -1516h-399zM287 1290v236h635v-236h-635z" />
    <glyph glyph-name="uni04F0" unicode="&#x4f0;" horiz-adv-x="1259" 
d="M297 0l139 348l-487 1086h440l250 -625l231 625h430l-593 -1434h-410zM406 1556q-72 0 -121 47.5t-49 121t50 121.5t119.5 48t118.5 -48t49 -121.5t-48.5 -121t-118.5 -47.5zM846 1556q-72 0 -121 47.5t-49 121t50 121.5t119.5 48t119 -48t49.5 -121.5t-49 -121
t-119 -47.5z" />
    <glyph glyph-name="uni04F1" unicode="&#x4f1;" horiz-adv-x="1218" 
d="M246 -410l164 410l-430 1106h409l225 -676l215 676h410l-594 -1516h-399zM385 1249q-72 0 -121 47t-49 121t50 122t120 48t119 -48t49 -122t-49 -121t-119 -47zM825 1249q-72 0 -121 47t-49 121t50.5 122t120 48t118.5 -48t49 -122t-49 -121t-119 -47z" />
    <glyph glyph-name="Wgrave" unicode="&#x1e80;" horiz-adv-x="2015" 
d="M379 0l-369 1434h420l182 -850l228 850h336l225 -850l184 850h420l-369 -1434h-399l-229 768l-230 -768h-399zM881 1567l-246 307h328l184 -307h-266z" />
    <glyph glyph-name="wgrave" unicode="&#x1e81;" horiz-adv-x="1751" 
d="M297 0l-287 1106h389l140 -655l168 655h337l168 -655l140 655h389l-287 -1106h-410l-170 573l-167 -573h-410zM737 1260l-245 307h327l185 -307h-267z" />
    <glyph glyph-name="Wacute" unicode="&#x1e82;" horiz-adv-x="2015" 
d="M379 0l-369 1434h420l182 -850l228 850h336l225 -850l184 850h420l-369 -1434h-399l-229 768l-230 -768h-399zM870 1567l185 307h327l-245 -307h-267z" />
    <glyph glyph-name="wacute" unicode="&#x1e83;" horiz-adv-x="1751" 
d="M297 0l-287 1106h389l140 -655l168 655h337l168 -655l140 655h389l-287 -1106h-410l-170 573l-167 -573h-410zM737 1260l185 307h327l-245 -307h-267z" />
    <glyph glyph-name="Wdieresis" unicode="&#x1e84;" horiz-adv-x="2015" 
d="M379 0l-369 1434h420l182 -850l228 850h336l225 -850l184 850h420l-369 -1434h-399l-229 768l-230 -768h-399zM795 1556q-72 0 -121 47.5t-49 121t50 121.5t119.5 48t119 -48t49.5 -121.5t-49 -121t-119 -47.5zM1235 1556q-72 0 -121 47.5t-49 121t50 121.5t120 48
t119 -48t49 -121.5t-49 -121t-119 -47.5z" />
    <glyph glyph-name="wdieresis" unicode="&#x1e85;" horiz-adv-x="1751" 
d="M297 0l-287 1106h389l140 -655l168 655h337l168 -655l140 655h389l-287 -1106h-410l-170 573l-167 -573h-410zM662 1249q-72 0 -121 47t-49 121t50 122t119.5 48t118.5 -48t49 -122t-48.5 -121t-118.5 -47zM1102 1249q-72 0 -121 47t-49 121t50 122t119.5 48t119 -48
t49.5 -122t-49 -121t-119 -47z" />
    <glyph glyph-name="uni1E9E" unicode="&#x1e9e;" horiz-adv-x="1443" 
d="M113 0v963q0 227 115.5 349t324.5 122h778v-349l-205 -184v-10q100 -39 183.5 -146.5t83.5 -273.5q0 -229 -137.5 -350t-354.5 -121h-215v369h133q90 0 127 36.5t37 86t-37 86t-127 36.5h-112v287l204 184h-256q-133 0 -133 -122v-963h-409z" />
    <glyph glyph-name="Ygrave" unicode="&#x1ef2;" horiz-adv-x="1320" 
d="M455 0v440l-496 994h440l260 -615l263 615h440l-498 -994v-440h-409zM532 1567l-245 307h327l185 -307h-267z" />
    <glyph glyph-name="ygrave" unicode="&#x1ef3;" horiz-adv-x="1218" 
d="M246 -410l164 410l-430 1106h409l225 -676l215 676h410l-594 -1516h-399zM471 1260l-246 307h328l184 -307h-266z" />
    <glyph glyph-name="endash" unicode="&#x2013;" horiz-adv-x="1290" 
d="M61 430v307h1168v-307h-1168z" />
    <glyph glyph-name="emdash" unicode="&#x2014;" horiz-adv-x="1832" 
d="M61 430v307h1711v-307h-1711z" />
    <glyph glyph-name="quoteleft" unicode="&#x2018;" horiz-adv-x="440" 
d="M20 1004l127 430h283l-82 -430h-328z" />
    <glyph glyph-name="quoteright" unicode="&#x2019;" horiz-adv-x="440" 
d="M20 1004l82 430h328l-127 -430h-283z" />
    <glyph glyph-name="quotesinglbase" unicode="&#x201a;" horiz-adv-x="440" 
d="M0 -225l82 430h328l-127 -430h-283z" />
    <glyph glyph-name="quotedblleft" unicode="&#x201c;" horiz-adv-x="880" 
d="M20 1004l127 430h283l-82 -430h-328zM461 1004l127 430h282l-82 -430h-327z" />
    <glyph glyph-name="quotedblright" unicode="&#x201d;" horiz-adv-x="880" 
d="M20 1004l82 430h328l-127 -430h-283zM461 1004l82 430h327l-127 -430h-282z" />
    <glyph glyph-name="quotedblbase" unicode="&#x201e;" horiz-adv-x="880" 
d="M0 -225l82 430h328l-127 -430h-283zM440 -225l82 430h328l-127 -430h-283z" />
    <glyph glyph-name="dagger" unicode="&#x2020;" horiz-adv-x="1024" 
d="M328 0v799h-226v348h226v287h368v-287h226v-348h-226v-799h-368z" />
    <glyph glyph-name="daggerdbl" unicode="&#x2021;" horiz-adv-x="1024" 
d="M328 0v287h-226v348h226v164h-226v348h226v287h368v-287h226v-348h-226v-164h226v-348h-226v-287h-368z" />
    <glyph glyph-name="bullet" unicode="&#x2022;" horiz-adv-x="1024" 
d="M512 328q-106 0 -186 79.5t-80 186t80 186.5t186 80t186 -80t80 -186.5t-80 -186t-186 -79.5z" />
    <glyph glyph-name="ellipsis" unicode="&#x2026;" horiz-adv-x="1658" 
d="M246 -10q-76 0 -135.5 55t-59.5 137q0 84 59.5 140.5t135.5 56.5t135 -56.5t59 -140.5q0 -82 -59 -137t-135 -55zM829.5 -10q-75.5 0 -135 55t-59.5 137q0 84 59.5 140.5t135 56.5t135 -56.5t59.5 -140.5q0 -82 -59.5 -137t-135 -55zM1413 -10q-76 0 -135 55t-59 137
q0 84 59 140.5t135 56.5t135.5 -56.5t59.5 -140.5q0 -82 -59.5 -137t-135.5 -55z" />
    <glyph glyph-name="perthousand" unicode="&#x2030;" horiz-adv-x="2385" 
d="M242 0l891 1434h253l-890 -1434h-254zM1208.5 -20q-151.5 0 -245 96t-93.5 251.5t93.5 252t245 96.5t244.5 -96.5t93 -252t-93 -251.5t-244.5 -96zM1208.5 184q55.5 0 89 38t33.5 105.5t-33.5 105.5t-89 38t-89.5 -38t-34 -105.5t34 -105.5t89.5 -38zM419.5 758
q-151.5 0 -244.5 96t-93 252t93 252t244.5 96t245 -96t93.5 -252t-93.5 -252t-245 -96zM420 963q55 0 89 37.5t34 105.5t-34 105.5t-89 37.5t-89 -37.5t-34 -105.5t34 -105.5t89 -37.5zM1966.5 -20q-151.5 0 -245 96t-93.5 251.5t93.5 252t245 96.5t244.5 -96.5t93 -252
t-93 -251.5t-244.5 -96zM1966 184q55 0 89 38t34 105.5t-34 105.5t-89 38t-89 -38t-34 -105.5t34 -105.5t89 -38z" />
    <glyph glyph-name="guilsinglleft" unicode="&#x2039;" horiz-adv-x="952" 
d="M512 61l-451 502l451 502h399l-450 -496v-12l450 -496h-399z" />
    <glyph glyph-name="guilsinglright" unicode="&#x203a;" horiz-adv-x="952" 
d="M41 61l451 496v12l-451 496h399l451 -502l-451 -502h-399z" />
    <glyph glyph-name="fraction" unicode="&#x2044;" horiz-adv-x="368" 
d="M-369 0l891 1434h215l-891 -1434h-215z" />
    <glyph glyph-name="uni2070" unicode="&#x2070;" horiz-adv-x="819" 
d="M409.5 809q-161.5 0 -260 111.5t-98.5 308t98.5 308.5t260 112t260 -112t98.5 -308.5t-98.5 -308t-260 -111.5zM409.5 1004q71.5 0 107.5 60t36 164.5t-36 165t-107.5 60.5t-107.5 -60.5t-36 -165t36 -164.5t107.5 -60z" />
    <glyph glyph-name="uni2074" unicode="&#x2074;" horiz-adv-x="716" 
d="M358 819v164h-358v195l328 460h245v-460h123v-195h-123v-164h-215zM225 1178h133v194z" />
    <glyph glyph-name="uni2075" unicode="&#x2075;" horiz-adv-x="737" 
d="M369 809q-143 0 -231.5 74.5t-96.5 191.5h225q10 -72 103 -71q53 0 82.5 27.5t29.5 74.5q0 51 -31.5 76.5t-80.5 25.5q-70 0 -103 -51h-215l58 481h546v-194h-374l-13 -103h11q49 31 131 31q127 0 206.5 -69.5t79.5 -196.5q0 -129 -85.5 -213t-241.5 -84z" />
    <glyph glyph-name="uni2076" unicode="&#x2076;" horiz-adv-x="716" 
d="M358.5 1004q53.5 0 83 27.5t29.5 74.5t-29.5 74.5t-83 27.5t-83 -27.5t-29.5 -74.5t29.5 -74.5t83 -27.5zM358 809q-162 0 -244.5 89t-82.5 228q0 117 82 246l174 266h241l-170 -245q152 0 240 -81t88 -196q0 -139 -88 -223t-240 -84z" />
    <glyph glyph-name="uni2077" unicode="&#x2077;" horiz-adv-x="624" 
d="M106 819l283 625h-348v194h573v-194l-282 -625h-226z" />
    <glyph glyph-name="uni2078" unicode="&#x2078;" horiz-adv-x="737" 
d="M368.5 993q51.5 0 77 23.5t25.5 58.5t-25.5 58.5t-77 23.5t-77 -23.5t-25.5 -58.5t25.5 -58.5t77 -23.5zM368.5 809q-141.5 0 -229.5 67.5t-88 188.5q0 127 123 195q-102 51 -102 163q0 98 75.5 162t221 64t221.5 -63.5t76 -162.5q0 -113 -103 -163q123 -68 123 -195
q0 -121 -88 -188.5t-229.5 -67.5zM368.5 1321q49.5 0 71 21.5t21.5 50t-21.5 50t-71 21.5t-71 -21.5t-21.5 -50t21.5 -50t71 -21.5z" />
    <glyph glyph-name="uni2079" unicode="&#x2079;" horiz-adv-x="716" 
d="M188 819l170 246q-152 0 -239.5 81t-87.5 195q0 139 88 223.5t239 84.5q162 0 245 -89.5t83 -228.5q0 -117 -82 -246l-174 -266h-242zM358.5 1249q53.5 0 83 28t29.5 75t-29.5 74.5t-83 27.5t-83 -27.5t-29.5 -74.5t29.5 -75t83 -28z" />
    <glyph glyph-name="uni2080" unicode="&#x2080;" horiz-adv-x="819" 
d="M409.5 -215q-161.5 0 -260 111.5t-98.5 308t98.5 308.5t260 112t260 -112t98.5 -308.5t-98.5 -308t-260 -111.5zM409.5 -20q71.5 0 107.5 60t36 164.5t-36 165t-107.5 60.5t-107.5 -60.5t-36 -165t36 -164.5t107.5 -60z" />
    <glyph glyph-name="uni2081" unicode="&#x2081;" horiz-adv-x="583" 
d="M256 -205v512h-184v195h133q51 0 51 51v61h215v-819h-215z" />
    <glyph glyph-name="uni2082" unicode="&#x2082;" horiz-adv-x="706" 
d="M51 -205v195l277 246q37 33 49 46t27.5 37.5t15.5 49.5q0 61 -72 61t-72 -72h-225q0 266 307 267q139 0 213 -70t74 -176q0 -135 -139 -258l-158 -131h287v-195h-584z" />
    <glyph glyph-name="uni2083" unicode="&#x2083;" horiz-adv-x="727" 
d="M368.5 -215q-163.5 0 -245.5 68.5t-82 187.5h225q0 -20 24.5 -40.5t67.5 -20.5q39 0 66 20t27 51q0 72 -93 72h-51v184h51q41 0 61.5 20.5t20.5 41.5q0 25 -22.5 43t-59.5 18q-92 0 -92 -72h-225q0 131 82 199t235 68q152 0 230 -66.5t78 -159.5q0 -125 -123 -174
q133 -49 133 -184q0 -92 -72 -174t-235.5 -82z" />
    <glyph glyph-name="uni2084" unicode="&#x2084;" horiz-adv-x="716" 
d="M358 -205v164h-358v195l328 460h245v-460h123v-195h-123v-164h-215zM225 154h133v194z" />
    <glyph glyph-name="uni2085" unicode="&#x2085;" horiz-adv-x="737" 
d="M369 -215q-143 0 -231.5 74.5t-96.5 191.5h225q10 -72 103 -71q53 0 82.5 27.5t29.5 74.5q0 51 -31.5 76.5t-80.5 25.5q-70 0 -103 -51h-215l58 481h546v-194h-374l-13 -103h11q49 31 131 31q127 0 206.5 -69.5t79.5 -196.5q0 -129 -85.5 -213t-241.5 -84z" />
    <glyph glyph-name="uni2086" unicode="&#x2086;" horiz-adv-x="716" 
d="M358.5 -20q53.5 0 83 27.5t29.5 74.5t-29.5 74.5t-83 27.5t-83 -27.5t-29.5 -74.5t29.5 -74.5t83 -27.5zM358 -215q-162 0 -244.5 89t-82.5 228q0 117 82 246l174 266h241l-170 -245q152 0 240 -81t88 -196q0 -139 -88 -223t-240 -84z" />
    <glyph glyph-name="uni2087" unicode="&#x2087;" horiz-adv-x="624" 
d="M106 -205l283 625h-348v194h573v-194l-282 -625h-226z" />
    <glyph glyph-name="uni2088" unicode="&#x2088;" horiz-adv-x="737" 
d="M368.5 -31q51.5 0 77 23.5t25.5 58.5t-25.5 58.5t-77 23.5t-77 -23.5t-25.5 -58.5t25.5 -58.5t77 -23.5zM368.5 -215q-141.5 0 -229.5 67.5t-88 188.5q0 127 123 195q-102 51 -102 163q0 98 75.5 162t221 64t221.5 -63.5t76 -162.5q0 -113 -103 -163q123 -68 123 -195
q0 -121 -88 -188.5t-229.5 -67.5zM368.5 297q49.5 0 71 21.5t21.5 50t-21.5 50t-71 21.5t-71 -21.5t-21.5 -50t21.5 -50t71 -21.5z" />
    <glyph glyph-name="uni2089" unicode="&#x2089;" horiz-adv-x="716" 
d="M188 -205l170 246q-152 0 -239.5 81t-87.5 195q0 139 88 223.5t239 84.5q162 0 245 -89.5t83 -228.5q0 -117 -82 -246l-174 -266h-242zM358.5 225q53.5 0 83 28t29.5 75t-29.5 74.5t-83 27.5t-83 -27.5t-29.5 -74.5t29.5 -75t83 -28z" />
    <glyph glyph-name="uni20A9" unicode="&#x20a9;" horiz-adv-x="2076" 
d="M629 635h43l41 164h-105zM430 0l-76 328h-313v307h244l-37 164h-207v307h135l-74 328h420l43 -328h223l82 328h336l82 -328h223l43 328h420l-76 -328h138v-307h-207l-37 -164h244v-307h-316l-73 -328h-400l-84 328h-252l-82 -328h-399zM989 635h98l-40 164h-17zM1405 635
h43l22 164h-106z" />
    <glyph glyph-name="Euro" unicode="&#x20ac;" horiz-adv-x="1576" 
d="M891 -20q-248 0 -425 124.5t-241 346.5h-194v225h174v92h-174v225h198q66 215 242 338t420 123q268 0 432 -128t203 -343h-420q-84 113 -215 113q-137 0 -219 -103h332v-225h-420v-92h420v-225h-342q80 -113 229 -113q131 0 215 113h420q-39 -215 -203 -343t-432 -128z
" />
    <glyph glyph-name="uni20B4" unicode="&#x20b4;" horiz-adv-x="1351" 
d="M686 -20q-248 0 -395.5 94t-147.5 254q0 23 4.5 47t10.5 42.5t11 34t11 23.5l4 6h-112v185h1208v-185h-696q-31 -25 -31 -71q0 -43 34 -73t99 -30q127 0 143 82h410q-16 -186 -155.5 -297.5t-397.5 -111.5zM72 768v184h696q31 25 31 72q0 43 -34 72.5t-99 29.5
q-127 0 -144 -82h-409q16 186 155.5 298t397.5 112q248 0 395 -94t147 -254q0 -23 -4 -47.5t-10 -43t-11 -33.5t-12 -24l-4 -6h113v-184h-1208z" />
    <glyph glyph-name="uni20B8" unicode="&#x20b8;" horiz-adv-x="1331" 
d="M461 0v635h-400v348h1209v-348h-400v-635h-409zM61 1085v349h1209v-349h-1209z" />
    <glyph glyph-name="uni20B9" unicode="&#x20b9;" horiz-adv-x="1249" 
d="M696 0l-280 389h-355v297h392q166 0 192 102h-584v246h584q-25 102 -194 103h-390v297h1147v-297h-215q41 -31 51 -103h164v-246h-161q-12 -66 -41 -124t-60 -95t-60.5 -65.5t-47.5 -40.5l-19 -12l328 -451h-451z" />
    <glyph glyph-name="uni20BA" unicode="&#x20ba;" horiz-adv-x="1290" 
d="M225 0v424l-184 -68v287l184 68v92l-184 -68v287l184 68v344h400v-197l307 115v-287l-307 -115v-92l307 115v-287l-307 -115v-202q233 0 245 174h400q-8 -295 -181.5 -419t-504.5 -124h-359z" />
    <glyph glyph-name="uni20BD" unicode="&#x20bd;" horiz-adv-x="1341" 
d="M154 0v154h-134v297h134v81h-134v297h134v605h675q207 0 339 -121t132 -330t-131 -330t-329 -121h-277v-81h369v-297h-369v-154h-409zM563 829h205q59 0 91 34t32 89q0 49 -32 81t-91 32h-205v-236z" />
    <glyph glyph-name="uni20BF" unicode="&#x20bf;" horiz-adv-x="1392" 
d="M532 348h267q123 0 123 102.5t-123 102.5h-267v-205zM297 -225v225h-174v1434h174v225h297v-225h123v225h297v-240q145 -33 221 -133t76 -252q0 -102 -54.5 -185t-130.5 -122q205 -102 205 -328q0 -152 -80 -256t-237 -133v-235h-297v225h-123v-225h-297zM532 881h246
q123 0 123 102t-123 102h-246v-204z" />
    <glyph glyph-name="uni2113" unicode="&#x2113;" horiz-adv-x="890" 
d="M512 -20q-328 0 -328 337v103q-82 -31 -184 -31v205q45 0 91 10t69 21l24 10v502q0 154 88 235.5t220 81.5q147 0 242 -88t95 -281q0 -211 -128 -379.5t-302 -234.5v-154q0 -61 42 -97t112 -36q33 0 68.5 8.5t54.5 16.5l20 8v-215q-82 -22 -184 -22zM399 711
q96 59 150.5 161.5t54.5 212.5q0 78 -29.5 121t-82.5 43q-39 0 -66 -36.5t-27 -96.5v-405z" />
    <glyph glyph-name="uni2116" unicode="&#x2116;" horiz-adv-x="2406" 
d="M123 0v1434h512l420 -828v828h409v-1434h-512l-420 823v-823h-409zM1638 0v276h676v-276h-676zM1976.5 389q-159.5 0 -264 98.5t-104.5 270.5t104.5 270t264 98t264 -98t104.5 -270t-104.5 -270.5t-264 -98.5zM1976 645q45 0 68.5 32t23.5 81t-23.5 80.5t-68.5 31.5
t-68.5 -31.5t-23.5 -80.5t23.5 -81t68.5 -32z" />
    <glyph glyph-name="uni2117" unicode="&#x2117;" horiz-adv-x="1638" 
d="M819.5 -20q-323.5 0 -530.5 206.5t-207 530t207 530.5t530.5 207t530 -207t206.5 -530.5t-206.5 -530t-530 -206.5zM819 195q225 0 368.5 143t143.5 378.5t-143.5 379t-368.5 143.5t-368.5 -143.5t-143.5 -379t143.5 -378.5t368.5 -143zM532 338v768h328q141 0 214 -72.5
t73 -193.5t-73 -194t-214 -73h-112v-235h-216zM748 768h92q92 0 92 71.5t-92 71.5h-92v-143z" />
    <glyph glyph-name="trademark" unicode="&#x2122;" horiz-adv-x="1536" 
d="M205 799v430h-185v205h584v-205h-184v-430h-215zM666 799v635h303l86 -297h10l86 297h303v-635h-215v299h-10l-82 -299h-174l-82 299h-10v-299h-215z" />
    <glyph glyph-name="Omega" unicode="&#x2126;" horiz-adv-x="1699" 
d="M184 0v215h205l-14 10q-14 8 -38 29.5t-51.5 52.5t-57 78t-52 102.5t-38 131t-15.5 159.5q0 295 200.5 485.5t526.5 190.5t526.5 -190.5t200.5 -485.5q0 -84 -15.5 -159.5t-38 -131t-52 -102.5t-57.5 -78t-51.5 -52.5t-37.5 -29.5l-14 -10h205v-215h-533v215
q14 6 37.5 17.5t83 55.5t105.5 99t84 151.5t38 209.5q0 205 -127 348t-354 143t-354 -143.5t-127 -347.5q0 -113 35.5 -208.5t87 -152.5t102.5 -98t86 -58l37 -16v-215h-533z" />
    <glyph glyph-name="estimated" unicode="&#x212e;" horiz-adv-x="1740" 
d="M901 -41q-334 0 -556 214t-222 523.5t218 523.5t539.5 214t539.5 -214t218 -524v-10h-1179q-29 0 -29 -31v-403q0 -84 82 -135q178 -106 389 -107q100 0 192.5 29t154 68.5t107.5 80.5t66 70l23 29h112q-8 -14 -26.5 -36t-79.5 -78t-132 -99t-183.5 -79t-233.5 -36z
M459 737h844q29 0 28 31v379q0 84 -82 135q-190 100 -368.5 100t-368.5 -100q-82 -51 -82 -135v-379q0 -31 29 -31z" />
    <glyph glyph-name="uni2150" unicode="&#x2150;" horiz-adv-x="1617" 
d="M164 0l891 1434h215l-891 -1434h-215zM225 614v512h-184v195h133q51 0 51 51v62h215v-820h-215zM1028 -2l283 625h-348v194h573v-194l-283 -625h-225z" />
    <glyph glyph-name="uni2151" unicode="&#x2151;" horiz-adv-x="1607" 
d="M164 0l891 1434h215l-891 -1434h-215zM225 614v512h-184v195h133q51 0 51 51v62h215v-820h-215zM1049 2l170 246q-152 0 -240 81t-88 195q0 139 88 223t240 84q162 0 244.5 -89t82.5 -228q0 -117 -82 -246l-174 -266h-241zM1218.5 432q53.5 0 83 27.5t29.5 75t-29.5 75
t-83 27.5t-83 -27.5t-29.5 -75t29.5 -75t83 -27.5z" />
    <glyph glyph-name="uni2152" unicode="&#x2152;" horiz-adv-x="2211" 
d="M164 0l891 1434h215l-891 -1434h-215zM225 614v512h-184v195h133q51 0 51 51v62h215v-820h-215zM1122 0v512h-184v195h133q51 0 51 51v61h215v-819h-215zM1771.5 -10q-161.5 0 -260 111.5t-98.5 308t98.5 308t260 111.5t260 -111.5t98.5 -308t-98.5 -308t-260 -111.5z
M1771.5 184q71.5 0 107.5 60.5t36 165t-36 165t-107.5 60.5t-107.5 -60.5t-36 -165t36 -165t107.5 -60.5z" />
    <glyph glyph-name="onethird" unicode="&#x2153;" horiz-adv-x="1638" 
d="M164 0l891 1434h215l-891 -1434h-215zM225 614v512h-184v195h133q51 0 51 51v62h215v-820h-215zM1249 -10q-164 0 -245.5 68.5t-81.5 187.5h225q0 -20 24.5 -41t67.5 -21q39 0 65.5 20.5t26.5 51.5q0 72 -92 72h-51v184h51q41 0 61.5 20.5t20.5 40.5q0 25 -22.5 43.5
t-59.5 18.5q-92 0 -92 -72h-225q0 131 81.5 198.5t235.5 67.5q152 0 229.5 -66.5t77.5 -158.5q0 -125 -123 -174q133 -49 133 -184q0 -92 -71.5 -174t-235.5 -82z" />
    <glyph glyph-name="twothirds" unicode="&#x2154;" horiz-adv-x="1789" 
d="M315 0l891 1434h215l-891 -1434h-215zM41 614v195l276 246q37 33 49.5 46t28 37.5t15.5 49.5q0 61 -72 61t-72 -71h-225q0 266 307 266q139 0 213 -69.5t74 -176.5q0 -135 -139 -258l-158 -131h287v-195h-584zM1401 -10q-164 0 -246 68.5t-82 187.5h225q0 -20 25 -41
t68 -21q39 0 65.5 20.5t26.5 51.5q0 72 -92 72h-52v184h52q41 0 61.5 20.5t20.5 40.5q0 25 -23 43.5t-59 18.5q-92 0 -93 -72h-225q0 131 82 198.5t236 67.5q152 0 229.5 -66.5t77.5 -158.5q0 -125 -123 -174q133 -49 133 -184q0 -92 -71.5 -174t-235.5 -82z" />
    <glyph glyph-name="uni2155" unicode="&#x2155;" horiz-adv-x="1658" 
d="M164 0l891 1434h215l-891 -1434h-215zM225 614v512h-184v195h133q51 0 51 51v62h215v-820h-215zM1249 -10q-143 0 -231 74.5t-96 191.5h225q10 -72 102 -72q53 0 83 28t30 75q0 51 -32 76.5t-81 25.5q-70 0 -102 -51h-215l57 481h547v-194h-375l-12 -103h10q49 31 131 31
q127 0 207 -69.5t80 -196.5q0 -129 -86 -213t-242 -84z" />
    <glyph glyph-name="uni2156" unicode="&#x2156;" horiz-adv-x="1810" 
d="M315 0l891 1434h215l-891 -1434h-215zM41 614v195l276 246q37 33 49.5 46t28 37.5t15.5 49.5q0 61 -72 61t-72 -71h-225q0 266 307 266q139 0 213 -69.5t74 -176.5q0 -135 -139 -258l-158 -131h287v-195h-584zM1401 -10q-143 0 -231.5 74.5t-96.5 191.5h225
q10 -72 103 -72q53 0 82.5 28t29.5 75q0 51 -31.5 76.5t-80.5 25.5q-70 0 -103 -51h-215l58 481h547v-194h-375l-13 -103h11q49 31 131 31q127 0 207 -69.5t80 -196.5q0 -129 -86 -213t-242 -84z" />
    <glyph glyph-name="uni2157" unicode="&#x2157;" horiz-adv-x="1828" 
d="M334 0l891 1434h215l-891 -1434h-215zM368.5 604q-163.5 0 -245.5 68.5t-82 187.5h225q0 -20 24.5 -40.5t67.5 -20.5q39 0 66 20.5t27 50.5q0 72 -93 72h-51v184h51q41 0 61.5 20.5t20.5 41.5q0 25 -22.5 43t-59.5 18q-92 0 -92 -71h-225q0 131 82 198.5t235 67.5
q152 0 230 -66.5t78 -158.5q0 -125 -123 -175q133 -49 133 -184q0 -92 -72 -174t-235.5 -82zM1419 -10q-143 0 -231 74.5t-96 191.5h225q10 -72 102 -72q53 0 83 28t30 75q0 51 -32 76.5t-81 25.5q-70 0 -102 -51h-215l57 481h547v-194h-375l-12 -103h10q49 31 131 31
q127 0 207 -69.5t80 -196.5q0 -129 -86 -213t-242 -84z" />
    <glyph glyph-name="uni2158" unicode="&#x2158;" horiz-adv-x="1859" 
d="M365 0l890 1434h215l-890 -1434h-215zM379 614v164h-359v195l328 461h246v-461h123v-195h-123v-164h-215zM246 973h133v194zM1450 -10q-143 0 -231.5 74.5t-96.5 191.5h226q10 -72 102 -72q53 0 83 28t30 75q0 51 -32 76.5t-81 25.5q-70 0 -102 -51h-215l57 481h547v-194
h-375l-12 -103h10q49 31 131 31q127 0 207 -69.5t80 -196.5q0 -129 -86 -213t-242 -84z" />
    <glyph glyph-name="uni2159" unicode="&#x2159;" horiz-adv-x="1587" 
d="M164 0l891 1434h215l-891 -1434h-215zM225 614v512h-184v195h133q51 0 51 51v62h215v-820h-215zM1198 184q53 0 83 28t30 75t-30 74.5t-83 27.5t-83 -27.5t-30 -74.5t30 -75t83 -28zM1198 -10q-162 0 -245 89t-83 228q0 117 82 246l174 266h242l-170 -246
q152 0 240 -80.5t88 -195.5q0 -139 -88 -223t-240 -84z" />
    <glyph glyph-name="uni215A" unicode="&#x215a;" horiz-adv-x="1802" 
d="M379 0l891 1434h215l-891 -1434h-215zM389 604q-143 0 -231 75t-97 191h226q10 -72 102 -71q53 0 83 27.5t30 74.5q0 51 -32 77t-81 26q-70 0 -102 -52h-215l57 482h547v-195h-375l-12 -102h10q49 31 131 30q127 0 207 -69.5t80 -196.5q0 -129 -86 -213t-242 -84z
M1413 184q53 0 83 28t30 75t-30 74.5t-83 27.5t-83 -27.5t-30 -74.5t30 -75t83 -28zM1413 -10q-162 0 -245 89t-83 228q0 117 82 246l174 266h242l-170 -246q152 0 240 -80.5t88 -195.5q0 -139 -88 -223t-240 -84z" />
    <glyph glyph-name="oneeighth" unicode="&#x215b;" horiz-adv-x="1638" 
d="M164 0l891 1434h215l-891 -1434h-215zM225 614v512h-184v195h133q51 0 51 51v62h215v-820h-215zM1239 174q51 0 76.5 23.5t25.5 58.5t-25.5 58.5t-76.5 23.5t-76.5 -23.5t-25.5 -58.5t25.5 -58.5t76.5 -23.5zM1239 -10q-141 0 -229 67.5t-88 188.5q0 127 122 194
q-102 51 -102 164q0 98 76 161.5t221 63.5t221 -63.5t76 -161.5q0 -113 -102 -164q123 -68 122 -194q0 -121 -88 -188.5t-229 -67.5zM1239 502q49 0 70.5 21.5t21.5 50t-21.5 50t-70.5 21.5t-70.5 -21.5t-21.5 -50t21.5 -50t70.5 -21.5z" />
    <glyph glyph-name="threeeighths" unicode="&#x215c;" horiz-adv-x="1808" 
d="M334 0l891 1434h215l-891 -1434h-215zM368.5 604q-163.5 0 -245.5 68.5t-82 187.5h225q0 -20 24.5 -40.5t67.5 -20.5q39 0 66 20.5t27 50.5q0 72 -93 72h-51v184h51q41 0 61.5 20.5t20.5 41.5q0 25 -22.5 43t-59.5 18q-92 0 -92 -71h-225q0 131 82 198.5t235 67.5
q152 0 230 -66.5t78 -158.5q0 -125 -123 -175q133 -49 133 -184q0 -92 -72 -174t-235.5 -82zM1409 174q51 0 76.5 23.5t25.5 58.5t-25.5 58.5t-76.5 23.5t-76.5 -23.5t-25.5 -58.5t25.5 -58.5t76.5 -23.5zM1409 -10q-141 0 -229 67.5t-88 188.5q0 127 122 194
q-102 51 -102 164q0 98 76 161.5t221 63.5t221 -63.5t76 -161.5q0 -113 -102 -164q123 -68 122 -194q0 -121 -88 -188.5t-229 -67.5zM1409 502q49 0 70.5 21.5t21.5 50t-21.5 50t-70.5 21.5t-70.5 -21.5t-21.5 -50t21.5 -50t70.5 -21.5z" />
    <glyph glyph-name="fiveeighths" unicode="&#x215d;" horiz-adv-x="1853" 
d="M379 0l891 1434h215l-891 -1434h-215zM389 604q-143 0 -231 75t-97 191h226q10 -72 102 -71q53 0 83 27.5t30 74.5q0 51 -32 77t-81 26q-70 0 -102 -52h-215l57 482h547v-195h-375l-12 -102h10q49 31 131 30q127 0 207 -69.5t80 -196.5q0 -129 -86 -213t-242 -84z
M1454 174q51 0 76.5 23.5t25.5 58.5t-25.5 58.5t-76.5 23.5t-76.5 -23.5t-25.5 -58.5t25.5 -58.5t76.5 -23.5zM1454 -10q-141 0 -229 67.5t-88 188.5q0 127 123 194q-102 51 -103 164q0 98 76 161.5t221 63.5t221 -63.5t76 -161.5q0 -113 -102 -164q123 -68 123 -194
q0 -121 -88.5 -188.5t-229.5 -67.5zM1454 502q49 0 70.5 21.5t21.5 50t-21.5 50t-70.5 21.5t-70.5 -21.5t-21.5 -50t21.5 -50t70.5 -21.5z" />
    <glyph glyph-name="seveneighths" unicode="&#x215e;" horiz-adv-x="1646" 
d="M172 0l891 1434h215l-891 -1434h-215zM127 614l283 625h-349v195h574v-195l-283 -625h-225zM1247 174q51 0 77 23.5t26 58.5t-26 58.5t-77 23.5t-76.5 -23.5t-25.5 -58.5t25.5 -58.5t76.5 -23.5zM1247.5 -10q-141.5 0 -229.5 67.5t-88 188.5q0 127 123 194
q-102 51 -103 164q0 98 76 161.5t221.5 63.5t221 -63.5t75.5 -161.5q0 -113 -102 -164q123 -68 123 -194q0 -121 -88 -188.5t-229.5 -67.5zM1247 502q49 0 70.5 21.5t21.5 50t-21.5 50t-70.5 21.5t-70.5 -21.5t-21.5 -50t21.5 -50t70.5 -21.5z" />
    <glyph glyph-name="uni215F" unicode="&#x215f;" horiz-adv-x="901" 
d="M164 0l891 1434h215l-891 -1434h-215zM225 614v512h-184v195h133q51 0 51 51v62h215v-820h-215z" />
    <glyph glyph-name="arrowleft" unicode="&#x2190;" 
d="M748 266l-441 441v10l441 440l153 -153l-184 -185h1024v-215h-1024l184 -184z" />
    <glyph glyph-name="arrowup" unicode="&#x2191;" 
d="M911 0v1024l-184 -184l-154 153l441 441h10l440 -441l-153 -153l-185 184v-1024h-215z" />
    <glyph glyph-name="arrowright" unicode="&#x2192;" 
d="M1300 266l-153 154l184 184h-1024v215h1024l-184 185l153 153l441 -440v-10z" />
    <glyph glyph-name="arrowdown" unicode="&#x2193;" 
d="M1014 0l-441 440l154 154l184 -184v1024h215v-1024l185 184l153 -154l-440 -440h-10z" />
    <glyph glyph-name="arrowboth" unicode="&#x2194;" 
d="M707 266l-441 441v10l441 440l153 -153l-184 -185h696l-184 185l153 153l441 -440v-10l-441 -441l-153 154l184 184h-696l184 -184z" />
    <glyph glyph-name="arrowupdn" unicode="&#x2195;" 
d="M1014 -41l-441 440l154 154l184 -184v696l-184 -184l-154 153l441 441h10l440 -441l-153 -153l-185 184v-696l185 184l153 -154l-440 -440h-10z" />
    <glyph glyph-name="uni2196" unicode="&#x2196;" 
d="M1485 102l-860 861v-267h-215v615l20 20h614v-215h-266l860 -860z" />
    <glyph glyph-name="uni2197" unicode="&#x2197;" 
d="M563 102l-153 154l860 860h-266v215h614l20 -20v-615h-215v267z" />
    <glyph glyph-name="uni2198" unicode="&#x2198;" 
d="M1004 102v215h266l-860 861l153 153l860 -860v266h215v-614l-20 -21h-614z" />
    <glyph glyph-name="uni2199" unicode="&#x2199;" 
d="M430 102l-20 21v614h215v-266l860 860l153 -153l-860 -861h266v-215h-614z" />
    <glyph glyph-name="uni21C5" unicode="&#x21c5;" 
d="M573 0v1024l-184 -184l-153 153l440 441h10l440 -441l-153 -153l-185 184v-1024h-215zM1362 0l-440 440l153 154l185 -184v1024h215v-1024l184 184l153 -154l-440 -440h-10z" />
    <glyph glyph-name="uni21F5" unicode="&#x21f5;" 
d="M676 0l-440 440l153 154l184 -184v1024h215v-1024l185 184l153 -154l-440 -440h-10zM1260 0v1024l-185 -184l-153 153l440 441h10l440 -441l-153 -153l-184 184v-1024h-215z" />
    <glyph glyph-name="partialdiff" unicode="&#x2202;" horiz-adv-x="1187" 
d="M563 188q127 0 212 98.5t85 286.5q-4 6 -11 17.5t-34 39t-57.5 48t-79.5 38t-105 17.5q-121 0 -198.5 -69.5t-77.5 -194.5q0 -129 74.5 -205t191.5 -76zM563 -20q-229 0 -355 129t-126 360q0 209 123 341t327 132q197 0 324 -113h10q0 184 -86 302t-217 118
q-66 0 -117 -31.5t-75 -80.5h-228q29 129 130.5 223t289.5 94q244 0 383 -188.5t139 -548.5q0 -737 -522 -737z" />
    <glyph glyph-name="emptyset" unicode="&#x2205;" horiz-adv-x="1679" 
d="M422 393l674 797q-113 59 -256 59q-227 0 -364.5 -141t-137.5 -391q0 -191 84 -324zM840 -20q-229 0 -398 98l-73 -88h-287l192 229q-162 193 -161 498q0 336 197.5 536.5t529.5 200.5q225 0 397 -98l74 88h286l-194 -230q164 -199 164 -497q0 -336 -197.5 -536.5
t-529.5 -200.5zM840 184q227 0 364 141.5t137 391.5q0 190 -86 323l-673 -796q106 -60 258 -60z" />
    <glyph glyph-name="Delta" unicode="&#x2206;" horiz-adv-x="1331" 
d="M317 215h697l-348 973zM0 0l512 1434h307l512 -1434h-1331z" />
    <glyph glyph-name="product" unicode="&#x220f;" horiz-adv-x="1443" 
d="M164 -225v1659h1116v-1659h-246v1433h-624v-1433h-246z" />
    <glyph glyph-name="summation" unicode="&#x2211;" horiz-adv-x="1228" 
d="M123 -225v215l430 655l-430 574v215h1003v-226h-716l419 -563l-430 -645h727v-225h-1003z" />
    <glyph glyph-name="minus" unicode="&#x2212;" horiz-adv-x="1126" 
d="M61 502v286h1004v-286h-1004z" />
    <glyph glyph-name="radical" unicode="&#x221a;" horiz-adv-x="1382" 
d="M430 -225l-164 491h-235v215h409l164 -491h33l448 1495h246l-512 -1710h-389z" />
    <glyph glyph-name="infinity" unicode="&#x221e;" horiz-adv-x="1638" 
d="M461 565q137 0 235 152q-100 152 -235 151q-78 0 -121 -46t-43 -105.5t43 -105.5t121 -46zM461 356q-180 0 -279.5 100.5t-99.5 260.5t100.5 260t278.5 100q104 0 198.5 -61.5t159.5 -145.5q66 84 160 145.5t199 61.5q178 0 278 -100t100 -260t-99 -260.5t-279 -100.5
q-104 0 -199.5 61.5t-159.5 143.5q-63 -82 -158.5 -143.5t-199.5 -61.5zM1178 565q78 0 120.5 46t42.5 105.5t-43 105.5t-120 46q-135 0 -236 -151q99 -152 236 -152z" />
    <glyph glyph-name="integral" unicode="&#x222b;" horiz-adv-x="829" 
d="M82 -225v215h31q111 0 147.5 54t36.5 192v962q0 262 85 361.5t314 99.5h52v-215h-31q-111 0 -148 -54.5t-37 -191.5v-962q0 -262 -85 -361.5t-314 -99.5h-51z" />
    <glyph glyph-name="approxequal" unicode="&#x2248;" horiz-adv-x="1282" 
d="M82 174q0 166 95 288t263 122q86 0 187.5 -41t140.5 -41q88 0 102 82h330q0 -166 -95 -288t-263 -122q-84 0 -187.5 41t-142.5 41q-88 0 -102 -82h-328zM82 645q0 166 95 288t263 122q86 0 187.5 -41t140.5 -41q88 0 102 82h330q0 -166 -95 -288t-263 -122
q-84 0 -187.5 41t-142.5 41q-88 0 -102 -82h-328z" />
    <glyph glyph-name="notequal" unicode="&#x2260;" horiz-adv-x="1126" 
d="M190 123l60 133h-189v287h316l88 194h-404v287h531l59 133h285l-59 -133h188v-287h-315l-88 -194h403v-287h-530l-60 -133h-285z" />
    <glyph glyph-name="lessequal" unicode="&#x2264;" horiz-adv-x="1024" 
d="M51 0v266h922v-266h-922zM973 287l-922 358v266l922 359v-297l-543 -195l543 -194v-297z" />
    <glyph glyph-name="greaterequal" unicode="&#x2265;" horiz-adv-x="1024" 
d="M51 0v266h922v-266h-922zM51 287v297l543 194l-543 195v297l922 -359v-266z" />
    <glyph glyph-name="uni2318" unicode="&#x2318;" horiz-adv-x="1679" 
d="M430 201q55 0 87 35.5t32 91.5v108h-111q-57 0 -91 -34.5t-34 -84.5q0 -53 32 -84.5t85 -31.5zM420 0q-152 0 -235 91t-83 216q0 135 89.5 221t246.5 86h111v205h-111q-158 0 -247 86t-89 221q0 125 83 216.5t235 91.5q156 0 236.5 -91.5t80.5 -236.5v-109h205v109
q0 145 81 236.5t237 91.5q152 0 234.5 -91.5t82.5 -216.5q0 -135 -89 -221t-247 -86h-111v-205h111q158 0 247 -86t89 -221q0 -125 -83 -216t-234 -91q-156 0 -237 91t-81 237v108h-205v-108q0 -145 -80.5 -236.5t-236.5 -91.5zM737 614h205v205h-205v-205zM438 997h111v109
q0 55 -32 91t-87 36q-53 0 -85 -32t-32 -85q0 -49 34 -84t91 -35zM1249 201q53 0 85 31.5t32 84.5q0 49 -34 84t-91 35h-111v-108q0 -55 32 -91t87 -36zM1130 997h111q57 0 91 35t34 84q0 53 -31.5 85t-85.5 32q-55 0 -87 -36t-32 -91v-109z" />
    <glyph glyph-name="uni2460" unicode="&#x2460;" 
d="M942 307v512h-184v195h133q51 0 51 51v61h215v-819h-215zM1024 -184q-377 0 -639 262t-262 639t262 639t639 262t639 -262t262 -639t-262 -639t-639 -262zM1024 -10q307 0 517 209t210 518q0 307 -210 517t-517 210t-517 -210t-210 -517t210 -517t517 -210z" />
    <glyph glyph-name="uni2461" unicode="&#x2461;" 
d="M737 307v195l277 246q37 33 49 46t27.5 37.5t15.5 49.5q0 61 -71.5 61t-71.5 -72h-226q0 266 307 267q139 0 213 -70t74 -176q0 -135 -139 -258l-158 -131h287v-195h-584zM1024 -184q-377 0 -639 262t-262 639t262 639t639 262t639 -262t262 -639t-262 -639t-639 -262z
M1024 -10q307 0 517 209t210 518q0 307 -210 517t-517 210t-517 -210t-210 -517t210 -517t517 -210z" />
    <glyph glyph-name="uni2462" unicode="&#x2462;" 
d="M1044.5 297q-163.5 0 -245.5 68.5t-82 187.5h225q0 -20 24.5 -40.5t67.5 -20.5q39 0 65.5 20t26.5 51q0 72 -92 72h-51v184h51q41 0 61.5 20.5t20.5 41.5q0 25 -22.5 43t-59.5 18q-92 0 -92 -72h-225q0 131 82 199t235 68q152 0 229.5 -66.5t77.5 -159.5
q0 -125 -122 -174q133 -49 133 -184q0 -92 -72 -174t-235.5 -82zM1024 -184q-377 0 -639 262t-262 639t262 639t639 262t639 -262t262 -639t-262 -639t-639 -262zM1024 -10q307 0 517 209t210 518q0 307 -210 517t-517 210t-517 -210t-210 -517t210 -517t517 -210z" />
    <glyph glyph-name="uni2463" unicode="&#x2463;" 
d="M1004 307v164h-359v195l328 460h246v-460h122v-195h-122v-164h-215zM870 666h134v194zM1024 -184q-377 0 -639 262t-262 639t262 639t639 262t639 -262t262 -639t-262 -639t-639 -262zM1024 -10q307 0 517 209t210 518q0 307 -210 517t-517 210t-517 -210t-210 -517
t210 -517t517 -210z" />
    <glyph glyph-name="uni2464" unicode="&#x2464;" 
d="M1034 297q-143 0 -231 74.5t-96 191.5h225q10 -72 102 -71q53 0 83 27.5t30 74.5q0 51 -32 76.5t-81 25.5q-70 0 -102 -51h-215l57 481h547v-194h-375l-12 -103h10q49 31 131 31q127 0 207 -69.5t80 -196.5q0 -129 -86 -213t-242 -84zM1024 -184q-377 0 -639 262
t-262 639t262 639t639 262t639 -262t262 -639t-262 -639t-639 -262zM1024 -10q307 0 517 209t210 518q0 307 -210 517t-517 210t-517 -210t-210 -517t210 -517t517 -210z" />
    <glyph glyph-name="uni2465" unicode="&#x2465;" 
d="M1024 492q53 0 83 27.5t30 74.5t-30 74.5t-83 27.5t-83 -27.5t-30 -74.5t30 -74.5t83 -27.5zM1024 297q-162 0 -245 89t-83 228q0 117 82 246l174 266h242l-170 -245q152 0 240 -81t88 -196q0 -139 -88 -223t-240 -84zM1024 -184q-377 0 -639 262t-262 639t262 639
t639 262t639 -262t262 -639t-262 -639t-639 -262zM1024 -10q307 0 517 209t210 518q0 307 -210 517t-517 210t-517 -210t-210 -517t210 -517t517 -210z" />
    <glyph glyph-name="uni2466" unicode="&#x2466;" 
d="M813 307l283 625h-348v194h573v-194l-283 -625h-225zM1024 -184q-377 0 -639 262t-262 639t262 639t639 262t639 -262t262 -639t-262 -639t-639 -262zM1024 -10q307 0 517 209t210 518q0 307 -210 517t-517 210t-517 -210t-210 -517t210 -517t517 -210z" />
    <glyph glyph-name="uni2467" unicode="&#x2467;" 
d="M1024 481q51 0 76.5 23.5t25.5 58.5t-25.5 58.5t-76.5 23.5t-76.5 -23.5t-25.5 -58.5t25.5 -58.5t76.5 -23.5zM1024 297q-141 0 -229 67.5t-88 188.5q0 127 122 195q-102 51 -102 163q0 98 76 162t221 64t221 -63.5t76 -162.5q0 -113 -102 -163q123 -68 122 -195
q0 -121 -88 -188.5t-229 -67.5zM1024 809q49 0 70.5 21.5t21.5 50t-21.5 50t-70.5 21.5t-70.5 -21.5t-21.5 -50t21.5 -50t70.5 -21.5zM1024 -184q-377 0 -639 262t-262 639t262 639t639 262t639 -262t262 -639t-262 -639t-639 -262zM1024 -10q307 0 517 209t210 518
q0 307 -210 517t-517 210t-517 -210t-210 -517t210 -517t517 -210z" />
    <glyph glyph-name="uni2468" unicode="&#x2468;" 
d="M854 307l170 246q-152 0 -240 81t-88 195q0 139 88 223.5t240 84.5q162 0 245 -89.5t83 -228.5q0 -117 -82 -246l-174 -266h-242zM1024 737q53 0 83 28t30 75t-30 74.5t-83 27.5t-83 -27.5t-30 -74.5t30 -75t83 -28zM1024 -184q-377 0 -639 262t-262 639t262 639t639 262
t639 -262t262 -639t-262 -639t-639 -262zM1024 -10q307 0 517 209t210 518q0 307 -210 517t-517 210t-517 -210t-210 -517t210 -517t517 -210z" />
    <glyph glyph-name="uni2469" unicode="&#x2469;" 
d="M614 307v512h-184v195h133q51 0 51 51v61h215v-819h-215zM1259.5 297q-161.5 0 -260 111.5t-98.5 308t98.5 308.5t260 112t260 -112t98.5 -308.5t-98.5 -308t-260 -111.5zM1259.5 492q71.5 0 107.5 60t36 164.5t-36 165t-107.5 60.5t-107.5 -60.5t-36 -165t36 -164.5
t107.5 -60zM1024 -184q-377 0 -639 262t-262 639t262 639t639 262t639 -262t262 -639t-262 -639t-639 -262zM1024 -10q307 0 517 209t210 518q0 307 -210 517t-517 210t-517 -210t-210 -517t210 -517t517 -210z" />
    <glyph glyph-name="uni246A" unicode="&#x246a;" 
d="M707 307v512h-185v195h133q51 0 52 51v61h215v-819h-215zM1198 307v512h-184v195h133q51 0 51 51v61h215v-819h-215zM1024 -184q-377 0 -639 262t-262 639t262 639t639 262t639 -262t262 -639t-262 -639t-639 -262zM1024 -10q307 0 517 209t210 518q0 307 -210 517
t-517 210t-517 -210t-210 -517t210 -517t517 -210z" />
    <glyph glyph-name="uni246B" unicode="&#x246b;" 
d="M635 307v512h-184v195h133q51 0 51 51v61h215v-819h-215zM942 307v195l277 246q37 33 49 46t27.5 37.5t15.5 49.5q0 61 -72 61t-72 -72h-225q0 266 307 267q139 0 213 -70t74 -176q0 -135 -139 -258l-158 -131h287v-195h-584zM1024 -184q-377 0 -639 262t-262 639
t262 639t639 262t639 -262t262 -639t-262 -639t-639 -262zM1024 -10q307 0 517 209t210 518q0 307 -210 517t-517 210t-517 -210t-210 -517t210 -517t517 -210z" />
    <glyph glyph-name="uni246C" unicode="&#x246c;" 
d="M635 307v512h-184v195h133q51 0 51 51v61h215v-819h-215zM1245 297q-164 0 -245.5 68.5t-81.5 187.5h225q0 -20 24.5 -40.5t67.5 -20.5q39 0 65.5 20t26.5 51q0 72 -92 72h-51v184h51q41 0 61.5 20.5t20.5 41.5q0 25 -22.5 43t-59.5 18q-92 0 -92 -72h-225
q0 131 81.5 199t235.5 68q152 0 229.5 -66.5t77.5 -159.5q0 -125 -123 -174q133 -49 133 -184q0 -92 -71.5 -174t-235.5 -82zM1024 -184q-377 0 -639 262t-262 639t262 639t639 262t639 -262t262 -639t-262 -639t-639 -262zM1024 -10q307 0 517 209t210 518q0 307 -210 517
t-517 210t-517 -210t-210 -517t210 -517t517 -210z" />
    <glyph glyph-name="uni246D" unicode="&#x246d;" 
d="M635 307v512h-184v195h133q51 0 51 51v61h215v-819h-215zM1260 307v164h-359v195l328 460h246v-460h122v-195h-122v-164h-215zM1126 666h134v194zM1024 -184q-377 0 -639 262t-262 639t262 639t639 262t639 -262t262 -639t-262 -639t-639 -262zM1024 -10q307 0 517 209
t210 518q0 307 -210 517t-517 210t-517 -210t-210 -517t210 -517t517 -210z" />
    <glyph glyph-name="uni246E" unicode="&#x246e;" 
d="M635 307v512h-184v195h133q51 0 51 51v61h215v-819h-215zM1249 297q-143 0 -231 74.5t-96 191.5h225q10 -72 102 -71q53 0 83 27.5t30 74.5q0 51 -32 76.5t-81 25.5q-70 0 -102 -51h-215l57 481h547v-194h-375l-12 -103h10q49 31 131 31q127 0 207 -69.5t80 -196.5
q0 -129 -86 -213t-242 -84zM1024 -184q-377 0 -639 262t-262 639t262 639t639 262t639 -262t262 -639t-262 -639t-639 -262zM1024 -10q307 0 517 209t210 518q0 307 -210 517t-517 210t-517 -210t-210 -517t210 -517t517 -210z" />
    <glyph glyph-name="uni246F" unicode="&#x246f;" 
d="M635 307v512h-184v195h133q51 0 51 51v61h215v-819h-215zM1249.5 492q53.5 0 83 27.5t29.5 74.5t-29.5 74.5t-83 27.5t-83 -27.5t-29.5 -74.5t29.5 -74.5t83 -27.5zM1249 297q-162 0 -244.5 89t-82.5 228q0 117 82 246l174 266h241l-170 -245q152 0 240 -81t88 -196
q0 -139 -88 -223t-240 -84zM1024 -184q-377 0 -639 262t-262 639t262 639t639 262t639 -262t262 -639t-262 -639t-639 -262zM1024 -10q307 0 517 209t210 518q0 307 -210 517t-517 210t-517 -210t-210 -517t210 -517t517 -210z" />
    <glyph glyph-name="uni2470" unicode="&#x2470;" 
d="M635 307v512h-184v195h133q51 0 51 51v61h215v-819h-215zM1018 307l282 625h-348v194h574v-194l-283 -625h-225zM1024 -184q-377 0 -639 262t-262 639t262 639t639 262t639 -262t262 -639t-262 -639t-639 -262zM1024 -10q307 0 517 209t210 518q0 307 -210 517t-517 210
t-517 -210t-210 -517t210 -517t517 -210z" />
    <glyph glyph-name="uni2471" unicode="&#x2471;" 
d="M635 307v512h-184v195h133q51 0 51 51v61h215v-819h-215zM1249 481q51 0 77 23.5t26 58.5t-26 58.5t-77 23.5t-76.5 -23.5t-25.5 -58.5t25.5 -58.5t76.5 -23.5zM1249.5 297q-141.5 0 -229.5 67.5t-88 188.5q0 127 123 195q-102 51 -103 163q0 98 76 162t221.5 64
t221 -63.5t75.5 -162.5q0 -113 -102 -163q123 -68 123 -195q0 -121 -88 -188.5t-229.5 -67.5zM1249 809q49 0 70.5 21.5t21.5 50t-21.5 50t-70.5 21.5t-70.5 -21.5t-21.5 -50t21.5 -50t70.5 -21.5zM1024 -184q-377 0 -639 262t-262 639t262 639t639 262t639 -262t262 -639
t-262 -639t-639 -262zM1024 -10q307 0 517 209t210 518q0 307 -210 517t-517 210t-517 -210t-210 -517t210 -517t517 -210z" />
    <glyph glyph-name="uni2472" unicode="&#x2472;" 
d="M635 307v512h-184v195h133q51 0 51 51v61h215v-819h-215zM1079 307l170 246q-152 0 -239.5 81t-87.5 195q0 139 88 223.5t239 84.5q162 0 245 -89.5t83 -228.5q0 -117 -82 -246l-174 -266h-242zM1249.5 737q53.5 0 83 28t29.5 75t-29.5 74.5t-83 27.5t-83 -27.5
t-29.5 -74.5t29.5 -75t83 -28zM1024 -184q-377 0 -639 262t-262 639t262 639t639 262t639 -262t262 -639t-262 -639t-639 -262zM1024 -10q307 0 517 209t210 518q0 307 -210 517t-517 210t-517 -210t-210 -517t210 -517t517 -210z" />
    <glyph glyph-name="uni2473" unicode="&#x2473;" 
d="M379 307h584v195h-287l158 131q139 123 139 258q0 106 -74 176t-213 70q-307 0 -307 -267h225q0 72 72 72t72 -61q0 -25 -15.5 -49.5t-28 -38t-49.5 -45.5l-276 -246v-195zM1341.5 297q-161.5 0 -260 111.5t-98.5 308t98.5 308.5t260 112t260 -112t98.5 -308.5
t-98.5 -308t-260 -111.5zM1341.5 492q71.5 0 107.5 60t36 164.5t-36 165t-107.5 60.5t-107.5 -60.5t-36 -165t36 -164.5t107.5 -60zM1024 -184q-377 0 -639 262t-262 639t262 639t639 262t639 -262t262 -639t-262 -639t-639 -262zM1024 -10q307 0 517 209t210 518
q0 307 -210 517t-517 210t-517 -210t-210 -517t210 -517t517 -210z" />
    <glyph glyph-name="uni24EA" unicode="&#x24ea;" 
d="M1022 297q-162 0 -260 111.5t-98 308t98 308.5t260 112t260 -112t98 -308.5t-98 -308t-260 -111.5zM1022 492q72 0 107.5 60t35.5 164.5t-35.5 165t-107.5 60.5t-107.5 -60.5t-35.5 -165t35.5 -164.5t107.5 -60zM1024 -184q-377 0 -639 262t-262 639t262 639t639 262
t639 -262t262 -639t-262 -639t-639 -262zM1024 -10q307 0 517 209t210 518q0 307 -210 517t-517 210t-517 -210t-210 -517t210 -517t517 -210z" />
    <glyph glyph-name="uni24EB" unicode="&#x24eb;" 
d="M707 307h215v819h-215v-61q0 -51 -52 -51h-133v-195h185v-512zM1024 -184q-377 0 -639 262t-262 639t262 639t639 262t639 -262t262 -639t-262 -639t-639 -262zM1198 307h215v819h-215v-61q0 -51 -51 -51h-133v-195h184v-512z" />
    <glyph glyph-name="uni24EC" unicode="&#x24ec;" 
d="M635 307h215v819h-215v-61q0 -51 -51 -51h-133v-195h184v-512zM1024 -184q-377 0 -639 262t-262 639t262 639t639 262t639 -262t262 -639t-262 -639t-639 -262zM942 307h584v195h-287l158 131q139 123 139 258q0 106 -73.5 176t-213.5 70q-307 0 -307 -267h225
q0 72 72 72t72 -61q0 -25 -15.5 -49.5t-28 -38t-48.5 -45.5l-277 -246v-195z" />
    <glyph glyph-name="uni24ED" unicode="&#x24ed;" 
d="M635 307h215v819h-215v-61q0 -51 -51 -51h-133v-195h184v-512zM1024 -184q-377 0 -639 262t-262 639t262 639t639 262t639 -262t262 -639t-262 -639t-639 -262zM1245 297q164 0 235.5 82t71.5 174q0 135 -133 184q123 49 123 174q0 92 -78 159t-229 67q-317 0 -317 -267
h225q0 72 92 72q37 0 59.5 -18.5t22.5 -42.5q0 -20 -20.5 -41t-61.5 -21h-51v-184h51q92 0 92 -72q0 -31 -26.5 -51t-65.5 -20q-43 0 -67.5 20t-24.5 41h-225q0 -119 81.5 -187.5t245.5 -68.5z" />
    <glyph glyph-name="uni24EE" unicode="&#x24ee;" 
d="M635 307h215v819h-215v-61q0 -51 -51 -51h-133v-195h184v-512zM1024 -184q-377 0 -639 262t-262 639t262 639t639 262t639 -262t262 -639t-262 -639t-639 -262zM1260 307h215v164h122v195h-122v460h-246l-328 -460v-195h359v-164zM1126 666l134 194v-194h-134z" />
    <glyph glyph-name="uni24EF" unicode="&#x24ef;" 
d="M635 307h215v819h-215v-61q0 -51 -51 -51h-133v-195h184v-512zM1024 -184q-377 0 -639 262t-262 639t262 639t639 262t639 -262t262 -639t-262 -639t-639 -262zM1249 297q156 0 242 84t86 213q0 127 -80 196.5t-207 69.5q-37 0 -69.5 -8t-46.5 -16l-15 -7h-10l12 103h375
v194h-547l-57 -481h215q33 51 102 51q49 0 81 -25.5t32 -76.5q0 -47 -29.5 -74.5t-83.5 -27.5q-92 0 -102 71h-225q8 -117 96 -191.5t231 -74.5z" />
    <glyph glyph-name="uni24F0" unicode="&#x24f0;" 
d="M635 307h215v819h-215v-61q0 -51 -51 -51h-133v-195h184v-512zM1024 -184q-377 0 -639 262t-262 639t262 639t639 262t639 -262t262 -639t-262 -639t-639 -262zM1249 297q152 0 240 84t88 223q0 115 -88 196t-240 81l170 245h-241l-174 -266q-82 -129 -82 -246
q0 -139 82.5 -228t244.5 -89zM1249.5 492q-53.5 0 -83 27.5t-29.5 74.5t29.5 74.5t83 27.5t83 -27.5t29.5 -74.5t-29.5 -74.5t-83 -27.5z" />
    <glyph glyph-name="uni24F1" unicode="&#x24f1;" 
d="M635 307h215v819h-215v-61q0 -51 -51 -51h-133v-195h184v-512zM1024 -184q-377 0 -639 262t-262 639t262 639t639 262t639 -262t262 -639t-262 -639t-639 -262zM1018 307h225l283 625v194h-574v-194h348z" />
    <glyph glyph-name="uni24F2" unicode="&#x24f2;" 
d="M635 307h215v819h-215v-61q0 -51 -51 -51h-133v-195h184v-512zM1024 -184q-377 0 -639 262t-262 639t262 639t639 262t639 -262t262 -639t-262 -639t-639 -262zM1249.5 297q141.5 0 229.5 67.5t88 188.5q0 127 -123 195q102 51 102 163q0 98 -75.5 162t-221 64
t-221.5 -63.5t-76 -162.5q0 -113 103 -163q-123 -68 -123 -195q0 -121 88 -188.5t229.5 -67.5zM1249 481q-51 0 -76.5 23.5t-25.5 58.5t25.5 58.5t76.5 23.5t77 -23.5t26 -58.5t-26 -58.5t-77 -23.5zM1249 809q-49 0 -70.5 21.5t-21.5 50t21.5 50t70.5 21.5t70.5 -21.5
t21.5 -50t-21.5 -50t-70.5 -21.5z" />
    <glyph glyph-name="uni24F3" unicode="&#x24f3;" 
d="M635 307h215v819h-215v-61q0 -51 -51 -51h-133v-195h184v-512zM1024 -184q-377 0 -639 262t-262 639t262 639t639 262t639 -262t262 -639t-262 -639t-639 -262zM1079 307h242l174 266q82 129 82 246q0 139 -83 228.5t-245 89.5q-152 0 -239.5 -84t-87.5 -224
q0 -115 88 -195.5t239 -80.5zM1249.5 737q-53.5 0 -83 28t-29.5 75t29.5 74.5t83 27.5t83 -27.5t29.5 -74.5t-29.5 -75t-83 -28z" />
    <glyph glyph-name="uni24F4" unicode="&#x24f4;" 
d="M399 307h584v195h-287l158 131q139 123 139 258q0 106 -73.5 176t-212.5 70q-307 0 -308 -267h226q0 72 71.5 72t71.5 -61q0 -25 -15.5 -49.5t-27.5 -38t-49 -45.5l-277 -246v-195zM1024 -184q-377 0 -639 262t-262 639t262 639t639 262t639 -262t262 -639t-262 -639
t-639 -262zM1362 297q162 0 260 111.5t98 308t-98 308.5t-260 112t-260 -112t-98 -308.5t98 -308t260 -111.5zM1362 492q-72 0 -107.5 60t-35.5 164.5t35.5 165t107.5 60.5t107.5 -60.5t35.5 -165t-35.5 -164.5t-107.5 -60z" />
    <glyph glyph-name="uni24FF" unicode="&#x24ff;" 
d="M1024 -184q-377 0 -639 262t-262 639t262 639t639 262t639 -262t262 -639t-262 -639t-639 -262zM1022 297q162 0 260 111.5t98 308t-98 308.5t-260 112t-260 -112t-98 -308.5t98 -308t260 -111.5zM1022 492q-72 0 -107.5 60t-35.5 164.5t35.5 165t107.5 60.5t107.5 -60.5
t35.5 -165t-35.5 -164.5t-107.5 -60z" />
    <glyph glyph-name="lozenge" unicode="&#x25ca;" horiz-adv-x="1228" 
d="M522 0l-461 717l461 717h185l460 -717l-460 -717h-185zM614 236l308 481l-308 481l-307 -481z" />
    <glyph glyph-name="uni2776" unicode="&#x2776;" 
d="M942 307h215v819h-215v-61q0 -51 -51 -51h-133v-195h184v-512zM1024 -184q-377 0 -639 262t-262 639t262 639t639 262t639 -262t262 -639t-262 -639t-639 -262z" />
    <glyph glyph-name="uni2777" unicode="&#x2777;" 
d="M1024 -184q-377 0 -639 262t-262 639t262 639t639 262t639 -262t262 -639t-262 -639t-639 -262zM737 307h584v195h-287l158 131q139 123 139 258q0 106 -73.5 176t-213.5 70q-307 0 -307 -267h226q0 72 71.5 72t71.5 -61q0 -25 -15.5 -49.5t-27.5 -38t-49 -45.5
l-277 -246v-195z" />
    <glyph glyph-name="uni2778" unicode="&#x2778;" 
d="M1024 -184q-377 0 -639 262t-262 639t262 639t639 262t639 -262t262 -639t-262 -639t-639 -262zM1044.5 297q163.5 0 235.5 82t72 174q0 135 -133 184q123 49 122 174q0 92 -77.5 159t-229.5 67q-317 0 -317 -267h225q0 72 92 72q37 0 59.5 -18.5t22.5 -42.5
q0 -20 -20.5 -41t-61.5 -21h-51v-184h51q92 0 92 -72q0 -31 -26.5 -51t-65.5 -20q-43 0 -67.5 20t-24.5 41h-225q0 -119 82 -187.5t245.5 -68.5z" />
    <glyph glyph-name="uni2779" unicode="&#x2779;" 
d="M870 666l134 194v-194h-134zM1004 307h215v164h122v195h-122v460h-246l-328 -460v-195h359v-164zM1024 -184q-377 0 -639 262t-262 639t262 639t639 262t639 -262t262 -639t-262 -639t-639 -262z" />
    <glyph glyph-name="uni277A" unicode="&#x277a;" 
d="M1024 -184q-377 0 -639 262t-262 639t262 639t639 262t639 -262t262 -639t-262 -639t-639 -262zM1034 297q156 0 242 84t86 213q0 127 -80 196.5t-207 69.5q-37 0 -69.5 -8t-47.5 -16l-14 -7h-10l12 103h375v194h-547l-57 -481h215q33 51 102 51q49 0 81 -25.5t32 -76.5
q0 -47 -30 -74.5t-83 -27.5q-92 0 -102 71h-225q8 -117 96 -191.5t231 -74.5z" />
    <glyph glyph-name="uni277B" unicode="&#x277b;" 
d="M1024 492q-53 0 -83 27.5t-30 74.5t30 74.5t83 27.5t83 -27.5t30 -74.5t-30 -74.5t-83 -27.5zM1024 297q152 0 240 84t88 223q0 115 -88 196t-240 81l170 245h-242l-174 -266q-82 -129 -82 -246q0 -139 83 -228t245 -89zM1024 -184q-377 0 -639 262t-262 639t262 639
t639 262t639 -262t262 -639t-262 -639t-639 -262z" />
    <glyph glyph-name="uni277C" unicode="&#x277c;" 
d="M1024 -184q-377 0 -639 262t-262 639t262 639t639 262t639 -262t262 -639t-262 -639t-639 -262zM813 307h225l283 625v194h-573v-194h348z" />
    <glyph glyph-name="uni277D" unicode="&#x277d;" 
d="M1024 -184q-377 0 -639 262t-262 639t262 639t639 262t639 -262t262 -639t-262 -639t-639 -262zM1024 297q141 0 229 67.5t88 188.5q0 127 -122 195q102 51 102 163q0 98 -76 162t-221 64t-221 -63.5t-76 -162.5q0 -113 102 -163q-123 -68 -122 -195q0 -121 88 -188.5
t229 -67.5zM1024 481q-51 0 -76.5 23.5t-25.5 58.5t25.5 58.5t76.5 23.5t76.5 -23.5t25.5 -58.5t-25.5 -58.5t-76.5 -23.5zM1024 809q-49 0 -70.5 21.5t-21.5 50t21.5 50t70.5 21.5t70.5 -21.5t21.5 -50t-21.5 -50t-70.5 -21.5z" />
    <glyph glyph-name="uni277E" unicode="&#x277e;" 
d="M1024 -184q-377 0 -639 262t-262 639t262 639t639 262t639 -262t262 -639t-262 -639t-639 -262zM854 307h242l174 266q82 129 82 246q0 139 -83 228.5t-245 89.5q-152 0 -240 -84t-88 -224q0 -115 88 -195.5t240 -80.5zM1024 737q-53 0 -83 28t-30 75t30 74.5t83 27.5
t83 -27.5t30 -74.5t-30 -75t-83 -28z" />
    <glyph glyph-name="uni277F" unicode="&#x277f;" 
d="M614 307h215v819h-215v-61q0 -51 -51 -51h-133v-195h184v-512zM1024 -184q-377 0 -639 262t-262 639t262 639t639 262t639 -262t262 -639t-262 -639t-639 -262zM1259.5 297q161.5 0 260 111.5t98.5 308t-98.5 308.5t-260 112t-260 -112t-98.5 -308.5t98.5 -308
t260 -111.5zM1259.5 492q-71.5 0 -107.5 60t-36 164.5t36 165t107.5 60.5t107.5 -60.5t36 -165t-36 -164.5t-107.5 -60z" />
    <glyph glyph-name="uni2921" unicode="&#x2921;" 
d="M1065 41v215h266l-768 768v-266h-215v614l21 21h614v-215h-266l768 -768v266h215v-615l-21 -20h-614z" />
    <glyph glyph-name="uni2922" unicode="&#x2922;" 
d="M369 41l-21 20v615h215v-266l768 768h-266v215h614l21 -21v-614h-215v266l-768 -768h266v-215h-614z" />
    <glyph glyph-name="uniE000" unicode="&#xe000;" 
d="M1024 0l-440 440v11l440 440l154 -154l-185 -184h420q92 0 92 82v502q0 82 -92 82h-1096v215h1096q137 0 222 -83t85 -214v-502q0 -131 -85 -214t-222 -83h-420l185 -184z" />
    <glyph glyph-name="uniE001" unicode="&#xe001;" 
d="M625 0q-137 0 -222.5 83t-85.5 214v502q0 131 85 214t223 83h419l-184 184l154 154l440 -441v-10l-440 -440l-154 153l184 185h-419q-92 0 -93 -82v-502q0 -82 93 -82h1095v-215h-1095z" />
    <glyph glyph-name="uniE002" unicode="&#xe002;" 
d="M1225 205l-600 518v8l600 518l143 -164l-410 -354v-8l410 -354z" />
    <glyph glyph-name="uniE003" unicode="&#xe003;" 
d="M666 399l-164 144l518 600h8l518 -600l-164 -144l-354 410h-8z" />
    <glyph glyph-name="uniE004" unicode="&#xe004;" 
d="M823 205l-143 164l410 354v8l-410 354l143 164l600 -518v-8z" />
    <glyph glyph-name="uniE005" unicode="&#xe005;" 
d="M1020 322l-518 600l164 143l354 -410h8l354 410l164 -143l-518 -600h-8z" />
    <glyph glyph-name="uniE006" unicode="&#xe006;" 
d="M948 205l-600 518v8l600 518l144 -164l-410 -354v-8l410 -354zM1464 205l-600 518v8l600 518l144 -164l-410 -354v-8l410 -354z" />
    <glyph glyph-name="uniE007" unicode="&#xe007;" 
d="M666 129l-164 143l518 600h8l518 -600l-164 -143l-354 410h-8zM666 645l-164 143l518 601h8l518 -601l-164 -143l-354 410h-8z" />
    <glyph glyph-name="uniE008" unicode="&#xe008;" 
d="M584 205l-144 164l410 354v8l-410 354l144 164l600 -518v-8zM1100 205l-144 164l410 354v8l-410 354l144 164l600 -518v-8z" />
    <glyph glyph-name="uniE009" unicode="&#xe009;" 
d="M1020 61l-518 601l164 143l354 -410h8l354 410l164 -143l-518 -601h-8zM1020 578l-518 600l164 143l354 -410h8l354 410l164 -143l-518 -600h-8z" />
    <glyph glyph-name="uniE00A" unicode="&#xe00a;" 
d="M1118 328l-446 385v8l446 385l144 -164l-256 -221v-8l256 -221zM1024 -20q-315 0 -526 210.5t-211 526t211 526.5t526 211t526 -211t211 -526.5t-211 -526t-526 -210.5zM1024 195q223 0 372.5 149.5t149.5 372.5t-149.5 372.5t-372.5 149.5t-372.5 -149.5t-149.5 -372.5
t149.5 -372.5t372.5 -149.5z" />
    <glyph glyph-name="uniE00B" unicode="&#xe00b;" 
d="M1024 -20q-315 0 -526 210.5t-211 526t211 526.5t526 211t526 -211t211 -526.5t-211 -526t-526 -210.5zM1024 195q223 0 372.5 149.5t149.5 372.5t-149.5 372.5t-372.5 149.5t-372.5 -149.5t-149.5 -372.5t149.5 -372.5t372.5 -149.5zM799 461l-164 143l385 447h8
l385 -447l-164 -143l-221 256h-8z" />
    <glyph glyph-name="uniE00C" unicode="&#xe00c;" 
d="M1024 -20q-315 0 -526 210.5t-211 526t211 526.5t526 211t526 -211t211 -526.5t-211 -526t-526 -210.5zM1024 195q223 0 372.5 149.5t149.5 372.5t-149.5 372.5t-372.5 149.5t-372.5 -149.5t-149.5 -372.5t149.5 -372.5t372.5 -149.5zM932 328l-144 164l256 221v8
l-256 221l144 164l446 -385v-8z" />
    <glyph glyph-name="uniE00D" unicode="&#xe00d;" 
d="M1020 369l-385 446l164 143l221 -256h8l221 256l164 -143l-385 -446h-8zM1024 -20q-315 0 -526 210.5t-211 526t211 526.5t526 211t526 -211t211 -526.5t-211 -526t-526 -210.5zM1024 195q223 0 372.5 149.5t149.5 372.5t-149.5 372.5t-372.5 149.5t-372.5 -149.5
t-149.5 -372.5t149.5 -372.5t372.5 -149.5z" />
    <glyph glyph-name="uniE00E" unicode="&#xe00e;" 
d="M1024 0l-307 307l127 127l67 -65h11v174h215v-174h10l67 65l127 -127l-307 -307h-10zM338 614v215h1372v-215h-1372zM922 891v174h-11l-67 -66l-127 127l307 308h10l307 -308l-127 -127l-67 66h-10v-174h-215z" />
    <glyph glyph-name="uniE00F" unicode="&#xe00f;" 
d="M604 410l-307 307v10l307 307l127 -127l-65 -67v-11h174v-215h-174v-10l65 -67zM922 0v1434h215v-1434h-215zM1444 410l-127 127l65 67v10h-174v215h174v11l-65 67l127 127l307 -307v-10z" />
    <glyph glyph-name="uniE010" unicode="&#xe010;" 
d="M1024 0l-307 307l153 154l154 -154h10l154 154l153 -154l-307 -307h-10zM338 614v215h1372v-215h-1372zM870 973l-153 153l307 308h10l307 -308l-153 -153l-154 153h-10z" />
    <glyph glyph-name="uniE011" unicode="&#xe011;" 
d="M614 410l-307 307v10l307 307l154 -153l-154 -154v-10l154 -154zM922 0v1434h215v-1434h-215zM1434 410l-154 153l154 154v10l-154 154l154 153l307 -307v-10z" />
    <glyph glyph-name="uniE012" unicode="&#xe012;" 
d="M328 0l-21 20v533h215v-184l348 348l-348 348v-184h-215v532l21 21h532v-215h-184l348 -349l348 349h-184v215h532l21 -21v-532h-215v184l-348 -348l348 -348v184h215v-533l-21 -20h-532v215h184l-348 348l-348 -348h184v-215h-532z" />
    <glyph glyph-name="uniE013" unicode="&#xe013;" 
d="M1024 0l-307 307l127 127l67 -65h11v235h-246v-10l65 -68l-127 -127l-307 308v10l307 307l127 -127l-65 -68v-10h246v246h-11l-67 -66l-127 127l307 308h10l307 -308l-127 -127l-67 66h-10v-246h235v10l-65 68l127 127l307 -307v-10l-307 -308l-127 127l65 68v10h-235
v-235h10l67 65l127 -125l-307 -309h-10z" />
    <glyph glyph-name="uniE014" unicode="&#xe014;" 
d="M618 379q-41 0 -68.5 27.5t-27.5 68.5t29 69.5t67 28.5h334v-194h-334zM516 625q-41 0 -68.5 27.5t-27.5 68.5t28.5 69.5t67.5 28.5h436v-194h-436zM332 860q-41 0 -68.5 29t-27.5 67q0 41 28.5 70t67.5 29h620v-195h-620zM741 123q-45 0 -75.5 30.5t-30.5 75.5t30.5 77
t75.5 32h775v594h-185l-225 164h-416q-45 0 -75.5 30.5t-30.5 75.5t30.5 77t75.5 32h498l225 -164h318v-1024h-990z" />
    <glyph glyph-name="uniE015" unicode="&#xe015;" 
d="M430 0v928q0 45 31 75.5t76 30.5t76.5 -30.5t31.5 -75.5v-713h594v154l164 225v385q0 45 30.5 75.5t75.5 30.5t77 -30.5t32 -75.5v-467l-164 -225v-287h-1024zM686 778v273q0 45 25.5 70.5t70.5 25.5t72 -25.5t27 -70.5v-273h-195zM932 778v375q0 45 25.5 70.5t70.5 25.5
t71.5 -25.5t26.5 -70.5v-375h-194zM1167 778v559q0 45 26 71t71 26t71.5 -26t26.5 -71v-559h-195z" />
    <glyph glyph-name="uniE016" unicode="&#xe016;" 
d="M317 123v1024h318l225 164h498q45 0 75.5 -32t30.5 -77t-30.5 -75.5t-75.5 -30.5h-416l-225 -164h-185v-594h775q45 0 75.5 -32t30.5 -77t-30.5 -75.5t-75.5 -30.5h-990zM1096 379v194h334q39 0 67.5 -28.5t28.5 -69.5t-28 -68.5t-68 -27.5h-334zM1096 625v194h436
q39 0 67.5 -28.5t28.5 -69.5t-27.5 -68.5t-68.5 -27.5h-436zM1096 860v195h620q39 0 67.5 -29t28.5 -70q0 -39 -27.5 -67.5t-68.5 -28.5h-620z" />
    <glyph glyph-name="uniE017" unicode="&#xe017;" 
d="M784 0q-45 0 -71.5 25.5t-26.5 70.5v559h195v-559q0 -45 -26 -70.5t-71 -25.5zM1020 184q-45 0 -71.5 26t-26.5 71v374h194v-374q0 -45 -25.5 -71t-70.5 -26zM1266 287q-45 0 -72 25.5t-27 70.5v272h195v-272q0 -45 -25.5 -70.5t-70.5 -25.5zM539 348q-45 0 -77 31
t-32 76v467l164 225v287h1024v-928q0 -45 -31 -76t-76 -31t-76.5 31t-31.5 76v713h-594v-154l-164 -225v-385q0 -45 -30.5 -76t-75.5 -31z" />
    <glyph glyph-name="uniE018" unicode="&#xe018;" 
d="M901 287h10v850q0 82 -92 82h-266v-922h266zM911 0q0 82 -92 82h-481v1352h481q63 0 112.5 -18.5t65.5 -35.5l17 -18h20q6 8 18.5 20.5t62.5 32t114 19.5h471v-1352h-481q-92 0 -93 -82h-215zM1126 287h11q41 10 82 10h266v922h-266q-92 0 -93 -82v-850z" />
    <glyph glyph-name="uniE019" unicode="&#xe019;" 
d="M1024 -20q-315 0 -526 210.5t-211 526t211 526.5t526 211t526 -211t211 -526.5t-211 -526t-526 -210.5zM1024 195q223 0 372.5 149.5t149.5 372.5t-149.5 372.5t-372.5 149.5t-372.5 -149.5t-149.5 -372.5t149.5 -372.5t372.5 -149.5zM911 328v286h-276v215h276v277h215
v-277h287v-215h-287v-286h-215z" />
    <glyph glyph-name="uniE01A" unicode="&#xe01a;" 
d="M584 123l-154 153l440 441l-440 440l154 154l440 -441l440 441l154 -154l-440 -440l440 -441l-154 -153l-440 440z" />
    <glyph glyph-name="uniE01B" unicode="&#xe01b;" 
d="M582 428l729 729q-131 82 -287 82q-223 0 -372.5 -149.5t-149.5 -372.5q0 -162 80 -289zM1024 -20q-315 0 -526 210.5t-211 526t211 526.5t526 211t526 -211t211 -526.5t-211 -526t-526 -210.5zM1024 195q223 0 372.5 149.5t149.5 372.5q0 156 -82 287l-729 -728
q127 -81 289 -81z" />
    <glyph glyph-name="uniE01C" unicode="&#xe01c;" 
d="M604 410l-328 327l154 154l72 -72v307q0 137 83 222.5t214 85.5h645v-215h-645q-82 0 -82 -93v-307l71 72l154 -154l-328 -327h-10zM604 0v215h645q82 0 82 92v307l-71 -71l-154 153l328 328h10l328 -328l-154 -153l-72 71v-307q0 -137 -83 -222t-214 -85h-645z" />
    <glyph glyph-name="uniE01D" unicode="&#xe01d;" 
d="M809 643q123 0 205 84t82 207q0 119 -83 201t-204 82q-119 0 -202 -83t-85 -204q0 -119 84 -203t203 -84zM573 930q0 100 68 168.5t168 68.5v-217q-18 0 -18 -20h-218zM1432 0q-102 0 -193 90l-346 344q-25 -6 -84 -6q-207 2 -354.5 148.5t-147.5 353.5t148.5 355.5
t353.5 148.5q209 0 356.5 -148.5t147.5 -355.5q0 -55 -8 -84l346 -346q90 -90 90 -193q0 -104 -96 -201l-11 -10q-96 -96 -202 -96zM1435.5 225q24.5 0 53.5 31t29 53.5t-33 55.5l-271 268q-41 -51 -104 -105l268 -270q33 -33 57.5 -33z" />
    <glyph glyph-name="uniE01E" unicode="&#xe01e;" 
d="M624.5 215q34.5 0 58.5 23.5t24 58.5t-24 58.5t-58.5 23.5t-58 -23.5t-23.5 -58.5t23.5 -58.5t58 -23.5zM625 0q-123 0 -210 87t-87 210t87 210t210 87q109 0 192 -72l309 166v19v26l-317 170q-84 -63 -184 -63q-123 0 -210 87t-87 210t87 210t210 87t210 -87t87 -210v-9
l331 -178q80 53 170 54q123 0 210 -87.5t87 -210t-87 -209.5t-210 -87q-100 0 -176 57l-325 -174q-2 -121 -89 -207t-208 -86zM624.5 1055q34.5 0 58.5 23.5t24 58t-24 58.5t-58.5 24t-58 -24t-23.5 -58.5t23.5 -58t58 -23.5zM1423.5 625q34.5 0 58 23.5t23.5 58t-23.5 58
t-58 23.5t-58.5 -23.5t-24 -58t24 -58t58.5 -23.5z" />
    <glyph glyph-name="uniE01F" unicode="&#xe01f;" 
d="M287 -20v512l20 20h512v-215h-112q137 -102 317 -102q223 0 372.5 149.5t149.5 372.5h215q0 -315 -211 -526t-526 -211q-309 0 -522 208v-208h-215zM287 717q0 315 211 526t526 211q309 0 522 -209v209h215v-512l-20 -20h-512v215h112q-137 102 -317 102
q-223 0 -372.5 -149.5t-149.5 -372.5h-215z" />
    <glyph glyph-name="uniE020" unicode="&#xe020;" 
d="M1024 -20q-315 0 -526 210.5t-211 526.5q0 309 209 522h-209v215h512l20 -20v-512h-215v112q-102 -137 -102 -317q0 -223 149.5 -372.5t372.5 -149.5t372.5 149.5t149.5 372.5t-149.5 372.5t-372.5 149.5v215q315 0 526 -211t211 -526.5t-211 -526t-526 -210.5z" />
    <glyph glyph-name="uniE021" unicode="&#xe021;" 
d="M287 -20v512l20 20h512v-215h-112q137 -102 317 -102q164 0 293 84l-731 731q-84 -129 -84 -293h-215q0 254 143 448l-113 115l154 154l115 -117q193 137 438 137q309 0 522 -209v209h215v-512l-20 -20h-512v215h112q-137 102 -317 102q-154 0 -281 -78l725 -725
q78 127 78 281h215q0 -246 -137 -438l127 -125l-154 -154l-124 123q-195 -143 -449 -143q-309 0 -522 208v-208h-215z" />
    <glyph glyph-name="uniE022" unicode="&#xe022;" 
d="M911 0v266h-10l-67 -65l-127 127l307 307h10l307 -307l-127 -127l-67 65h-11v-266h-215zM532 0q-137 0 -222 83t-85 214v256q0 131 85 214t222 83q0 131 85 214t223 83q0 125 85 206t222 81h51q137 0 222 -83t85 -214v-133q137 0 222 -83t85 -214v-410q0 -131 -85 -214
t-222 -83h-133v215h133q92 0 92 82v410q0 82 -92 81h-215v349q0 82 -92 82h-51q-45 0 -68.5 -26t-23.5 -67v-194h-215q-92 0 -92 -82v-215h-216q-92 0 -92 -82v-256q0 -82 92 -82h134v-215h-134z" />
    <glyph glyph-name="uniE023" unicode="&#xe023;" 
d="M1014 0l-307 307l127 127l67 -65h10v266h215v-266h11l67 65l127 -127l-307 -307h-10zM532 0q-137 0 -222 83t-85 214v256q0 131 85 214t222 83q0 131 85 214t223 83q0 125 85 206t222 81h51q137 0 222 -83t85 -214v-133q137 0 222 -83t85 -214v-410q0 -131 -85 -214
t-222 -83h-133v215h133q92 0 92 82v410q0 82 -92 81h-215v349q0 82 -92 82h-51q-45 0 -68.5 -26t-23.5 -67v-194h-215q-92 0 -92 -82v-215h-216q-92 0 -92 -82v-256q0 -82 92 -82h134v-215h-134z" />
    <glyph glyph-name="uniE024" unicode="&#xe024;" 
d="M430 0v1434h1188v-1434h-363l-231 399l-231 -399h-363zM645 215h10l256 440h226l256 -440h10v1004h-758v-1004z" />
    <glyph glyph-name="uniE025" unicode="&#xe025;" 
d="M584 154l665 665l-123 113l-665 -666zM287 0v369l1065 1065l399 -390l-1044 -1044h-420zM1413 983l82 82l-123 113l-82 -82z" />
    <glyph glyph-name="uniE026" unicode="&#xe026;" 
d="M717 215h614q92 0 92 82v614h-112v-594h-205v594h-164v-594h-205v594h-112v-614q0 -82 92 -82zM717 0q-137 0 -222 83t-85 214v614h-72v215h307v308h758v-308h307v-215h-72v-614q0 -131 -85 -214t-222 -83h-614zM860 1126h328v93h-328v-93z" />
    <glyph glyph-name="uniE027" unicode="&#xe027;" 
d="M1024 -20q-315 0 -526 210.5t-211 526t211 526.5t526 211t526 -211t211 -526.5t-211 -526t-526 -210.5zM1024 195q223 0 372.5 149.5t149.5 372.5t-149.5 372.5t-372.5 149.5t-372.5 -149.5t-149.5 -372.5t149.5 -372.5t372.5 -149.5zM799 338l-154 154l225 225l-235 235
l153 154l236 -236l236 236l153 -154l-235 -235l225 -225l-154 -154l-225 225z" />
    <glyph glyph-name="uniE028" unicode="&#xe028;" 
d="M1024 -20q-315 0 -526 210.5t-211 526t211 526.5t526 211q180 0 348 -82l-112 -184q-117 51 -236 51q-223 0 -372.5 -149.5t-149.5 -372.5t149.5 -372.5t372.5 -149.5t372.5 149.5t149.5 372.5l-4 74l148 253q72 -143 71 -327q0 -315 -211 -526t-526 -211zM922 297
l-299 520l186 105l203 -359h24l510 891l185 -102l-605 -1055h-204z" />
    <glyph glyph-name="uniE029" unicode="&#xe029;" 
d="M307 0v1434h922v-215h-707v-1004h1004v604h215v-819h-1434zM891 297l-299 520l186 105l203 -359h25l510 891l184 -102l-604 -1055h-205z" />
    <glyph glyph-name="uniE02A" unicode="&#xe02a;" 
d="M584 215h245v492h379v-492h246v563l-430 369h-10l-430 -369v-563zM369 0v676h-72v123l717 635h10l225 -201v139h318v-420l174 -153v-123h-72v-676h-1300z" />
    <glyph glyph-name="uniE02B" unicode="&#xe02b;" 
d="M553 297v205h430v-205h-430zM553 563v205h532v-205h-532zM543 215h655q-10 45 -10 82v922h-737v-922q0 -82 92 -82zM553 942v205h532v-205h-532zM543 0q-137 0 -222 83t-85 214v1137h1167v-349h399v-788q0 -131 -85 -214t-222 -83h-952zM1495 215q92 0 92 82v573h-184
v-573q0 -82 92 -82z" />
    <glyph glyph-name="uniE02C" unicode="&#xe02c;" 
d="M911 307v594h215v-594h-215zM1024 -20q-315 0 -526 210.5t-211 526t211 526.5t526 211t526 -211t211 -526.5t-211 -526t-526 -210.5zM1024 195q223 0 372.5 149.5t149.5 372.5t-149.5 372.5t-372.5 149.5t-372.5 -149.5t-149.5 -372.5t149.5 -372.5t372.5 -149.5z
M1024 952q-45 0 -73.5 28t-28.5 75t28.5 74.5t73.5 27.5t73.5 -27.5t28.5 -74.5t-28.5 -75t-73.5 -28z" />
    <glyph glyph-name="uniE02D" unicode="&#xe02d;" 
d="M266 0v1434h819v-215h-606v-1004h1080v563h210v-778h-1503zM1085 594l-153 154l471 471h-174v215h522l21 -21v-491h-216v143z" />
    <glyph glyph-name="uniE02E" unicode="&#xe02e;" 
d="M522 215h1004v655h-1004v-655zM686 543v215h676v-215h-676zM307 0v1434h1434v-1434h-1434zM522 1085h1004v134h-1004v-134z" />
    <glyph glyph-name="uniE02F" unicode="&#xe02f;" 
d="M317 0v1434h1414v-1434h-1414zM532 215h984v1004h-984v-1004zM840 397l-31 23l31 225l-144 143l11 41l215 41l92 205h41l92 -205l215 -41l10 -41l-143 -143l31 -225l-31 -23l-195 107z" />
    <glyph glyph-name="uniE030" unicode="&#xe030;" 
d="M655 215h738q92 0 92 82v266h-246v-215h-430v215h-246v-266q0 -82 92 -82zM655 0q-137 0 -222 83t-85 214v829h287v11q0 131 85 214t222 83h164q137 0 222 -83t85 -214v-11h287v-829q0 -131 -85 -214t-222 -83h-738zM563 778h922v133h-922v-133zM850 1126h348v11
q0 82 -92 82h-164q-92 0 -92 -82v-11z" />
    <glyph glyph-name="uniE031" unicode="&#xe031;" 
d="M338 92v215h1372v-215h-1372zM338 614v215h1372v-215h-1372zM338 1126v215h1372v-215h-1372z" />
    <glyph glyph-name="uniE032" unicode="&#xe032;" 
d="M911 522v400h215v-400h-215zM655 0v266h-41q-137 0 -222 83t-85 214v574q0 131 85 214t222 83h820q137 0 222 -83t85 -214v-574q0 -131 -85 -214t-222 -83h-195l-195 -266h-389zM870 215h72l195 266h297q92 0 92 82v574q0 82 -92 82h-820q-92 0 -92 -82v-574
q0 -82 92 -82h256v-266zM1024 983q-45 0 -73.5 28.5t-28.5 73.5t28.5 74t73.5 29t73.5 -29t28.5 -74t-28.5 -73.5t-73.5 -28.5z" />
    <glyph glyph-name="uniE033" unicode="&#xe033;" 
d="M440 0v451q0 131 85 214t223 83h552q137 0 222.5 -83t85.5 -214v-451h-1168zM655 215h738v236q0 82 -93 81h-112l-154 -155h-20l-154 155h-112q-92 0 -93 -81v-236zM993 829q-137 0 -222 83t-85 214v308h676v-308q0 -131 -85 -214t-222 -83h-62zM993 1044h62q92 0 92 82
v93h-246v-93q0 -82 92 -82z" />
    <glyph glyph-name="uniE034" unicode="&#xe034;" 
d="M430 0v1434h799l389 -390v-1044h-1188zM645 215h758v727h-318v277h-440v-1004z" />
    <glyph glyph-name="uniE035" unicode="&#xe035;" 
d="M748 287v215h409v-215h-409zM748 573v215h552v-215h-552zM430 0v1434h799l389 -390v-1044h-1188zM645 215h758v727h-318v277h-440v-1004z" />
    <glyph glyph-name="uniE036" unicode="&#xe036;" 
d="M707 307v51l256 256l133 -133l30 31l185 -184v-21h-604zM430 0v1434h799l389 -390v-1044h-1188zM645 215h758v727h-318v277h-440v-1004zM1137 614q-43 0 -73 30t-30 73q0 41 30 71.5t73 30.5q41 0 71.5 -30.5t30.5 -71.5q0 -43 -30.5 -73t-71.5 -30z" />
    <glyph glyph-name="uniE037" unicode="&#xe037;" 
d="M512 348v10l461 461l194 -194l52 51l317 -318v-10h-236l-81 82l-82 -82h-236v10l143 144l-71 71l-225 -225h-236zM205 0v1434h1638v-1434h-1638zM420 215h1208v1004h-1208v-1004zM1229 881q-43 0 -73 29.5t-30 72.5q0 41 30 71.5t73 30.5q41 0 71.5 -30.5t30.5 -71.5
q0 -43 -30.5 -72.5t-71.5 -29.5z" />
    <glyph glyph-name="uniE038" unicode="&#xe038;" 
d="M522 215h1004v471h-1004v-471zM307 0v1434h533l88 -185h813v-1249h-1434zM522 901h1004v133h-1004v-133z" />
    <glyph glyph-name="uniE039" unicode="&#xe039;" 
d="M461 215h31l102 686h870v133h-1003v-819zM686 215h893l70 471h-893zM246 0v1434h532l88 -185h813v-348h174v-153l-112 -748h-1495z" />
    <glyph glyph-name="uniE03A" unicode="&#xe03a;" 
d="M819 0l-174 72q29 66 28 122t-13.5 79.5t-34.5 54.5q-23 29 -83.5 42t-172.5 -12q-70 162 -72 164q154 66 154 205t-154 205l72 164q113 -25 173 -11.5t83 41.5q23 31 35 54.5t13 80t-28 121.5l174 72q29 -66 73 -105.5t73.5 -49t58.5 -9.5t58.5 9.5t73.5 49.5t73 105
l174 -72q-29 -66 -28 -122t13.5 -79.5t34.5 -54.5q23 -29 83.5 -42t172.5 12q70 -162 72 -164q-154 -66 -154 -205t154 -205l-72 -164q-113 25 -173 11.5t-83 -41.5q-23 -31 -35 -54.5t-13 -80t28 -121.5l-174 -72q-29 66 -73 105.5t-73.5 49t-58.5 9.5t-58.5 -9.5
t-73.5 -49t-73 -105.5zM881 348q41 41 143 41t143 -41l21 10q0 51 82 134q61 61 123 61l10 31q-41 41 -41 133v20q0 92 41 133l-10 31q-61 0 -123 62q-82 82 -82 133l-21 10q-41 -41 -143 -41t-143 41l-21 -10q0 -51 -82 -133q-61 -61 -123 -62l-10 -31q41 -41 41 -133v-20
q0 -92 -41 -133l10 -31q61 0 123 -61q82 -82 82 -134zM1024 543q-78 0 -131 54t-53 130t53 130t131 54q76 0 130 -54t54 -130t-54 -130t-130 -54z" />
    <glyph glyph-name="uniE03B" unicode="&#xe03b;" 
d="M553 553l-164 72l31 71l-72 72l-72 -20l-71 153l71 37v127l-71 41l71 154l72 -21l80 80l-29 63l144 72l30 -72h170l35 72l144 -72l-31 -71l76 -74l77 23l72 -154l-82 -41v-123l82 -41l-72 -153l-81 20l-72 -72l41 -71l-164 -72l-35 72h-145zM655 799q82 0 143.5 61.5
t61.5 143t-61.5 143t-143.5 61.5t-143 -61.5t-61 -143t61 -143t143 -61.5zM655 901q-45 0 -73.5 28.5t-28.5 74t28.5 74t73.5 28.5t74 -28.5t29 -74t-29 -74t-74 -28.5zM1280 -20l-164 71l31 72l-72 72l-71 -21l-72 154l72 37v127l-72 40l72 154l71 -20l80 79l-29 64l144 72
l30 -72h170l35 72l144 -72l-31 -72l76 -73l78 22l71 -154l-82 -40v-123l82 -41l-71 -154l-82 21l-72 -72l41 -72l-164 -71l-35 71h-145zM1382 225q84 0 144.5 61.5t60.5 143.5t-60.5 143.5t-144.5 61.5t-144 -61.5t-60 -143.5t60 -143.5t144 -61.5zM1382.5 328
q-47.5 0 -75 28.5t-27.5 73.5t27.5 73.5t75 28.5t75 -28.5t27.5 -73.5t-27.5 -73.5t-75 -28.5z" />
    <glyph glyph-name="uniE03C" unicode="&#xe03c;" 
d="M811 643q119 0 203 84t84 203q0 84 -41 152.5t-113 101.5v-387h-387q37 -72 104.5 -113t149.5 -41zM1432 0q-102 0 -193 90l-346 344q-27 -6 -82 -6q-207 0 -355.5 147.5t-148.5 354.5q0 152 84 276h62l192 -194h84v82l-194 194v62q123 82 276 82q207 0 354.5 -147.5
t147.5 -354.5q0 -47 -8 -84l346 -346q90 -90 90 -193q0 -104 -96 -201l-11 -10q-96 -96 -202 -96zM1435.5 225q24.5 0 53.5 31t29 53.5t-33 55.5l-271 268q-41 -51 -104 -105l268 -270q33 -33 57.5 -33z" />
    <glyph glyph-name="uniE03D" unicode="&#xe03d;" 
d="M614 0q-137 0 -222 83t-85 214v266h285q33 -82 115 -82q51 0 86.5 36t35.5 87t-35.5 87t-86.5 36q-39 0 -71 -22.5t-44 -59.5h-285v318q0 131 85 214t222 83l72 -11q0 125 100.5 221.5t237.5 96.5t237.5 -96.5t100.5 -221.5q41 10 72 11q137 0 222 -83t85 -214v-666
q0 -131 -85 -214t-222 -83h-820zM614 215h820q92 0 92 82v666q0 82 -92 81q-29 0 -136.5 -26.5t-160.5 -44.5h-62v143q72 29 72 113q0 53 -35 88t-88 35t-88 -35t-35 -88q0 -84 72 -113v-143h-62q-215 72 -297 71q-92 0 -92 -81v-72h10q86 51 175 51q139 0 238 -99.5
t99 -238.5t-99 -238.5t-238 -99.5q-98 0 -185 51v-20q0 -82 92 -82z" />
    <glyph glyph-name="uniE03E" unicode="&#xe03e;" 
d="M625 215h716q92 0 93 82v840q0 82 -93 82h-716q-92 0 -93 -82v-840q1 -82 93 -82zM940 526l-254 168l117 168l137 -88l285 223l118 -151zM625 0q-137 0 -222.5 83t-85.5 214v840q0 131 85 214t223 83h716q135 0 221.5 -78t86.5 -189h10q57 0 100 -30.5t43 -81.5v-205
q0 -51 -43 -82t-100 -31h-10v-440q0 -131 -85 -214t-223 -83h-716z" />
    </font>
</defs>
</svg>
